<?xml version="1.0" encoding="UTF-8"?>
<svg id="Layer_1" xmlns="http://www.w3.org/2000/svg" version="1.1" viewBox="0 0 1129 166.8">
  <!-- Generator: Adobe Illustrator 29.4.0, SVG Export Plug-In . SVG Version: 2.1.0 Build 152)  -->
  <defs>
    <style>
      .st0 {
        fill: #15d9de;
      }

      .st1 {
        fill: #203088;
      }

      .st2 {
        fill: #dfb6d7;
      }
    </style>
  </defs>
  <path class="st1" d="M751.7,7.4l-7.2-7.4h-24.4c-21.3,0-24.7.2-26.2,1.7-1,.9-1.8,2.1-1.8,2.6s-.9,2.8-1.9,5.1c-3.6,7.9-22.7,53.4-27.3,65-1.7,4.3-3.4,7.8-3.8,7.8s-1.6-2.4-2.8-5.2c-3.6-9.1-8.2-20.1-10.6-25.2-1.3-2.8-3.8-8.4-5.5-12.5-1.8-4.1-4.2-9.8-5.5-12.5s-2.6-6.2-2.9-7.5c-.3-1.4-4-6.2-8.2-10.8l-7.6-8.2h-25.2c-18.3,0-25.5.3-26.4,1.2-.9.9-1.2,18.9-1.2,75v73.8l7.1,6.9,7.1,6.9h18.2c10-.2,18.7-.6,19.4-1.1,1-.6,1.2-8.5,1.2-33.8s.4-32.9,1-32.9,1.9,2.1,3.1,4.8c1.2,2.6,3.2,7.1,4.5,10,1.3,2.9,2.4,5.5,2.4,5.8s.9,2.4,1.9,4.7c1.1,2.3,4.2,9.6,7,16.2,3.3,7.6,6.5,13.4,8.8,15.9,2,2.2,4.9,5.3,6.4,6.8l2.7,2.8h27.2l1.5-3.8c.9-2.1,2.4-5.5,3.4-7.8,1-2.2,2.7-6.2,3.8-9,7.4-18.7,12.9-30.9,13.9-31.2,1-.3,1.2,3.9,1.2,18.6v19l6.8,7,6.8,7,19,.3c10.4.1,19.6,0,20.2-.5.9-.6,1.2-17.4,1.2-74.3V14.9s-7.2-7.4-7.2-7.4ZM745.6,33.7c.3-.4,2.6,1,5,3.1,4,3.4,4.3,4.1,4.4,8.5,0,2.6-.3,4.8-.8,4.8s-2.7-1.9-5-4.3c-3.3-3.4-4.2-5-4.2-7.8s.3-3.8.6-4.2ZM745,24.4c0-2.4.3-4.4.8-4.3.4,0,2.7,1.7,5.1,3.8,4.1,3.6,4.3,3.9,4,8.7l-.3,5-4.8-4.4c-4.3-3.9-4.8-4.8-4.8-8.8ZM745.9,46.2c.5.2,2.8,2,5,4.1,3.9,3.6,4.2,4.1,3.9,8.7l-.3,4.9-4.8-4.2c-4.4-3.9-4.8-4.5-4.8-9s.4-4.7.9-4.5ZM652.3,84.7c-1.7-1.8-3.8-5.2-4.7-7.6l-1.7-4.4,2.3,1.5c2.2,1.4,8.5,12.4,7.6,13.4-.2.2-1.8-1-3.5-2.8ZM655.8,93.2c-.3.8-.9.4-1.7-1.1-.7-1.3-1-2.5-.8-2.8.8-.8,2.9,2.5,2.5,3.8ZM649.6,72.7c-.2.2-2-1.5-3.8-3.9-3.3-4.2-6.2-9.7-5.5-10.4.2-.2,1.4.4,2.7,1.3,2.2,1.5,7.6,12.1,6.7,13ZM640.5,50c.2,1,.9,2.8,1.5,4,1.8,3.3.5,3.4-2.8.3-1.6-1.5-3.6-4.6-4.5-6.8-.8-2.2-2.5-6.4-3.6-9.4-1.2-3-1.9-5.6-1.7-5.9,1.4-1.5,10,12.3,11.1,17.8ZM623.2,17.5c.9-.9,6.5,6.2,8.1,10.3,1.8,4.9,1.2,5.3-2.5,1.5-2.6-2.7-6.4-10.9-5.6-11.8ZM594.5,160h-16.5c0,.1,0-10,0-10h25.6l3.7,4.4c2,2.4,3.7,4.7,3.7,4.9s-7.4.5-16.5.6ZM602.8,110c.4,0,2.7,2,5.1,4.3,4,4,4.2,4.7,4,9l-.3,4.6-4.8-4.1c-4.5-3.8-4.8-4.3-4.8-9s.4-4.9.8-4.9ZM602,101.6c0-1.9.4-3.7.8-4,.5-.3,2.7,1.4,5.1,3.8,3.9,4,4.2,4.6,3.9,9.1l-.3,4.8-4.8-5.1c-3.8-4-4.8-5.8-4.8-8.6ZM611.8,136.5l-.3,4.8-4.7-3.9c-4.3-3.6-4.7-4.3-4.8-8.6,0-2.6.3-4.9.8-5.2.5-.3,2.7,1.4,5.1,3.8,3.9,4,4.2,4.6,3.9,9.1ZM611.8,150.4l-.3,5.7-4.9-5c-4.8-4.8-4.9-5.1-4.2-9.5.4-2.5,1-4.6,1.4-4.6s2.4,1.7,4.5,3.8c3.6,3.7,3.7,4.1,3.5,9.5ZM611.2,101c-.4,0-2.5-1.7-4.5-3.8-3.8-3.9-5.6-9.3-4.3-12.8.6-1.4,1.4-1,5.1,2.7,4,4,4.5,4.8,4.5,9.2s-.4,4.8-.8,4.8ZM611.5,88c-.3,0-2.2-1.6-4.4-3.5-3.1-2.8-4-4.5-4.6-8.1-1-6.6.5-7.2,5.3-1.9,3.6,3.9,4.2,5.1,4.2,9s-.2,4.5-.5,4.5ZM602.9,60.6c.8-.5,1.7,1.2,4.8,9.2.8,2-1.2,1.4-3.6-1.1-2.2-2.3-2.9-7.1-1.3-8.1ZM666.1,160h-10.9l-2.1-3.6c-3.6-6.1-3.2-6.4,6.6-6.4h8.7l4.3,4.2c2.4,2.3,4.3,4.6,4.3,5s-4.9.8-10.9.8ZM681,152.9c-.8,2.3-1.7,4.1-2.1,4.1s-2.8-1.9-5.4-4.2c-4.6-4.2-4.6-4.3-3.4-8,.7-2.1,1.8-3.8,2.6-3.8s3.2,1.8,5.5,3.9l4.2,3.9-1.4,4.1ZM685.5,142.4c-.8,2-2,3.6-2.6,3.6s-3.1-1.9-5.5-4.2l-4.5-4.2,1.6-3.8c.9-2.1,1.9-3.7,2.3-3.7.4,0,2.9,2,5.5,4.4l4.7,4.4-1.5,3.6ZM689.4,132.7l-1.9,4.2-5.3-4.7-5.3-4.7,1.6-3.8c.9-2.1,2-3.8,2.5-3.8s3,1.9,5.6,4.3l4.7,4.3-1.9,4.2ZM693.8,122.4c-.9,2-2.1,3.6-2.5,3.6-.4,0-2.7-2-5.2-4.4-4.3-4.2-4.3-4.4-3.2-8,.7-2,1.6-3.6,2-3.6s3,2,5.7,4.4l4.8,4.4-1.7,3.6ZM696.7,114.3c-1.3,1.7-1.6,1.6-6.2-2.6q-4.9-4.4-3.5-7.8c.7-1.9,1.6-3.7,1.9-4.1.3-.4,2.8,1.2,5.5,3.6,5.2,4.5,5.6,6.5,2.3,11ZM702.4,102.2c-1,2.1-2,3.7-2.4,3.7-.3,0-2.8-2-5.5-4.4-4.9-4.3-4.9-4.4-3.6-7.7.7-1.8,1.7-3.7,2-4.2.4-.5,3.1,1.3,5.9,4l5.2,4.8-1.8,3.7ZM698.6,90.8l-4.8-4.2,1.8-3.8c1-2.1,2-3.8,2.4-3.8s2.3,1.4,4.3,3.1c3.4,2.8,3.7,3.5,3.7,8s-1.1,6.3-7.4.7ZM705.2,82c-.4,0-2-1.3-3.5-2.8-1.5-1.6-2.3-2.4-2.5-3.3-.2-1,.3-2.1,1.2-4.4v-.2c1.5-3.5,1.6-3.6,3.6-1.8,1.5,1.4,2,3.1,2,7.1s-.4,5.3-.8,5.3ZM704.2,62.8l1.6-3.3v4.2c0,2.3,0,4.2-.1,4.2-.1,0-.9-.4-1.7-.9-1.3-.8-1.2-1.4.2-4.2ZM714.7,154.3c-1.4-1.4-.6-3.3,1.3-3.3s2,.7,2,2c0,1.9-2,2.7-3.3,1.3ZM708.8,147l.3-49.8c.4-55.4.3-56.1-5.6-41.8-1.8,4.4-5.2,12.5-7.5,18-2.3,5.5-6.2,15-8.7,21-2.5,6-5.9,14.2-7.5,18-1.6,3.8-5.2,12.6-8,19.5s-5.5,13.1-6.1,13.8c-.7.8-4.3,1.2-11.2,1.2h-10.2l-1.8-3.8c-2.2-4.5-20.6-48-32.1-75.8-5.2-12.5-8.9-20.1-9.9-20.3-1.4-.3-1.6,4.9-1.6,49.8v50.1h-32V4h23.5c21.5,0,23.6.2,24.2,1.8,1.1,2.9,12.4,30.5,14.4,35,1,2.3,1.9,4.5,1.9,4.9s1.7,4.6,3.9,9.3c2.1,4.7,5.8,13.3,8.1,19.1,6.8,16.7,11.2,26,12.5,26s1.8-.7,11.5-25c4.3-10.7,10.5-25.8,13.7-33.5,3.2-7.7,8.1-19.3,10.8-25.7l4.9-11.7h45.5s-.5,142.5-.5,142.5l-32.7.5ZM737,160h-17v-10h25.6l4.2,4.3c2.3,2.4,4.2,4.6,4.2,5s-7.7.7-17,.7ZM754.8,124.9l-.3,5-4.8-4.5c-4.6-4.3-4.8-4.8-4.5-9.3l.3-4.8,4.8,4.3c4.6,4.2,4.8,4.5,4.5,9.3ZM754.8,137.9l-.3,4.8-4.8-4.3c-4.4-4-4.8-4.7-4.8-9s.4-4.5.9-4.3c.5.2,2.8,2,5,4.1,3.9,3.6,4.2,4.1,3.9,8.7ZM754.8,111.5l-.3,5-4.8-4.5c-4.6-4.3-4.8-4.7-4.5-9.2l.3-4.7,4.8,4.2c4.7,4.1,4.8,4.3,4.5,9.2ZM754.8,98.6l-.3,4.9-4.8-4.4c-4.4-4.1-4.8-4.7-4.8-9.2s.4-4.9.8-4.9,2.7,2,5.1,4.3c4,4.1,4.2,4.7,4,9.2ZM754.8,85.2l-.3,4.6-4.8-4.2c-4.4-3.9-4.8-4.5-4.8-8.9,0-2.6.4-4.8.8-4.8s2.7,2,5.1,4.3c3.9,4,4.2,4.7,4,8.9ZM754.2,156c-.4,0-2.7-1.9-5-4.3-3.7-3.8-4.2-4.8-4.2-9s.3-4.7.8-4.7c.4,0,2.7,1.8,5,3.9,3.9,3.6,4.2,4.2,4.2,9s-.4,5.1-.8,5.1ZM754.2,76c-.4,0-2.7-1.7-5-3.8-3.9-3.4-4.3-4.1-4.2-8.5,0-2.6.3-4.8.7-4.8s2.6,1.9,5,4.2c3.7,3.7,4.3,4.8,4.3,8.5s-.3,4.3-.8,4.3ZM754.2,24c-.4,0-2.7-1.9-5-4.3-3.4-3.5-4.2-5-4.2-8s.2-3.7.6-3.7,2.6,1.7,5,3.7c4,3.3,4.4,4.1,4.4,8s-.4,4.3-.8,4.3ZM1080.1,75c-.8-8.2-7.3-15.6-16.2-18.5-7.9-2.6-20.5-1.8-25.8,1.8-5.6,3.7-9,7.5-11.2,12.5-.2.5-.5,1-.7,1.5-1,2.3-1.7,3.8-1.3,4.8.9,2,6.3,1.9,22.5,1.8,1.7,0,3.4,0,5.3,0l27.8-.3-.4-3.5ZM1065.1,60.5c.7-.6,7.9,5.4,7.9,6.5,0,1.8-1.6.9-5-2.6-1.9-1.9-3.2-3.7-2.9-4ZM1029.6,75.1c-.7-1.1.3-4.1,1.4-4.1s4.1,3.4,4.1,4.3-4.8.8-5.4-.2ZM1038,74.3c-3.2-2.2-6-5.1-6-6.1s4.3-5.2,5.3-5.2,7.8,7.5,9,9.7c1.8,3.2-4.3,4.4-8.3,1.6ZM1055.9,69.4c-.2.2-1.8,1.1-3.6,2l-3.2,1.6-4.6-5.2c-2.5-2.9-4.4-5.6-4.3-6.2.2-.5,2-1.5,4-2.2l3.7-1.3,4.1,5.5c2.3,3,4,5.6,3.7,5.8ZM1054.6,63.7c-2-2.4-3.6-4.7-3.6-5s2-.7,4.4-.7c3.9,0,4.8.5,8,4,2,2.2,3.4,4.5,3.1,5-.3.5-2.3,1-4.5,1-3.4,0-4.4-.6-7.4-4.3ZM1073.8,73.2c-.3.9-2.9,1.4-8.2,1.6-6,.2-7.7,0-7.3-1,.3-.9,2.9-1.4,8.2-1.6,6-.2,7.7,0,7.3,1ZM1080.1,75c-.8-8.2-7.3-15.6-16.2-18.5-7.9-2.6-20.5-1.8-25.8,1.8-5.6,3.7-9,7.5-11.2,12.5-.2.5-.5,1-.7,1.5-1,2.3-1.7,3.8-1.3,4.8.9,2,6.3,1.9,22.5,1.8,1.7,0,3.4,0,5.3,0l27.8-.3-.4-3.5ZM1065.1,60.5c.7-.6,7.9,5.4,7.9,6.5,0,1.8-1.6.9-5-2.6-1.9-1.9-3.2-3.7-2.9-4ZM1029.6,75.1c-.7-1.1.3-4.1,1.4-4.1s4.1,3.4,4.1,4.3-4.8.8-5.4-.2ZM1038,74.3c-3.2-2.2-6-5.1-6-6.1s4.3-5.2,5.3-5.2,7.8,7.5,9,9.7c1.8,3.2-4.3,4.4-8.3,1.6ZM1055.9,69.4c-.2.2-1.8,1.1-3.6,2l-3.2,1.6-4.6-5.2c-2.5-2.9-4.4-5.6-4.3-6.2.2-.5,2-1.5,4-2.2l3.7-1.3,4.1,5.5c2.3,3,4,5.6,3.7,5.8ZM1054.6,63.7c-2-2.4-3.6-4.7-3.6-5s2-.7,4.4-.7c3.9,0,4.8.5,8,4,2,2.2,3.4,4.5,3.1,5-.3.5-2.3,1-4.5,1-3.4,0-4.4-.6-7.4-4.3ZM1073.8,73.2c-.3.9-2.9,1.4-8.2,1.6-6,.2-7.7,0-7.3-1,.3-.9,2.9-1.4,8.2-1.6,6-.2,7.7,0,7.3,1ZM1127.6,89c-2.2-12.2-3.4-15.4-8.4-23.1-6.3-9.6-9.5-13-22.1-23.3-12.2-10-20.2-13.6-34.8-15.6-20.6-2.9-41.7,4.4-56.2,19.3-3,3.1-6.3,7.2-7.5,9.3-3.7,6.5-4.6,5.6-4.6-4.2v-8.8l-6.7-6.8-6.7-6.8h-7.8c-4.3,0-7.8-.3-7.8-.8s-.3-3.8-.6-7.6c-.6-6.6-.7-6.9-5.6-11.5-2.8-2.6-5.8-5.5-6.6-6.5-1.4-1.6-3.4-1.8-18.3-1.7-9.2,0-17.6.4-18.7.6-1.7.5-2,1.7-2.3,12.4-.2,7.3-.8,12.3-1.5,13-.7.6-4.9,1.5-9.5,1.8l-8.3.6-.3,15.6-.3,15.6,7.4,7.1c4.1,3.9,8.5,7.2,9.8,7.4l2.3.3.6,23c.3,12.7,1.1,24.7,1.6,26.7,1.7,6.3,5.7,11.9,15.4,21.8,10.3,10.5,13.2,13,15.2,13s1.7.4,2.2.9c2.7,2.6,13.7,5.1,22.7,5,9.4,0,21.2-2,23-3.8.6-.6.9-6.9.7-16.2l-.3-15.1-7.7-7.5c-4.2-4.1-8.3-7.4-9-7.4s-3.1.6-5.3,1.4h-.4c-2.1.8-3.5,1.3-4.4.9-1.9-.9-1.8-5.7-1.6-20v-1.2s.3-20.6.3-20.6h24l-.3,9c-.4,9.4.8,18.6,3.5,27,2.5,7.9,9.2,17.1,21.6,29.7,10.4,10.6,12.3,12.1,20.9,16.1,11,5.2,14.5,6.4,22.4,7.6,13.2,2,30.5-1.1,42.6-7.6,7.4-4,16.9-13.6,21.8-22.1,2.3-4,4.1-7.7,3.9-8.3-.2-.6-2.6-2.8-5.3-4.8-2.7-2.1-5.1-4.5-5.3-5.5-.3-1.5.6-1.7,6.1-1.7s6.6-.4,7.1-1.6c1.1-2.8.6-17.6-.8-25.4ZM981.6,40c.4,0,2.6,1.6,5,3.6,4,3.3,4.4,3.9,4.2,8,0,2.5-.4,4.6-.8,4.9-.3.2-2.5-1.4-4.8-3.6-3.8-3.5-4.2-4.5-4.2-8.4s.3-4.5.6-4.5ZM951.7,8c.4,0,2.6,1.9,5,4.2,3.7,3.7,4.3,4.8,4.3,8.5s-.3,4.3-.8,4.2c-.4,0-2.7-1.8-5-3.9-3.8-3.5-4.2-4.3-4.2-8.5s.3-4.6.7-4.6ZM951,25c0-2.2.3-4,.6-4,.9,0,8.4,6.4,8.4,7.2,0,.4-2,.8-4.5.8h-4.5v-4ZM911,71c-2.9,0-3-.2-3-4.5s.1-4.5,3-4.5,3,.2,3,4.5-.1,4.5-3,4.5ZM942.5,153.5c-1.6-1.3-2.6-2.7-2.2-3.1.4-.4,1.9.5,3.4,1.9,3.4,3.5,2.6,4.2-1.2,1.2ZM958.5,160.9c-1.1,0-2.9-.4-4-.9-1.1-.5-3.6-2.5-5.5-4.6l-3.5-3.7,3.5.7c4.2.8,12.9,8.7,9.5,8.5ZM967.8,162c-3.8,0-4.9-.5-8.1-3.8-2-2.1-3.7-4.1-3.7-4.6s2.1-.6,4.6-.5c4.1.3,5,.8,8.1,4.5l3.5,4.2h-4.4ZM981.7,161.4c-4.5,1.2-6.4.5-10.7-3.9-2.4-2.5-4.2-4.6-4-4.8s2.1-.8,4-1.4c3.5-1,3.7-1,8.2,4.2,4.4,5,4.5,5.3,2.4,5.8ZM982.7,126.3c1.8,1.8,1.6,2.8-.4,2-.7-.2-1.2-1.2-1.2-2.1,0-1.5.1-1.5,1.7,0ZM981,129.9l2.9,2c4.7,3.4,6.3,6.6,5.9,12.3l-.3,5.1-4.2-4.4c-3.9-4-4.2-4.8-4.2-9.7v-5.3ZM978.9,148.4c1.2-.8,2.1-2.2,2.1-3,0-2.1,1.1-1.5,5.2,3.1,3.9,4.5,5.3,8.2,3.7,10.2-2,2.4-4.5,1.3-8.8-3.8-4.2-5-4.3-5.1-2.2-6.6ZM972,121.9c4.6-1.6,5-.4,5,12.8v11.1s-2.7,1.1-2.7,1.1c-3.7,1.5-12.8,3.1-16.6,3-1.7,0-6-.6-9.6-1.3-12.8-2.3-22-8.8-27.1-19.1-2.8-5.6-3.3-8-4.1-19.2-.5-7-.7-20.9-.3-30.8s.3-18.8,0-19.8c-.6-1.5-2-1.8-10.1-1.8h-9.4v-25h18.9l.6-27.5,31.5-.5v28h28.9l.3,12.6c.2,6.9.1,12.8-.1,13-.2.2-6.9.4-14.8.4h-14.3v26c0,28.7.3,30.5,5.9,35.3,2.7,2.2,4.2,2.7,9,2.7s7.2-.5,9-1.1ZM960.2,109c-.4,0-2.7-1.9-5.1-4.1-4.1-3.9-4.3-4.3-4-9.2l.3-5.2,4.8,4.4c4.4,4.1,4.8,4.7,4.8,9.2s-.3,4.8-.8,4.8ZM961,115.6c0,4.2-2.1,4.5-6.4,1.1-2.3-1.9-3-3.3-3.4-7.7l-.5-5.4,5.2,4.3c4.3,3.6,5.2,4.8,5.2,7.7ZM960.2,95c-.4,0-2.7-1.6-5-3.6-4.1-3.4-4.2-3.8-4.2-9.2v-5.6l5,4.9c4.5,4.4,5,5.4,5,9.2s-.3,4.3-.8,4.3ZM960.2,82c-.4,0-2.7-1.8-5-4-4-3.8-4.2-4.3-4.2-9.7v-5.7l5,4.9c4.6,4.5,5,5.3,5,9.7s-.3,4.8-.8,4.8ZM968,72c-4.6,0-5.5-.4-9.6-4.1-2.5-2.3-4.5-4.5-4.5-5s2.6-.9,5.8-.8c5.4,0,5.9.2,8.8,3.8q5.1,6.2-.5,6.2ZM982.4,72c-5.8,0-6.2-.2-10.2-4.3-2.3-2.4-3.9-4.6-3.5-5,.4-.4,2.8-.7,5.3-.7,4.2,0,5.1.4,9.6,5l4.9,5h-6ZM990.1,70.5c-.5.3-2.8-1.5-5-4.1-3.6-4.1-4.1-5.2-4.1-9.5s.3-4.9.6-4.9,2.6,2.1,5,4.6c3.8,4,4.4,5.2,4.4,8.9s-.4,4.6-.9,4.9ZM1121.5,79.5c1.7,4.4,2.4,7.5,1.7,7.5-.4,0-2.3-1.5-4.3-3.2-2.7-2.4-3.9-4.5-4.6-8-.6-2.6-.7-4.8-.3-4.8,1.1,0,6.7,6.3,7.5,8.5ZM1125,96.5c0,2.4-.1,4.4-.2,4.4-.1,0-2.1-1.7-4.4-3.8-3.4-3-4.3-4.7-4.9-8.5-.4-2.7-.3-4.7.2-4.7s2.8,1.8,5.1,4c3.7,3.6,4.2,4.6,4.2,8.5ZM1109.7,60c1.2,0,8.8,10.9,8.1,11.6-.2.2-1.8-1.1-3.5-2.8-2.9-3-5.9-8.7-4.6-8.7ZM1030.6,151.4c-2.1-1.4-3.6-2.8-3.3-3,.6-.6,6.3,2.3,7.2,3.7,1.3,2.1-.2,1.8-3.9-.7ZM1009.9,132.1c-26.5-26.4-20.8-74.2,11-93.1,18.6-11,45.3-11.4,63.6-1,10.8,6.1,19.8,17.5,24.2,30.4,2.3,6.8,2.7,9.8,2.8,19.5v11.5c0,0-31.4.2-31.4.2-17.3,0-36.8.2-43.3.3h-11.8c0,.1.7,3.4.7,3.4,2.7,12.7,13.7,20.8,28.3,21,11,.2,19.9-4.1,23.8-11.5l1.4-2.7,13.3,3.5c7.3,1.9,13.7,3.9,14.2,4.3,1.5,1.5-3.9,9.3-10.9,15.9-14.4,13.5-34.4,18.8-55,14.5-11.1-2.3-22.9-8.6-30.6-16.3ZM1102.7,107.1c2.1,2.3,3.9,4.5,4.1,5,.4,1-3,1-7.3,0-4.3-1-7.2-2.7-8.9-5.3-2.4-3.4-2-3.8,3.4-3.8s5.3.3,8.8,4.1ZM1082.5,107.7c-7.9-2.3-8.9-4.7-1.9-4.7s5,.5,6.5,2.2c3.3,4,2.5,4.4-4.6,2.4ZM1038.2,108.6c-2.4-2.3-4-4.5-3.6-4.9.4-.4,3-.7,5.9-.7,5.4,0,5.7.2,11.9,7.8l1.9,2.2h-5.9c-5.5-.2-6.2-.5-10.2-4.4ZM1040,114.7c0,3.1-1,2.9-4.7-1-3.7-3.8-6.4-8.7-5.6-10,1-1.5,10.3,8.4,10.3,11ZM1047.9,117.5c2-1.2,14.7-1.8,16.6-.8,1.7,1,1.7,1.1-.4,2.2-1.2.6-5,1.4-8.4,1.7-4.9.5-6.5.3-7.5-.9-.9-1-.9-1.7-.2-2.2ZM1062.3,112.9c-5.5,0-6-.3-9.6-4.3-2.1-2.3-3.4-4.5-3.1-4.9.4-.4,2.7-.7,5.2-.7,4.3,0,4.9.3,8.9,5l4.3,5h-5.8ZM1067,109.4c-5.6-5-5.3-6.5,1.2-6.2,5.8.3,7.5,2,6.5,6-1,4.1-3.3,4.1-7.7.1ZM1045.5,158.9c-1.7-.5-4.6-2.5-6.5-4.5l-3.5-3.7,3.4.6c1.8.3,3.7.6,4.2.6s2.2,1.8,4,4c3.3,4.2,3.3,4.3-1.5,2.9ZM1059.4,161.9c-4.6,0-5.3-.5-8.8-4.5l-3.9-4.4h4.4c4.9,0,5,0,9.8,5.3l3.4,3.7h-4.9ZM1073.9,162.4c-5.6,1.1-6.7.7-10.4-3.9-2-2.5-3.5-4.7-3.3-5,.2-.2,2.2-.7,4.5-1.1,3.9-.6,4.2-.5,8.2,4.3l4.2,5-3.1.6ZM1085.7,160.4c-5.1,1.4-7.2.6-11-3.8-2.1-2.4-3.8-4.6-3.8-4.8s1.8-1,4.1-1.8l4.1-1.4,4.4,4.6c5,5.3,5.3,6.3,2.1,7.1ZM1091.8,158c-.7,0-3.2-1.9-5.6-4.3-2.3-2.4-4.2-4.8-4.2-5.3s1.6-1.8,3.7-2.8l3.7-1.8,4.8,4.8c2.7,2.6,4.8,5.1,4.8,5.5,0,1-5.4,3.8-7.2,3.8ZM1105.2,150.3c-1.6,1.5-3.3,2.7-3.8,2.7s-3.2-2.3-5.9-5.1l-5-5.1,3-2.4c1.6-1.3,3.5-2.4,4-2.4.6,0,3.2,2.2,5.8,4.8l4.7,4.8-2.8,2.7ZM1109,146c-.3,0-2.8-2.2-5.5-5l-4.9-5,3.2-3.2,3.2-3.2,4.8,4.4c2.6,2.4,5,4.8,5.2,5.3.4.9-4.7,6.7-5.8,6.7ZM1119.2,128.2c1.6.9,1.6,1.1-.3,4.9-1.1,2.2-2.3,3.9-2.8,3.9-.4,0-2.9-2-5.6-4.4-3.4-3.1-4.7-4.9-4.2-6,.4-1,1.3-1.5,2.4-1.2,1,.3,3.3.8,5.2,1.2s4.3,1.1,5.2,1.6ZM1115.2,113c-5.6,0-5.9-.1-9.5-4.4-2-2.4-3.7-4.7-3.7-5s2.4-.6,5.3-.6c4.9,0,5.6.3,9.5,4.3,2.3,2.4,4.2,4.6,4.2,5s-2.6.7-5.8.7ZM1125.4,108.2c-.3,2.1-.9,3.8-1.3,3.8s-2.6-1.9-4.9-4.3c-3.2-3.2-4.2-5.1-4.2-7.5,0-4.3,2.1-4.2,7,.5,3.6,3.4,3.9,4.1,3.3,7.5ZM1047.4,78.8c1.7,0,3.4,0,5.3,0l27.8-.3-.4-3.5c-.8-8.2-7.3-15.6-16.2-18.5-7.9-2.6-20.5-1.8-25.8,1.8-5.6,3.7-9,7.5-11.2,12.5-.2.5-.5,1-.7,1.5-1,2.3-1.7,3.8-1.3,4.8.9,2,6.3,1.9,22.5,1.8ZM1073.8,73.2c-.3.9-2.9,1.4-8.2,1.6-6,.2-7.7,0-7.3-1,.3-.9,2.9-1.4,8.2-1.6,6-.2,7.7,0,7.3,1ZM1065.1,60.5c.7-.6,7.9,5.4,7.9,6.5,0,1.8-1.6.9-5-2.6-1.9-1.9-3.2-3.7-2.9-4ZM1055.4,58c3.9,0,4.8.5,8,4,2,2.2,3.4,4.5,3.1,5-.3.5-2.3,1-4.5,1-3.4,0-4.4-.6-7.4-4.3-2-2.4-3.6-4.7-3.6-5s2-.7,4.4-.7ZM1044.3,59.4l3.7-1.3,4.1,5.5c2.3,3,4,5.6,3.7,5.8-.2.2-1.8,1.1-3.6,2l-3.2,1.6-4.6-5.2c-2.5-2.9-4.4-5.6-4.3-6.2.2-.5,2-1.5,4-2.2ZM1037.3,63c.8,0,7.8,7.5,9,9.7,1.8,3.2-4.3,4.4-8.3,1.6-3.2-2.2-6-5.1-6-6.1s4.3-5.2,5.3-5.2ZM1030.9,71c.9,0,4.1,3.4,4.1,4.3s-4.8.8-5.4-.2c-.7-1.1.3-4.1,1.4-4.1ZM134.7,147.2c-6.1-6.9-10.5-12.1-13.7-16.2-1.9-2.5-4.7-5.9-6.2-7.6-6.3-7.1-27.8-35-27.8-36.2,0-2,2.4-5.6,10.3-15.2,2.9-3.6,6.8-8.5,8.8-11,1.9-2.5,3.7-4.7,4-5s2.2-2.5,4.2-5,4.5-5.5,5.5-6.7c1-1.2,2.8-3.4,3.9-4.9,2-2.7,10.8-13.7,14.6-18.2,4.7-5.6,4.5-6.8-2.8-14.3l-6.7-6.9h-21.5c-11.9,0-22,.4-22.6.8-1,.7-8.8,10.3-18.2,22.2-9.8,12.4-11.6,14.3-12.5,12.5-.5-.9-.8-4.4-.7-7.8v-.4c.2-6.7.3-9.8-.7-12.4-.9-2.3-2.8-4.1-6.2-7.7l-6.8-7.2h-18.5C7.8,0,2,.3,1.2,1.2.3,2.1,0,20,0,75.5v73s13.5,14.5,13.5,14.5l17,.2c9.3.1,18.3,0,20-.3l3-.5v-24.8c.2-13.6.6-25.1,1-25.5.8-.8,5.3,4,12.4,13.4,7.1,9.3,19.8,24.4,27.3,32.6l4.4,4.7,21.5.2c11.8,0,22.1.1,22.8,0,.7,0,1.2-1.2,1.2-2.5,0-2.2-2.4-5.7-9.3-13.4ZM89.6,75.4c-1.5,2-3,3.6-3.4,3.6-.4,0-1.8-1-3.2-2.2-1.4-1.2-3.8-3.2-5.3-4.4l-2.8-2.2,2.7-3.5q2.7-3.6,5.4-1.8c1.5,1,4.2,3,6.1,4.4l3.3,2.7-2.7,3.6ZM83.9,82.5c-1.5,1.5-2,1.2-6.4-4-2.6-3.1-4.5-5.9-4.2-6.2.3-.3,2.7,1.1,5.3,3.3,2.6,2.1,5.2,4.2,5.8,4.6.7.5.6,1.2-.5,2.3ZM96.2,66.8l-2.8,3.3-5.7-4.2c-3.1-2.3-5.7-4.5-5.7-4.8,0-1.1,4.9-6.1,6-6.1s11,7.1,11,8c0,.3-1.3,2-2.8,3.9ZM103.4,57.9c-1.4,1.7-2.9,3.1-3.3,3-.4,0-3-1.9-5.9-4.1-5.6-4.3-5.7-5.3-1.4-9.2,2-1.8,2.1-1.8,6.4,1.2,6.9,4.8,7.2,5.5,4.2,9.1ZM106.9,52c-.2,0-2.8-1.8-5.7-4l-5.3-4,2.6-3.4c1.4-1.9,2.8-3.5,3.1-3.5,1.2,0,11.2,7.6,11.3,8.6,0,1-5.1,6.5-6,6.4ZM114.7,43c-.6,0-3.2-1.6-5.7-3.6-2.5-2-4.7-4-4.9-4.6-.4-1.2,3.8-5.8,5.3-5.8s10.6,6.4,10.6,7.6-3.9,6.4-5.3,6.4ZM121.7,34c-.6,0-3.3-1.6-5.9-3.6s-4.7-3.9-4.7-4.2c0-.4,1.2-2.1,2.8-3.8l2.7-3.2,5.2,4c2.9,2.2,5.2,4.3,5.2,4.8,0,1.4-4.1,6.1-5.3,6.1ZM126.4,8.2c1.3-1.3,2-1.4,3.4-.5.9.6,1.7,1.7,1.7,2.5,0,1.7-5.1,2.4-6,.9-.4-.6,0-1.9.9-2.8ZM136,15.9c0,1.4-6.2,9.1-7.3,9.1-.6,0-3.3-1.6-5.9-3.5-5.1-3.8-5.5-4.6-3.3-6.5,1.6-1.3,16.5-.5,16.5.9ZM40.9,8.2c.5.2,2.7,2,5,4.1,3.7,3.3,4.1,4.2,4.1,8.2s-.3,4.5-.8,4.5c-.4,0-2.7-1.8-5-4-3.8-3.6-4.2-4.5-4.2-8.6s.4-4.4.9-4.2ZM40.7,21c.4,0,2.6,1.9,5,4.2,3.9,3.8,4.3,4.7,4.3,9s-.4,4.8-.8,4.8-2.7-1.9-5-4.3c-3.7-3.8-4.2-4.8-4.2-9s.3-4.7.7-4.7ZM40.7,35c.4,0,2.8,1.8,5.2,3.9,4.4,3.9,4.5,4,3,6.7-2,3.6-4,3.9-6.8,1-1.6-1.7-2.2-3.6-2.2-7s.3-4.7.8-4.7ZM43,49.5c1,1.2,1,2.1.1,4-1.7,3.7-3.2,3-3.2-1.5s.9-5,3-2.5ZM12.8,153.6c-.3,1.6-.5,1.6-2.3-.2-1.8-1.8-1.8-2-.2-2.3,1-.2,2-.1,2.3.2.3.3.4,1.3.2,2.3ZM15.7,159.3c-.4-.4-.7-2.6-.7-5v-4.3h25.6l4.2,4.3c2.3,2.4,4.2,4.6,4.2,5,0,.9-32.4.9-33.3,0ZM49.8,150.3l-.3,5.8-4.8-4.8c-4.3-4.4-4.8-5.3-4.8-9.5s.3-4.7.8-4.7c.4,0,2.7,1.7,5.1,3.8,4.2,3.7,4.3,3.8,4,9.5ZM40,128.2c0-2.9.4-5.2.8-5.2s2.7,2,5.1,4.3c4,4.1,4.2,4.7,4,9.1l-.3,4.8-4.8-3.9c-4.6-3.7-4.7-4-4.8-9.1ZM49.2,127c-.4,0-2.7-1.7-5-3.8-4-3.5-4.3-4-4.2-9,0-2.9.3-5.2.6-5.2s2.6,1.9,5,4.2c4.1,3.8,4.4,4.6,4.4,9s-.3,4.8-.8,4.8ZM49.2,113c-.4,0-2.7-1.7-5-3.8-3.9-3.4-4.3-4.1-4.2-8.5,0-2.6.3-4.8.7-4.8s2.6,1.6,5,3.6c4.1,3.3,4.4,3.9,4.4,8.5s-.3,4.9-.8,4.9ZM71.4,124.8c-9.8-12.2-21.1-26.4-25.1-31.5-4.1-5.1-7.8-9.2-8.3-9.2s-1,13.5-1.2,31.2l-.3,31.2-15.6.3c-8.6.2-15.9,0-16.2-.4s-.7-32.6-.7-71.5V4h33v30c0,18.2.4,30,1,30,.9,0,7.6-8,24.2-29,4.5-5.8,10.6-13.4,13.4-17,2.8-3.6,6.4-8.2,7.9-10.2l2.8-3.8h18.4c10.5,0,18.4.4,18.4.9s-5.5,7.6-12.3,15.8c-14.5,17.5-36.2,44.5-39.5,49.1l-2.3,3.3,2.5,3.3c1.4,1.8,7,8.7,12.4,15.3,21.8,26.6,42.5,52.5,43,53.9.5,1.2-2.4,1.4-18.5,1.4h-19l-17.8-22.2ZM119.6,160h-19.4l-3.6-4.2c-2-2.3-3.6-4.5-3.6-5s8.9-.8,19.8-.8h19.8s3.2,3.9,3.2,3.9c1.8,2.1,3.2,4.4,3.2,5s-6.3,1.1-19.4,1.1ZM411.3,140c-1.7-1.9-24.7-30.6-30.1-37.5-.4-.5-3.1-4-6-7.6-2.9-3.6-5.2-7.3-5.2-8.1,0-1.5,13.3-19.5,25.4-34.1,4.2-5,8.3-10.2,9.3-11.5,1-1.3,3.8-4.9,6.3-8,9.1-11.3,12.9-16.9,12.9-18.7,0-1-2.7-4.7-6-8.2l-5.9-6.2h-44l-2.8,3.6c-1.5,2-6,7.5-9.8,12.2-3.9,4.7-8.7,10.9-10.7,13.6-5,6.8-5.7,7.5-6.8,7.5s-1-4.7-1-11.2v-11.2s-7-7.2-7-7.2l-7-7.2h-17.6c-10.2,0-18.4.4-19.5,1-1.9,1-1.9,2.9-1.9,74.1v73.1l6.6,7.3c4.6,5.1,7.4,7.4,9.2,7.7,5.2.6,34.9.1,36-.6.8-.5,1.2-7.8,1.2-25.1s.4-24.6,1-25c.5-.3,1.6.2,2.4,1.2.8,1,3.9,4.7,6.8,8.3s7.6,9.4,10.3,13c4.2,5.5,9,11.2,22.3,26l2.3,2.5h21.7c12,0,22.3,0,23-.3s1.2-1.1,1.2-1.9c0-1.3-8.8-12.5-16.7-21.3ZM373.1,74.4l-2.8,2.7-4.4-3.6c-2.4-2-4.8-4-5.2-4.5-.9-.9,3.1-7,4.7-7s10.7,7.1,10.7,8.4-1.3,2.5-2.9,4ZM367.2,82.3c-1.7,1.5-2.1,1.3-6-3.6-6.7-8.3-5.3-10.2,3-4.2,5.1,3.8,5.7,5.3,3,7.8ZM377.3,68c-.4,0-2.9-1.7-5.5-3.8-2.6-2-4.7-4.2-4.8-4.8,0-.6,1.3-2.3,2.8-3.8l2.9-2.8,5.1,3.8c2.8,2.1,5.1,4.3,5.1,4.8,0,1.3-4.6,6.5-5.7,6.5ZM387.1,56.4l-2.8,2.7-4.9-3.7c-2.7-2-5-3.8-5.2-3.9-.6-.5,4.3-7.4,5.2-7.5,1.4,0,10.6,7.4,10.6,8.5,0,.6-1.2,2.3-2.8,3.8ZM391.2,49.9c-.4,0-2.8-1.7-5.5-3.6-2.6-1.9-4.7-3.8-4.7-4.2,0-.4,1.3-2.2,2.8-4l2.8-3.4,5.2,3.8c2.8,2.1,5.2,4.3,5.2,4.9,0,1.2-4.8,6.6-5.8,6.5ZM402.3,37.8c-2.8,3.8-4.3,3.8-9.6-.3-5-3.8-5.1-4.9-.8-8.9,2-1.9,2.1-1.8,6.1.9,6.2,4.3,6.7,5.2,4.3,8.3ZM409.3,28.8c-2.8,3.7-4.1,3.7-9,0-2.3-1.8-4.2-3.7-4.2-4.2s1-2.3,2.3-4l2.4-3,4.1,2.8c6.3,4.4,6.8,5.2,4.4,8.4ZM418.5,15.8c0,1.4-4.6,8.1-5.5,8.1-.3,0-2.7-1.6-5.3-3.5-2.6-1.9-4.6-4.1-4.4-4.7.6-1.8,15.2-1.6,15.2.2ZM409,8.5c1.7-1.5,2.4-1.7,4.6-.7,1.4.6,2.4,1.7,2.2,2.4-.5,1.5-5.7,2.1-7.5.9-1-.6-.8-1.3.8-2.7ZM324.8,8c.4,0,2.4,1.7,4.4,3.8,2.8,2.9,3.7,4.7,3.9,8,.2,2.3,0,4.4-.2,4.7-.2.3-2.4-1.3-4.7-3.5-3.8-3.5-4.2-4.5-4.2-8.4s.4-4.5.8-4.5ZM324.8,21c.4,0,2.7,2,5.1,4.4,4.1,4.1,4.3,4.6,3.6,8.5-.4,2.2-1,4.1-1.4,4.1s-2.4-1.7-4.4-3.8c-3.2-3.3-3.7-4.4-3.7-8.5s.4-4.7.8-4.7ZM324,33.7l4.2,3.5c6,4.9,6.5,6,4.2,9.1-2.4,3.2-3.5,3.3-6.2.4-1.7-1.8-2.2-3.5-2.2-7.6v-5.3ZM327.4,50.2c.7,1.1.5,2-.6,3.2-2.3,2.3-2.8,2-2.8-2s1.4-4.2,3.4-1.2ZM296.6,152.9c-.4.6-1.1,1.1-1.5,1.1-1.1,0-2.1-2.8-1.2-3.4,1.2-.8,3.5,1.1,2.7,2.3ZM299.7,159.3c-.4-.4-.7-2.6-.7-5v-4.3h25.6l4.2,4.3c2.3,2.4,4.2,4.6,4.2,5,0,.9-32.4.9-33.3,0ZM332.2,155c-.4,0-2.5-1.7-4.5-3.8-3.3-3.4-3.7-4.4-3.7-9s.2-5.2.6-5.2,2.3,1.4,4.5,3.2c3.8,3,3.9,3.4,3.9,9s-.4,5.8-.8,5.8ZM332.2,140c-.4,0-2.4-1.6-4.5-3.5-3.4-3.1-3.8-4-3.8-8.5s.4-5,.8-5,2.5,1.7,4.5,3.8c3.2,3.3,3.7,4.4,3.7,8.5s-.3,4.7-.8,4.7ZM324.7,110c.4,0,2.5,1.6,4.6,3.4,3.6,3.2,3.8,3.7,3.5,8.4l-.3,5-4.2-3.5c-3.9-3.3-4.2-3.9-4.2-8.5s.3-4.9.8-4.9ZM324.2,101l.3-5.2,4.2,3.4c3.9,3.2,4.2,3.7,4.2,8.6,0,2.9-.3,5.2-.7,5.2-.4,0-2.5-1.6-4.6-3.4-3.6-3.2-3.8-3.6-3.5-8.6ZM369.3,143.7c-3.3-3.8-2.8-3.2-27-34.2-18.5-23.8-20.3-25.9-21.3-24.9-.3.3-.5,14.3-.5,31.2v30.7l-16.2.3-16.2.3V4l16.2.3,16.2.3,1,60,10.2-12.5c5.6-6.9,16.6-20.5,24.2-30.2l14-17.8h18.6c11.4,0,18.5.4,18.3,1-.2.5-7.1,9.2-15.5,19.2-32.5,39.3-39.2,48.2-38,49.9.6.9,4.1,5.3,7.7,9.7,3.6,4.4,9.2,11.5,12.5,15.7,3.3,4.2,9.5,11.9,13.7,17.1,4.2,5.2,9,11.1,10.5,13.1,1.5,2,4.9,6.4,7.5,9.7s4.8,6.3,4.8,6.8-8.5.8-18.9.8h-18.9l-2.9-3.3ZM402.6,160h-19.4l-3.6-4.3c-2-2.4-3.6-4.7-3.6-5s8.7-.7,19.4-.7h19.4l3.6,4.4c2,2.4,3.6,4.7,3.6,5s-8.7.6-19.4.6ZM227.6,86.1c-1.1-9.9-4.2-16.6-10.1-22-7.4-6.8-16-9-26.7-6.8-5.3,1.1-14.9,9.3-17.7,15.2-6.2,13.1-3.8,31.9,5.2,41.3,7.9,8.3,21,11,31.7,6.5,4.4-1.8,11.6-8.7,14-13.4,2.7-5.3,4.3-14.5,3.6-20.9ZM202.2,60.5c1-1,7.6,1.7,11.1,4.6,5.6,4.6,5.1,5.4-2.5,4.2-2.5-.4-9.7-7.7-8.6-8.8ZM188.7,61.7c.5-.3,2.8-.9,5-1.2,3.8-.6,4.3-.4,7.9,3.6,2.1,2.3,4,4.5,4.1,4.9.2.6-6.2,3-7.9,3s-2.6-2.2-5.2-4.9c-2.7-2.7-4.4-5.1-3.9-5.5ZM183.1,65.1l3.1-2.3,4.9,4.8c2.7,2.7,4.9,5.2,4.9,5.7,0,1.1-4.2,4.6-5.5,4.7-.6,0-3.2-2.1-5.8-4.8-2.6-2.6-4.7-5-4.7-5.3s1.4-1.6,3.1-2.8ZM173.9,80.6c.5-.3,3,1.4,5.6,3.7,4.3,3.9,4.7,4.6,4,7.5-.9,4.2-2.3,4.1-6.9-.6-2.7-2.8-3.7-4.7-3.7-6.9s.4-3.4.9-3.7ZM173.7,91c.5,0,2.5,1.7,4.5,3.8,2.5,2.6,3.8,5,4.2,8,.3,2.3.3,4.2-.2,4.2s-2.4-1.7-4.5-3.8c-2.6-2.6-3.9-5-4.3-8-.4-2.4-.3-4.2.2-4.2ZM181.9,112.7c-1.8-1.4-5.4-6.7-4.5-6.7s1.8,1,3.2,2.2c4.4,3.8,5.6,7.8,1.3,4.5ZM184.7,86c-.4,0-2.9-2-5.4-4.3-4.5-4.3-4.6-4.5-3.3-7.5.7-1.7,1.8-3.1,2.4-3.1.6,0,3.3,2,6,4.3l4.8,4.2-1.8,3.2c-1,1.8-2.2,3.2-2.6,3.2ZM222.1,101c-2.4,5.9-7.3,12.1-11.7,14.6-3.3,1.9-5.5,2.4-11.1,2.4s-7.4-.5-8.1-1.3c-2.3-2.8-4.1-10.2-4.1-16.8,0-15.9,11.2-27.3,25.5-26.1,6.6.6,9.2,2.4,10.2,7,1.2,6.1.9,16.5-.6,20.3ZM227.6,86.1c-1.1-9.9-4.2-16.6-10.1-22-7.4-6.8-16-9-26.7-6.8-5.3,1.1-14.9,9.3-17.7,15.2-6.2,13.1-3.8,31.9,5.2,41.3,7.9,8.3,21,11,31.7,6.5,4.4-1.8,11.6-8.7,14-13.4,2.7-5.3,4.3-14.5,3.6-20.9ZM202.2,60.5c1-1,7.6,1.7,11.1,4.6,5.6,4.6,5.1,5.4-2.5,4.2-2.5-.4-9.7-7.7-8.6-8.8ZM188.7,61.7c.5-.3,2.8-.9,5-1.2,3.8-.6,4.3-.4,7.9,3.6,2.1,2.3,4,4.5,4.1,4.9.2.6-6.2,3-7.9,3s-2.6-2.2-5.2-4.9c-2.7-2.7-4.4-5.1-3.9-5.5ZM183.1,65.1l3.1-2.3,4.9,4.8c2.7,2.7,4.9,5.2,4.9,5.7,0,1.1-4.2,4.6-5.5,4.7-.6,0-3.2-2.1-5.8-4.8-2.6-2.6-4.7-5-4.7-5.3s1.4-1.6,3.1-2.8ZM173.9,80.6c.5-.3,3,1.4,5.6,3.7,4.3,3.9,4.7,4.6,4,7.5-.9,4.2-2.3,4.1-6.9-.6-2.7-2.8-3.7-4.7-3.7-6.9s.4-3.4.9-3.7ZM173.7,91c.5,0,2.5,1.7,4.5,3.8,2.5,2.6,3.8,5,4.2,8,.3,2.3.3,4.2-.2,4.2s-2.4-1.7-4.5-3.8c-2.6-2.6-3.9-5-4.3-8-.4-2.4-.3-4.2.2-4.2ZM181.9,112.7c-1.8-1.4-5.4-6.7-4.5-6.7s1.8,1,3.2,2.2c4.4,3.8,5.6,7.8,1.3,4.5ZM184.7,86c-.4,0-2.9-2-5.4-4.3-4.5-4.3-4.6-4.5-3.3-7.5.7-1.7,1.8-3.1,2.4-3.1.6,0,3.3,2,6,4.3l4.8,4.2-1.8,3.2c-1,1.8-2.2,3.2-2.6,3.2ZM222.1,101c-2.4,5.9-7.3,12.1-11.7,14.6-3.3,1.9-5.5,2.4-11.1,2.4s-7.4-.5-8.1-1.3c-2.3-2.8-4.1-10.2-4.1-16.8,0-15.9,11.2-27.3,25.5-26.1,6.6.6,9.2,2.4,10.2,7,1.2,6.1.9,16.5-.6,20.3ZM275.6,88c-3.9-15.6-7.3-21.4-19.8-33.7-16.1-15.9-25.1-21.9-39.1-25.9-15.4-4.4-36.3-2-50.7,5.7-11.1,6-21.6,17.3-27,29.2-3.9,8.6-4.5,12.2-4.6,25.2,0,14.8,1,19.6,6.3,30.5,3.1,6.3,5.8,9.7,17.7,21.5,14.1,14.1,15.5,15.1,31.1,22.2,1.7.8,6.4,2,10.5,2.8,13.5,2.5,32.1-.3,43.9-6.6,6.8-3.6,18.2-14.6,23.5-22.5,8.2-12.3,11.7-33.7,8.1-48.4ZM271.8,90.5c-.2.2-2.2-1.3-4.5-3.4-3.4-3-4.4-4.5-4.9-8.2l-.7-4.5,4.2,4c2.5,2.4,4.6,5.5,5.2,7.9.6,2.1.9,4,.7,4.2ZM264.7,70.8c3,5.1,2.7,6-.9,2.9-2.6-2.2-5.8-7.6-5.8-9.8s3.9,2.1,6.7,6.9ZM144.8,118.5c-6.8-12.8-8.8-31-4.8-45.5,5.1-18.8,20.1-34,38.9-39.8,22.7-7,48.3-1.1,64,14.5,18,18,21.9,44.8,10.3,70.1-5.4,11.8-22.8,25.5-37.3,29.3-10.1,2.6-25.5,2.3-35.8-.7-4.6-1.3-10.2-3.4-12.5-4.6-5.5-2.8-19.5-17-22.9-23.4ZM184.9,156.3c-.2.2-2.3-.8-4.7-2.2-4.8-3-6.6-5.7-3-4.6,2.3.7,8.5,6.1,7.7,6.8ZM198.3,161c-1,0-3.2-.6-4.8-1.4-1.7-.7-4.3-2.7-5.9-4.5l-2.9-3.1h2.4c4.5,0,6.7,1.2,9.9,5.1,2.6,3.2,2.8,3.9,1.4,3.9ZM211.7,162.8c-.7,0-2.6-.3-4.3-.6-2-.3-4.6-1.9-7.5-4.8l-4.4-4.5h4.5c4,0,5,.5,8.7,4.3,4.4,4.4,5.1,5.8,3,5.6ZM220.2,162c-4.4,0-5.1-.4-8.5-4.4-2.1-2.4-3.8-4.6-3.8-4.8s1.7-.7,3.7-1.1c3.4-.6,4.1-.2,8.5,4.1,2.6,2.6,4.8,5,4.8,5.5s-2.1.8-4.8.8ZM232.5,159.4c-2.1.9-4.1,1.6-4.5,1.6s-2.9-2.3-5.5-5.2l-4.8-5.2,2.9-1.2c4.6-2,5.7-1.6,10.8,3.6l4.9,4.9-3.8,1.6ZM243.9,154.3c-5.3,3.3-6.3,3.1-11.1-2.6l-4.5-5.3,3-1.7c1.6-.9,3.5-1.7,4.2-1.7s3.4,2.2,6,4.9l4.8,4.9-2.4,1.5ZM252.3,148.2c-1.5,1.6-3.5,2.8-4.4,2.8s-3.5-2-5.8-4.5c-2.3-2.5-4.1-4.9-4.1-5.3,0-.9,5.4-5.2,6.5-5.2s2.8,2.1,5.6,4.7l5,4.7-2.7,2.8ZM259.4,140.8c-1.4,1.8-2.9,3.2-3.3,3.2s-2.9-2.2-5.5-4.9l-4.8-4.9,2.3-3.1c1.3-1.7,2.7-3.1,3.2-3.1s3.1,2.1,5.8,4.8l4.9,4.8-2.6,3.2ZM265.8,131.4c-.9,2-2.1,3.6-2.5,3.6s-3-2.2-5.6-4.9l-4.8-4.9,1.6-3.1c.9-1.7,1.9-3.1,2.3-3.1.4,0,3,2,5.7,4.4l5,4.4-1.7,3.6ZM269.8,121.8c-.7,1.8-1.7,3.2-2.3,3.2s-2.9-2-5.3-4.4c-4-4.1-4.2-4.5-3.1-7.5.6-1.7,1.6-3.1,2.3-3.1s3.1,1.9,5.4,4.3c4,4.1,4.1,4.4,3,7.5ZM272.6,111.4c-.4,2-1,3.6-1.4,3.6-.4,0-2.8-1.9-5.3-4.2-4.3-4-4.6-4.5-4.1-8.5.2-2.3.8-4.2,1.1-4.2s2.9,2.2,5.5,4.9c4.5,4.6,4.8,5.2,4.2,8.5ZM272.8,99.7l-.3,4.1-4.8-4.2c-4.3-3.7-4.8-4.6-4.8-8.4,0-2.3.2-4.2.4-4.2s2.5,1.9,5.1,4.3c4.3,4,4.7,4.6,4.4,8.4ZM210,120.4c4.4-1.8,11.6-8.7,14-13.4,2.7-5.3,4.3-14.5,3.6-20.9-1.1-9.9-4.2-16.6-10.1-22-7.4-6.8-16-9-26.7-6.8-5.3,1.1-14.9,9.3-17.7,15.2-6.2,13.1-3.8,31.9,5.2,41.3,7.9,8.3,21,11,31.7,6.5ZM202.2,60.5c1-1,7.6,1.7,11.1,4.6,5.6,4.6,5.1,5.4-2.5,4.2-2.5-.4-9.7-7.7-8.6-8.8ZM188.7,61.7c.5-.3,2.8-.9,5-1.2,3.8-.6,4.3-.4,7.9,3.6,2.1,2.3,4,4.5,4.1,4.9.2.6-6.2,3-7.9,3s-2.6-2.2-5.2-4.9c-2.7-2.7-4.4-5.1-3.9-5.5ZM183.1,65.1l3.1-2.3,4.9,4.8c2.7,2.7,4.9,5.2,4.9,5.7,0,1.1-4.2,4.6-5.5,4.7-.6,0-3.2-2.1-5.8-4.8-2.6-2.6-4.7-5-4.7-5.3s1.4-1.6,3.1-2.8ZM173.9,80.6c.5-.3,3,1.4,5.6,3.7,4.3,3.9,4.7,4.6,4,7.5-.9,4.2-2.3,4.1-6.9-.6-2.7-2.8-3.7-4.7-3.7-6.9s.4-3.4.9-3.7ZM173.7,91c.5,0,2.5,1.7,4.5,3.8,2.5,2.6,3.8,5,4.2,8,.3,2.3.3,4.2-.2,4.2s-2.4-1.7-4.5-3.8c-2.6-2.6-3.9-5-4.3-8-.4-2.4-.3-4.2.2-4.2ZM181.9,112.7c-1.8-1.4-5.4-6.7-4.5-6.7s1.8,1,3.2,2.2c4.4,3.8,5.6,7.8,1.3,4.5ZM184.7,86c-.4,0-2.9-2-5.4-4.3-4.5-4.3-4.6-4.5-3.3-7.5.7-1.7,1.8-3.1,2.4-3.1.6,0,3.3,2,6,4.3l4.8,4.2-1.8,3.2c-1,1.8-2.2,3.2-2.6,3.2ZM191.1,116.7c-2.3-2.8-4.1-10.2-4.1-16.8,0-15.9,11.2-27.3,25.5-26.1,6.6.6,9.2,2.4,10.2,7,1.2,6.1.9,16.5-.6,20.3-2.4,5.9-7.3,12.1-11.7,14.6-3.3,1.9-5.5,2.4-11.1,2.4s-7.4-.5-8.1-1.3ZM506.2,72.8c-5.3-10.8-13.7-15.9-26.1-15.9-11.1,0-20.6,6.3-25.5,17.1-3.1,6.6-3,22.2.2,30.2,2.3,5.8,8.5,12.9,13.4,15.5,7.4,3.9,18,3.9,25.6.2,5.3-2.7,10.7-8.5,13.6-14.6,1.8-3.8,2.1-6.5,2.1-15.1s-.2-10.9-3.3-17.2ZM484,60.2c3-1,15,6.1,15,8.9s-1.8.9-3.9.9c-3.4,0-4.4-.6-8-4.8-2.2-2.6-3.6-4.9-3.1-5.1ZM471.9,61.7c.4-.4,2.4-1,4.3-1.4,3.2-.5,3.9-.1,8.1,4.3,4.8,5.1,4.8,5.6-1,6.8-2.9.6-3.6.2-7.7-4.1-2.5-2.7-4.1-5.2-3.7-5.6ZM464.6,65.9c1.5-1.6,3.1-2.9,3.6-2.9s3.1,2.4,5.7,5.2l4.9,5.2-2.1,2.2c-1.2,1.2-2.6,2.2-3.3,2.2s-3.5-2.1-6.4-4.6l-5.2-4.6,2.7-2.9ZM455.4,84.8c.3-1.2.6-2.8.6-3.5,0-2.1,1.3-1.5,6.2,3,4.3,3.9,4.6,4.5,4.1,8-.3,2-.8,3.7-1.2,3.7-.3,0-2.8-2-5.5-4.5-3.9-3.6-4.7-5-4.3-6.7ZM456.1,96c-.5-2.5-.8-4.7-.5-5,.3-.3,2.5,1.6,5,4,3.9,3.9,4.5,5,4.2,8.1l-.3,3.6-3.7-3.2c-2.7-2.3-4-4.4-4.7-7.6ZM463.8,112.2c-.8-1-2.1-2.8-2.7-4.1-1.1-2.2-1.1-2.2.8-1.2,2.1,1.1,5.1,4.9,5.1,6.3s-1.6.8-3.2-1ZM467,86c-.3,0-2.8-2.2-5.4-4.9-4.8-4.9-4.8-4.9-3.1-7.5.9-1.4,2.1-2.6,2.6-2.6s3.1,2.1,5.8,4.6l4.9,4.6-2.1,2.9c-1.2,1.6-2.4,2.9-2.8,2.9ZM505.7,93.4c-1.1,12.5-6.9,20.8-16.9,24-5.5,1.8-7.7,1.9-12.5.5-2.9-.8-3.4-1.7-5.5-7.9-2.1-6.5-2.2-7.6-1-14.1,1.7-9.8,6.5-16.7,14-20,4.7-2,15-2.6,18.1-.9,2.7,1.4,4.4,10,3.7,18.4ZM506.2,72.8c-5.3-10.8-13.7-15.9-26.1-15.9-11.1,0-20.6,6.3-25.5,17.1-3.1,6.6-3,22.2.2,30.2,2.3,5.8,8.5,12.9,13.4,15.5,7.4,3.9,18,3.9,25.6.2,5.3-2.7,10.7-8.5,13.6-14.6,1.8-3.8,2.1-6.5,2.1-15.1s-.2-10.9-3.3-17.2ZM484,60.2c3-1,15,6.1,15,8.9s-1.8.9-3.9.9c-3.4,0-4.4-.6-8-4.8-2.2-2.6-3.6-4.9-3.1-5.1ZM471.9,61.7c.4-.4,2.4-1,4.3-1.4,3.2-.5,3.9-.1,8.1,4.3,4.8,5.1,4.8,5.6-1,6.8-2.9.6-3.6.2-7.7-4.1-2.5-2.7-4.1-5.2-3.7-5.6ZM464.6,65.9c1.5-1.6,3.1-2.9,3.6-2.9s3.1,2.4,5.7,5.2l4.9,5.2-2.1,2.2c-1.2,1.2-2.6,2.2-3.3,2.2s-3.5-2.1-6.4-4.6l-5.2-4.6,2.7-2.9ZM455.4,84.8c.3-1.2.6-2.8.6-3.5,0-2.1,1.3-1.5,6.2,3,4.3,3.9,4.6,4.5,4.1,8-.3,2-.8,3.7-1.2,3.7-.3,0-2.8-2-5.5-4.5-3.9-3.6-4.7-5-4.3-6.7ZM456.1,96c-.5-2.5-.8-4.7-.5-5,.3-.3,2.5,1.6,5,4,3.9,3.9,4.5,5,4.2,8.1l-.3,3.6-3.7-3.2c-2.7-2.3-4-4.4-4.7-7.6ZM463.8,112.2c-.8-1-2.1-2.8-2.7-4.1-1.1-2.2-1.1-2.2.8-1.2,2.1,1.1,5.1,4.9,5.1,6.3s-1.6.8-3.2-1ZM467,86c-.3,0-2.8-2.2-5.4-4.9-4.8-4.9-4.8-4.9-3.1-7.5.9-1.4,2.1-2.6,2.6-2.6s3.1,2.1,5.8,4.6l4.9,4.6-2.1,2.9c-1.2,1.6-2.4,2.9-2.8,2.9ZM505.7,93.4c-1.1,12.5-6.9,20.8-16.9,24-5.5,1.8-7.7,1.9-12.5.5-2.9-.8-3.4-1.7-5.5-7.9-2.1-6.5-2.2-7.6-1-14.1,1.7-9.8,6.5-16.7,14-20,4.7-2,15-2.6,18.1-.9,2.7,1.4,4.4,10,3.7,18.4ZM552.9,74.1c-3.3-7.1-11.1-17.4-16.1-21.4-1.8-1.4-6-5.1-9.3-8.2-7.3-6.8-16.1-12-26.3-15.2-7.1-2.3-8.8-2.4-21.7-2-13.6.5-17.2,1.2-27.5,5.3-14.2,5.6-28.6,22.3-33.5,38.9-2.4,8.1-2.5,27.7-.2,35.8,3.2,11.2,8.5,19.3,20.2,31.1,6.1,6.1,13.1,12.8,15.6,14.8,5.3,4.3,19,10.6,25.8,11.7,2.5.4,9.7.8,15.8.9,17.4.2,28.6-4.1,42.6-16.2,20.3-17.6,26.5-49.8,14.6-75.5ZM554.1,93c-.3,0-2.5-1.7-4.7-3.8-3.4-3.1-4.2-4.5-4.6-8.5,0-.4,0-.8-.1-1.1-.2-1.7-.3-2.6,0-2.8.4-.2,1.7.9,4.6,3.4.4.4.9.8,1.5,1.3,2.1,1.8,5,11.5,3.4,11.5ZM555,101.4c0,2.5-.4,4.6-.8,4.6s-2.7-1.9-5-4.3c-3.6-3.7-4.2-4.9-4.2-8.5s.3-4.2.8-4.2c.4,0,2.7,1.8,5,3.9,3.8,3.5,4.2,4.3,4.2,8.5ZM543.1,66.6c2.9,2.7,7.5,10.2,6.7,11-.2.2-1.8-1-3.5-2.5-2.7-2.4-6.3-8.6-6.3-10.8s1.4.8,3.1,2.4ZM436.9,131.2c-10.6-11.2-15.5-22.6-16.5-38.1-2-29.7,17.3-55,46.5-61.1,8.3-1.7,22.3-1.8,29.2-.1,3,.7,9.3,3.1,14,5.3,15.4,7.3,26.4,21.4,30.6,39.3,2.9,12.5.4,30.9-5.9,43.1-2.6,5.1-14.2,16.7-20.1,20.3-10.7,6.5-17.7,8.3-32.1,8.8-11.4.3-13.9,0-20.7-2-10.1-3.1-17.8-7.8-25-15.5ZM463.9,154.4c-.3.3-2.4-.6-4.5-2h-.2c-3-2.2-4.2-2.9-4.1-3.2,0-.2.6-.2,1.5-.2h0c2.3,0,8.1,4.4,7.1,5.4ZM478.9,160.3c-.2.2-1.8,0-3.5-.6-3.3-1-11.3-7.2-10.4-8.1,1.3-1.3,7.8,1.6,10.9,4.9,1.9,1.9,3.2,3.7,2.9,3.8ZM488.9,162c-4,0-5-.5-8.9-4.5l-4.4-4.5h4.5c4,0,5,.5,8.9,4.5l4.4,4.5h-4.5ZM500.3,162.2c-3.9.5-4.4.2-8.8-4.2-5.1-5.2-4.8-6,1.8-6s4.2,1,7.6,4.5c2.4,2.5,4.2,4.7,4,4.9-.2.2-2.3.6-4.6.9ZM513.8,159.7c-4.1,2.3-6.4,1.6-10.7-3.4-2.2-2.6-4.1-5-4.1-5.3s1.7-1.1,3.7-1.8l3.8-1.2,4.8,5.2c4.8,5.2,4.8,5.2,2.5,6.5ZM518.6,158c0,0-2.3-2.2-5-4.9-2.7-2.7-4.6-5.3-4.2-5.9.3-.5,2-1.5,3.7-2.2,3-1.2,3.2-1.1,8,3.6,2.7,2.7,4.9,5.2,4.9,5.6s-6.3,3.8-7.4,3.8ZM531.8,150.2c-1.8,1.5-3.6,2.8-4,2.8s-2.8-2.4-5.3-5.2l-4.6-5.2,3.1-2.8,3.1-2.8,5.4,5.3,5.4,5.3-3.3,2.8ZM539.5,143c-1.6,1.7-3.2,3-3.5,3s-2.8-2.2-5.5-5l-4.9-5,3.2-3.2,3.2-3.2,5.2,5.2,5.2,5.2-2.9,3ZM546.6,133.8c-.9,1.7-2,3.3-2.4,3.6-.5.3-3.3-1.6-6.2-4.3l-5.3-4.8,2.3-3.7c1.2-2,2.6-3.7,3-3.7s2.9,2.2,5.5,4.9l4.8,4.9-1.6,3.1ZM551.1,124.1c-.6,2.1-1.5,3.8-1.9,3.8-.4,0-2.8-2-5.5-4.3-2.6-2.3-4.8-4.8-4.8-5.4,0-2.1,2.3-6.2,3.4-6.2.6,0,3.1,1.9,5.5,4.1,4.3,4.1,4.3,4.2,3.2,8ZM554.5,113.9c-.4,2.2-1,4.1-1.4,4.1-.4,0-2.8-1.9-5.4-4.2-4.7-4.2-5.3-5.8-4.1-10.5.9-3.3,2.4-2.8,7.3,2.2,4.1,4.1,4.3,4.6,3.6,8.5ZM468.2,119.6c7.4,3.9,18,3.9,25.6.2,5.3-2.7,10.7-8.5,13.6-14.6,1.8-3.8,2.1-6.5,2.1-15.1s-.2-10.9-3.3-17.2c-5.3-10.8-13.7-15.9-26.1-15.9-11.1,0-20.6,6.3-25.5,17.1-3.1,6.6-3,22.2.2,30.2,2.3,5.8,8.5,12.9,13.4,15.5ZM502,75c2.7,1.4,4.4,10,3.7,18.4-1.1,12.5-6.9,20.8-16.9,24-5.5,1.8-7.7,1.9-12.5.5-2.9-.8-3.4-1.7-5.5-7.9-2.1-6.5-2.2-7.6-1-14.1,1.7-9.8,6.5-16.7,14-20,4.7-2,15-2.6,18.1-.9ZM484,60.2c3-1,15,6.1,15,8.9s-1.8.9-3.9.9c-3.4,0-4.4-.6-8-4.8-2.2-2.6-3.6-4.9-3.1-5.1ZM471.9,61.7c.4-.4,2.4-1,4.3-1.4,3.2-.5,3.9-.1,8.1,4.3,4.8,5.1,4.8,5.6-1,6.8-2.9.6-3.6.2-7.7-4.1-2.5-2.7-4.1-5.2-3.7-5.6ZM464.6,65.9c1.5-1.6,3.1-2.9,3.6-2.9s3.1,2.4,5.7,5.2l4.9,5.2-2.1,2.2c-1.2,1.2-2.6,2.2-3.3,2.2s-3.5-2.1-6.4-4.6l-5.2-4.6,2.7-2.9ZM458.5,73.6c.9-1.4,2.1-2.6,2.6-2.6s3.1,2.1,5.8,4.6l4.9,4.6-2.1,2.9c-1.2,1.6-2.4,2.9-2.8,2.9s-2.8-2.2-5.4-4.9c-4.8-4.9-4.8-4.9-3.1-7.5ZM455.4,84.8c.3-1.2.6-2.8.6-3.5,0-2.1,1.3-1.5,6.2,3,4.3,3.9,4.6,4.5,4.1,8-.3,2-.8,3.7-1.2,3.7-.3,0-2.8-2-5.5-4.5-3.9-3.6-4.7-5-4.3-6.7ZM456.1,96c-.5-2.5-.8-4.7-.5-5,.3-.3,2.5,1.6,5,4,3.9,3.9,4.5,5,4.2,8.1l-.3,3.6-3.7-3.2c-2.7-2.3-4-4.4-4.7-7.6ZM461.9,106.9c2.1,1.1,5.1,4.9,5.1,6.3s-1.6.8-3.2-1c-.8-1-2.1-2.8-2.7-4.1-1.1-2.2-1.1-2.2.8-1.2ZM843.2,96.4c-1.5.3-6.1,1-10.2,1.6-11.7,1.7-17.1,3.1-22.1,5.6-5.7,2.9-7.9,6.1-7.9,11.7s.6,4.9,3.2,7.4c1.8,1.7,4.6,3.5,6.2,4.1,3.9,1.4,12.1,1.5,16.6.2,5-1.4,11.6-7.3,14.5-13.1,1.9-3.7,2.5-6.4,2.5-11.5v-6.6l-2.8.5ZM817.9,104c4.1-2.2,7.4-1.2,11.5,3.5,2.2,2.5,3.5,4.9,3,5.4-.5.4-2.5,1.1-4.5,1.4-3.4.6-3.8.3-7.8-4.3-3.9-4.7-4.1-5-2.2-6ZM813.3,122.9c-1,0-2.8-.5-4-1.1-2.5-1.2-4.9-6.1-3.8-7.8.5-.8,1.9,0,4.2,2.2,4.7,4.5,5.9,6.9,3.6,6.8ZM820.2,118.2c-1.4,1.5-2.9,2.8-3.2,2.8s-2.8-2.2-5.5-5l-4.9-5,2.4-2.5c1.3-1.4,3-2.5,3.8-2.5s3.4,2.1,5.7,4.8l4.3,4.8-2.6,2.8ZM832.1,120.9c-3,2.2-10.1,2.9-10.1,1s7.8-4.9,10.8-4.9c3.1,0,2.8,1.4-.7,3.9ZM841.4,110.4c-2.8,2.8-6,1.9-9.9-2.8-2-2.4-3.6-4.6-3.6-4.9s2-.8,4.5-1.2c4-.6,4.8-.4,6.5,1.6,3.6,4.3,4.1,5.6,2.4,7.2ZM840.7,102.3c-1.1-1.2-.7-2.3.8-2.3s1.5.7,1.5,1.5c0,1.6-1.2,2-2.3.8ZM843.2,96.4c-1.5.3-6.1,1-10.2,1.6-11.7,1.7-17.1,3.1-22.1,5.6-5.7,2.9-7.9,6.1-7.9,11.7s.6,4.9,3.2,7.4c1.8,1.7,4.6,3.5,6.2,4.1,3.9,1.4,12.1,1.5,16.6.2,5-1.4,11.6-7.3,14.5-13.1,1.9-3.7,2.5-6.4,2.5-11.5v-6.6l-2.8.5ZM817.9,104c4.1-2.2,7.4-1.2,11.5,3.5,2.2,2.5,3.5,4.9,3,5.4-.5.4-2.5,1.1-4.5,1.4-3.4.6-3.8.3-7.8-4.3-3.9-4.7-4.1-5-2.2-6ZM813.3,122.9c-1,0-2.8-.5-4-1.1-2.5-1.2-4.9-6.1-3.8-7.8.5-.8,1.9,0,4.2,2.2,4.7,4.5,5.9,6.9,3.6,6.8ZM820.2,118.2c-1.4,1.5-2.9,2.8-3.2,2.8s-2.8-2.2-5.5-5l-4.9-5,2.4-2.5c1.3-1.4,3-2.5,3.8-2.5s3.4,2.1,5.7,4.8l4.3,4.8-2.6,2.8ZM832.1,120.9c-3,2.2-10.1,2.9-10.1,1s7.8-4.9,10.8-4.9c3.1,0,2.8,1.4-.7,3.9ZM841.4,110.4c-2.8,2.8-6,1.9-9.9-2.8-2-2.4-3.6-4.6-3.6-4.9s2-.8,4.5-1.2c4-.6,4.8-.4,6.5,1.6,3.6,4.3,4.1,5.6,2.4,7.2ZM840.7,102.3c-1.1-1.2-.7-2.3.8-2.3s1.5.7,1.5,1.5c0,1.6-1.2,2-2.3.8ZM888.8,65.5c-3.5-7.2-7.3-11.5-18.8-21.6-9.4-8.2-14.5-11.4-23.4-14.7-6.3-2.3-8.5-2.6-20.1-2.5-15,0-23.6,1.8-33.4,6.6-8,3.9-16.2,12-20.2,19.9-4.8,9.5-4.6,10.4,4.1,18,4.1,3.6,9,7.3,10.8,8.2,1.8.9,3.2,2.1,3.2,2.7s-2.4,2.2-5.4,3.6c-6.5,3.1-13.5,10.2-16.6,17-1.7,3.7-2.3,7-2.4,12.9-.1,7.1.2,8.8,3.2,15,2.7,5.8,5.1,8.8,14.5,17.8,11.5,11,20.3,16.6,26.5,16.8,1.5,0,3.6.4,4.5.8,3.5,1.4,14.3,1.2,20.1-.3,4.9-1.3,8.5-2.8,19.6-8.3.3-.1,1.3,1.1,2.3,2.8l1.8,3,17.7-.3,17.7-.3v-36c0-41.9-.8-51.1-5.7-61ZM889.8,83.8l-.3,4.7-4.2-3.8c-3.6-3.3-4.2-4.4-4.5-8.7-.2-2.7,0-4.9.3-4.7.3.1,2.5,2,4.8,4,3.9,3.5,4.2,4.1,3.9,8.5ZM878.5,59.2c.8-.8,6.6,6.1,8.1,9.7,2.1,5.1,1.4,5.6-2.7,1.9-3.2-2.9-6.7-10.3-5.4-11.6ZM783.2,72.8c-1.7-1.7-1.5-3.8.3-3.8s1.5.9,1.5,2.5c0,2.8-.1,3-1.8,1.3ZM788.2,74.8c-2.3-1.1-3.3-5.8-1.2-5.8s1,.5,1,1.2,1,2.2,2.2,3.5c2.3,2.5,1.7,2.8-1.9,1.1ZM834.6,67.7c-.3.3-2.2.7-4.4,1-3.7.5-4.1.3-8.1-4.5l-4.2-5,4.3-.6c2.4-.4,5-.4,5.8,0,1.7.7,7.3,8.5,6.6,9.2ZM833,60c1.8,0,6.9,3.8,8.1,6.1,1.9,3.6-2.3,2-5.9-2.2-1.8-2.2-2.8-3.9-2.2-3.9ZM821.4,65.7l3.7,4.2-2.8,2.5c-1.6,1.4-3.1,2.5-3.3,2.5-.3,0-2.6-2-5.2-4.5s-4.8-4.9-4.8-5.4c0-1.4,7.1-5.4,7.9-4.4.4.5,2.5,2.8,4.5,5.1ZM812.1,71.7c2.4,2.3,4,4.5,3.7,4.8-.3.3-2.3.8-4.4,1.1-3,.4-4.3,0-6-1.7-2-2.1-2.1-2.3-.4-4,1-1,2-2.4,2.3-3.1.4-1,1.8-.1,4.8,2.8ZM801.6,79c-2.7,0-4.3-.9-7.5-4.2-2.2-2.3-4.1-4.5-4.1-4.9,0-1.7,10.1,2.2,12.4,4.8,3.3,3.8,3.2,4.3-.8,4.3ZM800.7,156.9c-6.8-4.5-7.6-6.3-2-4.8,1.7.5,4.3,2.4,5.8,4.3,3.3,4.3,2.3,4.4-3.8.4ZM810.3,160.5c-1.2-.8-3.1-2.9-4.3-4.5l-2.1-3h4.5c3.9,0,5,.5,8.1,3.8,2,2.1,3.6,4.1,3.6,4.5,0,1.4-7.5.8-9.7-.8ZM824.5,162.9c-.6,0-2.8-2.1-4.9-4.5-2.1-2.4-3.7-4.6-3.5-4.8.2-.2,2.5-.7,5-1.1,4.5-.7,4.7-.6,8.2,3.6,2,2.3,3.7,4.6,3.7,5,0,.7-6.3,2-8.5,1.8ZM842.9,158.5c-5.7,2.9-6.5,2.8-10.8-1.7-2.3-2.4-4.1-4.8-4.1-5.3,0-.6,1.7-1.9,3.7-2.8l3.7-1.8,5,5.2,5,5.2-2.4,1.2ZM850,155.5c-1.6.8-3.1,1.5-3.2,1.5-.2,0-2.2-2.3-4.6-5.1-2.3-2.8-4.2-5.6-4.2-6.3,0-1.5,4.2-5.6,5.8-5.6s1.8,2.7,2.6,9c.1.9,1.5,1.6,3.4,1.8,4.1.4,4.2,2.6.3,4.7ZM849.2,147l-.6-4.3c-1.3-8.4-1.8-10.8-2.1-10.8s-2.6,2.4-5.4,5.3c-10.3,10.9-26.7,15.2-42.6,11.3-12.3-3.1-23.1-12.1-26-21.9-3.6-12.2-.9-24.3,7.1-32.1,8.4-8.2,26.7-13.5,59.9-17.4l6-.7.3-4.4c.8-11.8-14.3-20.2-29.1-16.1-4.3,1.2-10.2,6-12.2,10-.4.8-.6,1.4-1,1.8-1.1,1-3.6.5-15-2-1.2-.2-2.4-.5-3.7-.8-5.9-1.3-10.8-2.7-10.8-3.2,0-1.6,5.3-11.3,8.1-15,3.5-4.5,12.3-10.5,19-12.9,7.2-2.7,21.9-4.3,31.4-3.5,14.1,1.2,28.8,7.8,34.9,15.8,4.7,6.1,8.6,16,9.7,24.3.6,4.6.9,22.2.8,42l-.3,34-14.2.3-14.2.3ZM876,159.8l-13.9.3-1.6-3c-.9-1.6-1.6-3.9-1.6-5,0-2,.6-2,11.3-2h11.3l4.2,4.3c2.3,2.4,4.2,4.5,4.2,4.8s-6.3.6-13.9.8ZM890.8,150.9l-.3,5.4-4.8-4.4c-4.7-4.3-4.8-4.5-4.5-9.7l.3-5.3,4.8,4.3c4.8,4.2,4.8,4.3,4.5,9.7ZM890.2,142c-.4,0-2.7-1.9-5-4.3-3.7-3.8-4.2-4.8-4.2-9s.3-4.7.7-4.7,2.6,1.9,5,4.2c3.9,3.8,4.3,4.7,4.3,9s-.4,4.8-.8,4.8ZM890.2,128c-.4,0-2.7-1.7-5-3.8-3.9-3.4-4.2-4.1-4.2-8.5s.3-4.7.8-4.7c.4,0,2.7,1.8,5,3.9,3.8,3.5,4.2,4.3,4.2,8.5s-.3,4.6-.8,4.6ZM890.2,115c-.4,0-2.7-1.8-5-4-3.8-3.6-4.2-4.5-4.2-8.5s.3-4.5.6-4.5,2.6,1.6,5,3.6c4.1,3.3,4.4,3.9,4.4,8.5s-.3,4.9-.8,4.9ZM890.2,102c-.4,0-2.7-1.9-5-4.3-3.7-3.8-4.2-4.8-4.2-9s.3-4.7.7-4.7,2.6,1.9,5,4.2c3.9,3.8,4.3,4.7,4.3,9s-.4,4.8-.8,4.8ZM833,98c-11.7,1.7-17.1,3.1-22.1,5.6-5.7,2.9-7.9,6.1-7.9,11.7s.6,4.9,3.2,7.4c1.8,1.7,4.6,3.5,6.2,4.1,3.9,1.4,12.1,1.5,16.6.2,5-1.4,11.6-7.3,14.5-13.1,1.9-3.7,2.5-6.4,2.5-11.5v-6.6l-2.8.5c-1.5.3-6.1,1-10.2,1.6ZM817.9,104c4.1-2.2,7.4-1.2,11.5,3.5,2.2,2.5,3.5,4.9,3,5.4-.5.4-2.5,1.1-4.5,1.4-3.4.6-3.8.3-7.8-4.3-3.9-4.7-4.1-5-2.2-6ZM813.3,122.9c-1,0-2.8-.5-4-1.1-2.5-1.2-4.9-6.1-3.8-7.8.5-.8,1.9,0,4.2,2.2,4.7,4.5,5.9,6.9,3.6,6.8ZM820.2,118.2c-1.4,1.5-2.9,2.8-3.2,2.8s-2.8-2.2-5.5-5l-4.9-5,2.4-2.5c1.3-1.4,3-2.5,3.8-2.5s3.4,2.1,5.7,4.8l4.3,4.8-2.6,2.8ZM832.1,120.9c-3,2.2-10.1,2.9-10.1,1s7.8-4.9,10.8-4.9c3.1,0,2.8,1.4-.7,3.9ZM841.4,110.4c-2.8,2.8-6,1.9-9.9-2.8-2-2.4-3.6-4.6-3.6-4.9s2-.8,4.5-1.2c4-.6,4.8-.4,6.5,1.6,3.6,4.3,4.1,5.6,2.4,7.2ZM840.7,102.3c-1.1-1.2-.7-2.3.8-2.3s1.5.7,1.5,1.5c0,1.6-1.2,2-2.3.8ZM227.6,86.1c-1.1-9.9-4.2-16.6-10.1-22-7.4-6.8-16-9-26.7-6.8-5.3,1.1-14.9,9.3-17.7,15.2-6.2,13.1-3.8,31.9,5.2,41.3,7.9,8.3,21,11,31.7,6.5,4.4-1.8,11.6-8.7,14-13.4,2.7-5.3,4.3-14.5,3.6-20.9ZM202.2,60.5c1-1,7.6,1.7,11.1,4.6,5.6,4.6,5.1,5.4-2.5,4.2-2.5-.4-9.7-7.7-8.6-8.8ZM188.7,61.7c.5-.3,2.8-.9,5-1.2,3.8-.6,4.3-.4,7.9,3.6,2.1,2.3,4,4.5,4.1,4.9.2.6-6.2,3-7.9,3s-2.6-2.2-5.2-4.9c-2.7-2.7-4.4-5.1-3.9-5.5ZM183.1,65.1l3.1-2.3,4.9,4.8c2.7,2.7,4.9,5.2,4.9,5.7,0,1.1-4.2,4.6-5.5,4.7-.6,0-3.2-2.1-5.8-4.8-2.6-2.6-4.7-5-4.7-5.3s1.4-1.6,3.1-2.8ZM173.9,80.6c.5-.3,3,1.4,5.6,3.7,4.3,3.9,4.7,4.6,4,7.5-.9,4.2-2.3,4.1-6.9-.6-2.7-2.8-3.7-4.7-3.7-6.9s.4-3.4.9-3.7ZM173.7,91c.5,0,2.5,1.7,4.5,3.8,2.5,2.6,3.8,5,4.2,8,.3,2.3.3,4.2-.2,4.2s-2.4-1.7-4.5-3.8c-2.6-2.6-3.9-5-4.3-8-.4-2.4-.3-4.2.2-4.2ZM181.9,112.7c-1.8-1.4-5.4-6.7-4.5-6.7s1.8,1,3.2,2.2c4.4,3.8,5.6,7.8,1.3,4.5ZM184.7,86c-.4,0-2.9-2-5.4-4.3-4.5-4.3-4.6-4.5-3.3-7.5.7-1.7,1.8-3.1,2.4-3.1.6,0,3.3,2,6,4.3l4.8,4.2-1.8,3.2c-1,1.8-2.2,3.2-2.6,3.2ZM222.1,101c-2.4,5.9-7.3,12.1-11.7,14.6-3.3,1.9-5.5,2.4-11.1,2.4s-7.4-.5-8.1-1.3c-2.3-2.8-4.1-10.2-4.1-16.8,0-15.9,11.2-27.3,25.5-26.1,6.6.6,9.2,2.4,10.2,7,1.2,6.1.9,16.5-.6,20.3ZM506.2,72.8c-5.3-10.8-13.7-15.9-26.1-15.9-11.1,0-20.6,6.3-25.5,17.1-3.1,6.6-3,22.2.2,30.2,2.3,5.8,8.5,12.9,13.4,15.5,7.4,3.9,18,3.9,25.6.2,5.3-2.7,10.7-8.5,13.6-14.6,1.8-3.8,2.1-6.5,2.1-15.1s-.2-10.9-3.3-17.2ZM484,60.2c3-1,15,6.1,15,8.9s-1.8.9-3.9.9c-3.4,0-4.4-.6-8-4.8-2.2-2.6-3.6-4.9-3.1-5.1ZM471.9,61.7c.4-.4,2.4-1,4.3-1.4,3.2-.5,3.9-.1,8.1,4.3,4.8,5.1,4.8,5.6-1,6.8-2.9.6-3.6.2-7.7-4.1-2.5-2.7-4.1-5.2-3.7-5.6ZM464.6,65.9c1.5-1.6,3.1-2.9,3.6-2.9s3.1,2.4,5.7,5.2l4.9,5.2-2.1,2.2c-1.2,1.2-2.6,2.2-3.3,2.2s-3.5-2.1-6.4-4.6l-5.2-4.6,2.7-2.9ZM455.4,84.8c.3-1.2.6-2.8.6-3.5,0-2.1,1.3-1.5,6.2,3,4.3,3.9,4.6,4.5,4.1,8-.3,2-.8,3.7-1.2,3.7-.3,0-2.8-2-5.5-4.5-3.9-3.6-4.7-5-4.3-6.7ZM456.1,96c-.5-2.5-.8-4.7-.5-5,.3-.3,2.5,1.6,5,4,3.9,3.9,4.5,5,4.2,8.1l-.3,3.6-3.7-3.2c-2.7-2.3-4-4.4-4.7-7.6ZM463.8,112.2c-.8-1-2.1-2.8-2.7-4.1-1.1-2.2-1.1-2.2.8-1.2,2.1,1.1,5.1,4.9,5.1,6.3s-1.6.8-3.2-1ZM467,86c-.3,0-2.8-2.2-5.4-4.9-4.8-4.9-4.8-4.9-3.1-7.5.9-1.4,2.1-2.6,2.6-2.6s3.1,2.1,5.8,4.6l4.9,4.6-2.1,2.9c-1.2,1.6-2.4,2.9-2.8,2.9ZM505.7,93.4c-1.1,12.5-6.9,20.8-16.9,24-5.5,1.8-7.7,1.9-12.5.5-2.9-.8-3.4-1.7-5.5-7.9-2.1-6.5-2.2-7.6-1-14.1,1.7-9.8,6.5-16.7,14-20,4.7-2,15-2.6,18.1-.9,2.7,1.4,4.4,10,3.7,18.4ZM1080.1,75c-.8-8.2-7.3-15.6-16.2-18.5-7.9-2.6-20.5-1.8-25.8,1.8-5.6,3.7-9,7.5-11.2,12.5-.2.5-.5,1-.7,1.5-1,2.3-1.7,3.8-1.3,4.8.9,2,6.3,1.9,22.5,1.8,1.7,0,3.4,0,5.3,0l27.8-.3-.4-3.5ZM1065.1,60.5c.7-.6,7.9,5.4,7.9,6.5,0,1.8-1.6.9-5-2.6-1.9-1.9-3.2-3.7-2.9-4ZM1029.6,75.1c-.7-1.1.3-4.1,1.4-4.1s4.1,3.4,4.1,4.3-4.8.8-5.4-.2ZM1038,74.3c-3.2-2.2-6-5.1-6-6.1s4.3-5.2,5.3-5.2,7.8,7.5,9,9.7c1.8,3.2-4.3,4.4-8.3,1.6ZM1055.9,69.4c-.2.2-1.8,1.1-3.6,2l-3.2,1.6-4.6-5.2c-2.5-2.9-4.4-5.6-4.3-6.2.2-.5,2-1.5,4-2.2l3.7-1.3,4.1,5.5c2.3,3,4,5.6,3.7,5.8ZM1054.6,63.7c-2-2.4-3.6-4.7-3.6-5s2-.7,4.4-.7c3.9,0,4.8.5,8,4,2,2.2,3.4,4.5,3.1,5-.3.5-2.3,1-4.5,1-3.4,0-4.4-.6-7.4-4.3ZM1073.8,73.2c-.3.9-2.9,1.4-8.2,1.6-6,.2-7.7,0-7.3-1,.3-.9,2.9-1.4,8.2-1.6,6-.2,7.7,0,7.3,1ZM843.2,96.4c-1.5.3-6.1,1-10.2,1.6-11.7,1.7-17.1,3.1-22.1,5.6-5.7,2.9-7.9,6.1-7.9,11.7s.6,4.9,3.2,7.4c1.8,1.7,4.6,3.5,6.2,4.1,3.9,1.4,12.1,1.5,16.6.2,5-1.4,11.6-7.3,14.5-13.1,1.9-3.7,2.5-6.4,2.5-11.5v-6.6l-2.8.5ZM817.9,104c4.1-2.2,7.4-1.2,11.5,3.5,2.2,2.5,3.5,4.9,3,5.4-.5.4-2.5,1.1-4.5,1.4-3.4.6-3.8.3-7.8-4.3-3.9-4.7-4.1-5-2.2-6ZM813.3,122.9c-1,0-2.8-.5-4-1.1-2.5-1.2-4.9-6.1-3.8-7.8.5-.8,1.9,0,4.2,2.2,4.7,4.5,5.9,6.9,3.6,6.8ZM820.2,118.2c-1.4,1.5-2.9,2.8-3.2,2.8s-2.8-2.2-5.5-5l-4.9-5,2.4-2.5c1.3-1.4,3-2.5,3.8-2.5s3.4,2.1,5.7,4.8l4.3,4.8-2.6,2.8ZM832.1,120.9c-3,2.2-10.1,2.9-10.1,1s7.8-4.9,10.8-4.9c3.1,0,2.8,1.4-.7,3.9ZM841.4,110.4c-2.8,2.8-6,1.9-9.9-2.8-2-2.4-3.6-4.6-3.6-4.9s2-.8,4.5-1.2c4-.6,4.8-.4,6.5,1.6,3.6,4.3,4.1,5.6,2.4,7.2ZM840.7,102.3c-1.1-1.2-.7-2.3.8-2.3s1.5.7,1.5,1.5c0,1.6-1.2,2-2.3.8ZM227.6,86.1c-1.1-9.9-4.2-16.6-10.1-22-7.4-6.8-16-9-26.7-6.8-5.3,1.1-14.9,9.3-17.7,15.2-6.2,13.1-3.8,31.9,5.2,41.3,7.9,8.3,21,11,31.7,6.5,4.4-1.8,11.6-8.7,14-13.4,2.7-5.3,4.3-14.5,3.6-20.9ZM202.2,60.5c1-1,7.6,1.7,11.1,4.6,5.6,4.6,5.1,5.4-2.5,4.2-2.5-.4-9.7-7.7-8.6-8.8ZM188.7,61.7c.5-.3,2.8-.9,5-1.2,3.8-.6,4.3-.4,7.9,3.6,2.1,2.3,4,4.5,4.1,4.9.2.6-6.2,3-7.9,3s-2.6-2.2-5.2-4.9c-2.7-2.7-4.4-5.1-3.9-5.5ZM183.1,65.1l3.1-2.3,4.9,4.8c2.7,2.7,4.9,5.2,4.9,5.7,0,1.1-4.2,4.6-5.5,4.7-.6,0-3.2-2.1-5.8-4.8-2.6-2.6-4.7-5-4.7-5.3s1.4-1.6,3.1-2.8ZM173.9,80.6c.5-.3,3,1.4,5.6,3.7,4.3,3.9,4.7,4.6,4,7.5-.9,4.2-2.3,4.1-6.9-.6-2.7-2.8-3.7-4.7-3.7-6.9s.4-3.4.9-3.7ZM173.7,91c.5,0,2.5,1.7,4.5,3.8,2.5,2.6,3.8,5,4.2,8,.3,2.3.3,4.2-.2,4.2s-2.4-1.7-4.5-3.8c-2.6-2.6-3.9-5-4.3-8-.4-2.4-.3-4.2.2-4.2ZM181.9,112.7c-1.8-1.4-5.4-6.7-4.5-6.7s1.8,1,3.2,2.2c4.4,3.8,5.6,7.8,1.3,4.5ZM184.7,86c-.4,0-2.9-2-5.4-4.3-4.5-4.3-4.6-4.5-3.3-7.5.7-1.7,1.8-3.1,2.4-3.1.6,0,3.3,2,6,4.3l4.8,4.2-1.8,3.2c-1,1.8-2.2,3.2-2.6,3.2ZM222.1,101c-2.4,5.9-7.3,12.1-11.7,14.6-3.3,1.9-5.5,2.4-11.1,2.4s-7.4-.5-8.1-1.3c-2.3-2.8-4.1-10.2-4.1-16.8,0-15.9,11.2-27.3,25.5-26.1,6.6.6,9.2,2.4,10.2,7,1.2,6.1.9,16.5-.6,20.3ZM506.2,72.8c-5.3-10.8-13.7-15.9-26.1-15.9-11.1,0-20.6,6.3-25.5,17.1-3.1,6.6-3,22.2.2,30.2,2.3,5.8,8.5,12.9,13.4,15.5,7.4,3.9,18,3.9,25.6.2,5.3-2.7,10.7-8.5,13.6-14.6,1.8-3.8,2.1-6.5,2.1-15.1s-.2-10.9-3.3-17.2ZM484,60.2c3-1,15,6.1,15,8.9s-1.8.9-3.9.9c-3.4,0-4.4-.6-8-4.8-2.2-2.6-3.6-4.9-3.1-5.1ZM471.9,61.7c.4-.4,2.4-1,4.3-1.4,3.2-.5,3.9-.1,8.1,4.3,4.8,5.1,4.8,5.6-1,6.8-2.9.6-3.6.2-7.7-4.1-2.5-2.7-4.1-5.2-3.7-5.6ZM464.6,65.9c1.5-1.6,3.1-2.9,3.6-2.9s3.1,2.4,5.7,5.2l4.9,5.2-2.1,2.2c-1.2,1.2-2.6,2.2-3.3,2.2s-3.5-2.1-6.4-4.6l-5.2-4.6,2.7-2.9ZM455.4,84.8c.3-1.2.6-2.8.6-3.5,0-2.1,1.3-1.5,6.2,3,4.3,3.9,4.6,4.5,4.1,8-.3,2-.8,3.7-1.2,3.7-.3,0-2.8-2-5.5-4.5-3.9-3.6-4.7-5-4.3-6.7ZM456.1,96c-.5-2.5-.8-4.7-.5-5,.3-.3,2.5,1.6,5,4,3.9,3.9,4.5,5,4.2,8.1l-.3,3.6-3.7-3.2c-2.7-2.3-4-4.4-4.7-7.6ZM463.8,112.2c-.8-1-2.1-2.8-2.7-4.1-1.1-2.2-1.1-2.2.8-1.2,2.1,1.1,5.1,4.9,5.1,6.3s-1.6.8-3.2-1ZM467,86c-.3,0-2.8-2.2-5.4-4.9-4.8-4.9-4.8-4.9-3.1-7.5.9-1.4,2.1-2.6,2.6-2.6s3.1,2.1,5.8,4.6l4.9,4.6-2.1,2.9c-1.2,1.6-2.4,2.9-2.8,2.9ZM505.7,93.4c-1.1,12.5-6.9,20.8-16.9,24-5.5,1.8-7.7,1.9-12.5.5-2.9-.8-3.4-1.7-5.5-7.9-2.1-6.5-2.2-7.6-1-14.1,1.7-9.8,6.5-16.7,14-20,4.7-2,15-2.6,18.1-.9,2.7,1.4,4.4,10,3.7,18.4ZM1080.1,75c-.8-8.2-7.3-15.6-16.2-18.5-7.9-2.6-20.5-1.8-25.8,1.8-5.6,3.7-9,7.5-11.2,12.5-.2.5-.5,1-.7,1.5-1,2.3-1.7,3.8-1.3,4.8.9,2,6.3,1.9,22.5,1.8,1.7,0,3.4,0,5.3,0l27.8-.3-.4-3.5ZM1065.1,60.5c.7-.6,7.9,5.4,7.9,6.5,0,1.8-1.6.9-5-2.6-1.9-1.9-3.2-3.7-2.9-4ZM1029.6,75.1c-.7-1.1.3-4.1,1.4-4.1s4.1,3.4,4.1,4.3-4.8.8-5.4-.2ZM1038,74.3c-3.2-2.2-6-5.1-6-6.1s4.3-5.2,5.3-5.2,7.8,7.5,9,9.7c1.8,3.2-4.3,4.4-8.3,1.6ZM1055.9,69.4c-.2.2-1.8,1.1-3.6,2l-3.2,1.6-4.6-5.2c-2.5-2.9-4.4-5.6-4.3-6.2.2-.5,2-1.5,4-2.2l3.7-1.3,4.1,5.5c2.3,3,4,5.6,3.7,5.8ZM1054.6,63.7c-2-2.4-3.6-4.7-3.6-5s2-.7,4.4-.7c3.9,0,4.8.5,8,4,2,2.2,3.4,4.5,3.1,5-.3.5-2.3,1-4.5,1-3.4,0-4.4-.6-7.4-4.3ZM1073.8,73.2c-.3.9-2.9,1.4-8.2,1.6-6,.2-7.7,0-7.3-1,.3-.9,2.9-1.4,8.2-1.6,6-.2,7.7,0,7.3,1ZM843.2,96.4c-1.5.3-6.1,1-10.2,1.6-11.7,1.7-17.1,3.1-22.1,5.6-5.7,2.9-7.9,6.1-7.9,11.7s.6,4.9,3.2,7.4c1.8,1.7,4.6,3.5,6.2,4.1,3.9,1.4,12.1,1.5,16.6.2,5-1.4,11.6-7.3,14.5-13.1,1.9-3.7,2.5-6.4,2.5-11.5v-6.6l-2.8.5ZM817.9,104c4.1-2.2,7.4-1.2,11.5,3.5,2.2,2.5,3.5,4.9,3,5.4-.5.4-2.5,1.1-4.5,1.4-3.4.6-3.8.3-7.8-4.3-3.9-4.7-4.1-5-2.2-6ZM813.3,122.9c-1,0-2.8-.5-4-1.1-2.5-1.2-4.9-6.1-3.8-7.8.5-.8,1.9,0,4.2,2.2,4.7,4.5,5.9,6.9,3.6,6.8ZM820.2,118.2c-1.4,1.5-2.9,2.8-3.2,2.8s-2.8-2.2-5.5-5l-4.9-5,2.4-2.5c1.3-1.4,3-2.5,3.8-2.5s3.4,2.1,5.7,4.8l4.3,4.8-2.6,2.8ZM832.1,120.9c-3,2.2-10.1,2.9-10.1,1s7.8-4.9,10.8-4.9c3.1,0,2.8,1.4-.7,3.9ZM841.4,110.4c-2.8,2.8-6,1.9-9.9-2.8-2-2.4-3.6-4.6-3.6-4.9s2-.8,4.5-1.2c4-.6,4.8-.4,6.5,1.6,3.6,4.3,4.1,5.6,2.4,7.2ZM840.7,102.3c-1.1-1.2-.7-2.3.8-2.3s1.5.7,1.5,1.5c0,1.6-1.2,2-2.3.8Z"/>
  <path class="st2" d="M96.6,155.8c-2-2.3-3.6-4.6-3.6-5s8.9-.8,19.8-.8h19.8s3.2,3.9,3.2,3.9c1.8,2.1,3.2,4.4,3.2,5s-6.3,1.1-19.4,1.1h-19.4l-3.6-4.2ZM379.6,155.7c-2-2.4-3.6-4.6-3.6-5s8.7-.6,19.4-.6h19.4l3.6,4.4c2,2.4,3.6,4.7,3.6,5s-8.7.6-19.4.6h-19.4l-3.6-4.4ZM720,150h25.6l4.2,4.3c2.3,2.4,4.2,4.6,4.2,5s-7.7.7-17,.7h-17v-10ZM299.7,159.3c-.4-.4-.7-2.6-.7-5v-4.3h25.6l4.2,4.3c2.3,2.4,4.2,4.6,4.2,5,0,.9-32.4.9-33.3,0ZM15.7,159.3c-.4-.4-.7-2.6-.7-5v-4.3h25.6l4.2,4.3c2.3,2.4,4.2,4.6,4.2,5,0,.9-32.4.9-33.3,0ZM578,150h25.6l3.7,4.4c2,2.4,3.7,4.6,3.7,4.9s-7.4.5-16.5.6h-16.5c0,.1,0-10,0-10ZM860.5,157.1c-.9-1.6-1.6-3.9-1.6-5.1,0-1.9.6-2,11.3-2h11.3l4.2,4.3c2.3,2.4,4.2,4.5,4.2,4.8s-6.3.6-13.9.8l-13.9.3-1.6-3ZM653.1,156.4c-3.6-6.1-3.2-6.4,6.6-6.4h8.7l4.3,4.2c2.4,2.3,4.3,4.6,4.3,5s-4.9.8-10.9.8h-10.9l-2.1-3.6ZM83,76.7c-1.4-1.2-3.8-3.2-5.3-4.4l-2.8-2.2,2.7-3.5q2.7-3.6,5.4-1.8c1.5,1,4.2,3,6,4.4l3.3,2.7-2.7,3.6c-1.5,2-3.1,3.6-3.4,3.5-.4,0-1.8-1-3.2-2.2ZM242.1,146.5c-2.3-2.5-4.1-4.8-4.1-5.3,0-.9,5.4-5.2,6.5-5.2s2.8,2.1,5.6,4.7l5,4.7-2.7,2.8c-1.5,1.6-3.5,2.8-4.4,2.8s-3.5-2-5.8-4.5ZM87.7,65.9c-3.1-2.3-5.7-4.5-5.7-4.8,0-1.1,4.9-6.1,6-6.1s11,7.1,11,8c0,.3-1.3,2-2.8,3.9l-2.8,3.3-5.7-4.2ZM1103.5,141l-4.9-5,3.2-3.2,3.2-3.2,4.8,4.4c2.6,2.4,5,4.8,5.2,5.3.4.9-4.7,6.7-5.8,6.7s-2.8-2.2-5.5-5ZM101.2,47.9l-5.3-4,2.6-3.4c1.4-1.9,2.8-3.5,3.1-3.5,1.2,0,11.2,7.6,11.3,8.6,0,1-5.1,6.5-6,6.4-.2,0-2.8-1.8-5.7-4.1ZM530.5,141l-4.9-5,3.2-3.2,3.2-3.2,5.2,5.2,5.2,5.2-2.9,3c-1.6,1.7-3.2,3-3.5,3s-2.8-2.2-5.5-5ZM1095.5,147.9l-5-5.1,3-2.4c1.7-1.3,3.5-2.4,4-2.4.6,0,3.2,2.2,5.8,4.8l4.7,4.8-2.8,2.7c-1.5,1.5-3.3,2.7-3.8,2.7s-3.2-2.3-6-5.1ZM522.6,147.8l-4.6-5.2,3.1-2.9,3.1-2.8,5.4,5.3,5.4,5.4-3.3,2.8c-1.8,1.5-3.6,2.8-4,2.8s-2.8-2.4-5.3-5.2ZM371.8,64.2c-2.6-2-4.7-4.2-4.8-4.8,0-.6,1.3-2.3,2.9-3.9l2.9-2.8,5.1,3.8c2.8,2.1,5.1,4.3,5.1,4.8,0,1.3-4.6,6.6-5.7,6.5-.4,0-2.9-1.7-5.5-3.8ZM385.7,46.3c-2.6-1.9-4.7-3.8-4.7-4.2,0-.4,1.3-2.2,2.8-4.1l2.8-3.4,5.2,3.9c2.8,2.1,5.2,4.3,5.2,4.9,0,1.2-4.8,6.6-5.8,6.5-.4,0-2.9-1.7-5.5-3.6ZM94.3,56.8c-5.6-4.3-5.7-5.3-1.4-9.2,2-1.8,2.1-1.8,6.4,1.2,6.9,4.8,7.2,5.5,4.2,9.1-1.4,1.7-2.9,3.1-3.3,3-.4,0-3-1.9-5.9-4.1ZM250.6,139.1l-4.8-4.9,2.3-3.1c1.3-1.7,2.7-3.1,3.2-3.1s3.1,2.1,5.8,4.8l4.9,4.8-2.6,3.2c-1.4,1.8-2.9,3.2-3.3,3.2s-2.9-2.2-5.5-4.9ZM538,133.1l-5.3-4.8,2.3-3.7c1.2-2,2.6-3.7,3-3.7s2.9,2.2,5.5,4.9l4.8,4.9-1.6,3.1c-.9,1.7-2,3.3-2.4,3.6-.5.3-3.3-1.6-6.2-4.3ZM1086.2,153.7c-2.3-2.4-4.2-4.8-4.2-5.3s1.7-1.8,3.7-2.8l3.7-1.8,4.8,4.8c2.7,2.6,4.8,5.1,4.8,5.5,0,1-5.4,3.8-7.2,3.8s-3.2-1.9-5.6-4.3ZM109,39.4c-2.5-2-4.7-4-4.9-4.6-.4-1.2,3.8-5.9,5.3-5.9s10.6,6.4,10.6,7.6-4,6.4-5.3,6.4c-.6,0-3.2-1.6-5.7-3.6ZM379.4,55.4c-2.7-2-5-3.8-5.2-4-.6-.5,4.3-7.4,5.2-7.4,1.4,0,10.6,7.4,10.6,8.5,0,.6-1.2,2.3-2.8,3.8l-2.9,2.7-4.9-3.7ZM365.9,73.5c-2.4-2-4.8-4-5.2-4.5-.9-.9,3.1-7,4.6-7s10.7,7.1,10.7,8.4-1.3,2.5-2.8,4l-2.9,2.7-4.4-3.6ZM115.7,30.4c-2.6-2-4.7-3.9-4.7-4.2,0-.4,1.2-2.1,2.8-3.8l2.7-3.2,5.2,3.9c2.9,2.2,5.2,4.3,5.2,4.8,0,1.4-4.1,6.1-5.3,6.1-.6,0-3.3-1.6-5.9-3.6ZM832.1,156.8c-2.3-2.4-4.1-4.8-4.1-5.3,0-.6,1.7-1.9,3.7-2.8l3.7-1.8,5,5.2,5,5.2-2.4,1.2c-5.7,2.9-6.5,2.8-10.8-1.7ZM232.7,151.7l-4.5-5.3,3-1.7c1.6-.9,3.5-1.7,4.2-1.7s3.4,2.2,6,4.9l4.8,4.9-2.4,1.5c-5.3,3.3-6.3,3.1-11.1-2.6ZM467.1,73.4l-5.2-4.6,2.7-2.9c1.5-1.6,3.1-2.9,3.6-2.9s3.1,2.4,5.7,5.2l4.9,5.2-2.1,2.2c-1.1,1.2-2.6,2.2-3.3,2.2s-3.5-2.1-6.4-4.6ZM392.7,37.5c-5-3.9-5.1-4.9-.8-8.9,2-1.9,2.1-1.8,6.1.9,6.2,4.3,6.7,5.2,4.3,8.3-2.8,3.8-4.3,3.8-9.6-.3ZM184.7,73.2c-2.6-2.6-4.7-5-4.7-5.3s1.4-1.6,3.1-2.8l3.1-2.3,4.9,4.8c2.7,2.7,4.9,5.2,4.9,5.7,0,1.1-4.2,4.6-5.5,4.7-.6,0-3.2-2.1-5.8-4.8ZM811.5,116l-4.9-5,2.4-2.5c1.3-1.4,3-2.5,3.8-2.5s3.4,2.1,5.7,4.8l4.3,4.8-2.6,2.8c-1.4,1.5-2.9,2.8-3.2,2.8s-2.8-2.2-5.5-5ZM682.2,132.2l-5.3-4.7,1.6-3.8c.9-2.1,2-3.8,2.5-3.8s3,1.9,5.6,4.3l4.7,4.3-1.9,4.2-1.9,4.2-5.3-4.7ZM813.7,70.4c-2.6-2.5-4.8-4.9-4.8-5.4,0-1.4,7.1-5.4,7.9-4.4.4.5,2.5,2.8,4.5,5.1l3.7,4.2-2.8,2.5c-1.6,1.4-3.1,2.5-3.3,2.5-.3,0-2.6-2-5.2-4.5ZM694.6,101.6c-4.9-4.3-4.9-4.4-3.6-7.7.7-1.9,1.7-3.7,2-4.2.4-.5,3.1,1.4,5.9,4l5.2,4.8-1.8,3.7c-1,2.1-2,3.7-2.4,3.7-.3,0-2.8-2-5.5-4.4ZM513.6,153.1c-2.7-2.7-4.6-5.3-4.2-5.9.3-.5,2-1.5,3.7-2.2,3-1.2,3.2-1.1,8,3.6,2.7,2.7,4.9,5.2,4.9,5.6s-6.3,3.8-7.4,3.8-2.3-2.2-5-4.9ZM122.7,21.5c-5.1-3.8-5.5-4.6-3.3-6.5,1.6-1.3,16.5-.5,16.5.9s-6.2,9.1-7.3,9.1c-.6,0-3.3-1.6-5.9-3.5ZM1044.6,67.8c-2.5-2.9-4.4-5.6-4.3-6.2.2-.5,2-1.5,4-2.2l3.7-1.3,4.1,5.5c2.3,3,3.9,5.6,3.7,5.8s-1.8,1.1-3.6,2l-3.2,1.6-4.6-5.2ZM222.5,155.8l-4.8-5.2,2.9-1.2c4.6-2,5.7-1.6,10.8,3.6l4.9,4.9-3.8,1.6c-2.1.9-4.1,1.6-4.5,1.6s-2.9-2.4-5.5-5.2ZM400.3,28.8c-2.3-1.8-4.2-3.7-4.2-4.2,0-.5,1-2.3,2.4-4l2.4-3,4.1,2.8c6.4,4.4,6.8,5.2,4.4,8.4-2.8,3.7-4.1,3.7-9,0ZM677.4,141.8l-4.5-4.2,1.6-3.8c.9-2.1,1.9-3.7,2.3-3.7.4,0,2.9,2,5.5,4.4l4.7,4.4-1.5,3.6c-.8,2-2,3.6-2.5,3.6s-3.1-1.9-5.5-4.2ZM673.6,152.8c-4.6-4.2-4.6-4.3-3.4-8,.6-2.1,1.8-3.8,2.6-3.8s3.2,1.8,5.5,3.9l4.2,3.9-1.4,4.1c-.8,2.3-1.7,4.1-2.1,4.1s-2.8-1.9-5.4-4.2ZM257.6,130.1l-4.8-4.9,1.6-3.1c.9-1.7,1.9-3.1,2.3-3.1.4,0,3,2,5.7,4.4l5,4.4-1.7,3.6c-1,2-2.1,3.6-2.5,3.6s-3-2.2-5.6-4.9ZM1074.7,156.6c-2.1-2.4-3.8-4.6-3.8-4.8s1.8-1,4.1-1.8l4.1-1.4,4.4,4.6c5,5.3,5.3,6.3,2.1,7.1-5.1,1.4-7.2.6-11-3.8ZM690.5,111.8q-4.9-4.4-3.5-7.8c.7-1.9,1.6-3.7,1.9-4.1.3-.4,2.8,1.2,5.5,3.6,5.2,4.5,5.6,6.5,2.3,11-1.3,1.7-1.6,1.6-6.2-2.6ZM1038.2,108.6c-2.4-2.3-4-4.5-3.6-4.9.4-.4,3-.7,5.9-.7,5.3,0,5.7.2,12,7.8l1.9,2.2h-5.9c-5.5-.2-6.2-.5-10.2-4.4ZM192.6,67.1c-2.6-2.7-4.4-5.1-3.9-5.5s2.8-.9,5-1.2c3.8-.6,4.3-.4,7.9,3.6,2.1,2.3,4,4.5,4.1,4.9.2.6-6.2,3-7.9,3s-2.6-2.2-5.2-4.9ZM1105.7,108.6c-2-2.4-3.7-4.7-3.7-5s2.4-.6,5.3-.6c4.9,0,5.6.3,9.5,4.3,2.3,2.4,4.2,4.6,4.2,5s-2.6.7-5.8.7c-5.6,0-5.9-.1-9.5-4.4ZM503.1,156.3c-2.2-2.6-4.1-5-4.1-5.3,0-.3,1.7-1.1,3.7-1.8l3.8-1.2,4.8,5.2c4.8,5.2,4.8,5.2,2.5,6.5-4.1,2.3-6.4,1.6-10.7-3.4ZM547.7,113.7c-4.7-4.1-5.3-5.8-4.1-10.5.9-3.3,2.4-2.8,7.3,2.1,4.1,4.1,4.3,4.6,3.6,8.5-.4,2.2-1,4.1-1.4,4.1-.4,0-2.8-1.9-5.4-4.2ZM543.7,123.7c-2.6-2.3-4.8-4.8-4.8-5.4,0-2.1,2.3-6.2,3.4-6.2.6,0,3.1,1.9,5.5,4.2,4.3,4.1,4.3,4.2,3.2,8-.6,2.1-1.5,3.8-1.9,3.8-.4,0-2.9-2-5.5-4.3ZM686.1,121.6c-4.3-4.2-4.3-4.4-3.2-8,.7-2,1.6-3.6,2-3.6s3,2,5.7,4.4l4.8,4.4-1.7,3.6c-1,2-2.1,3.6-2.5,3.6-.4,0-2.7-2-5.2-4.4ZM698.6,90.8l-4.8-4.2,1.8-3.8c1-2.1,2-3.8,2.4-3.8s2.3,1.4,4.3,3.1c3.4,2.8,3.7,3.5,3.7,8s-1,6.3-7.4.7ZM972.2,67.7c-2.3-2.4-3.9-4.6-3.5-5,.4-.4,2.8-.7,5.3-.7,4.2,0,5.1.4,9.6,5l4.9,5h-6c-5.8,0-6.2-.2-10.2-4.3ZM958.5,67.9c-2.5-2.3-4.5-4.5-4.5-5s2.6-.9,5.8-.9c5.4,0,5.9.2,8.8,3.8q5.1,6.2-.5,6.2c-4.6,0-5.5-.4-9.6-4.1ZM820.1,110.1c-4-4.7-4.1-5-2.2-6,4.1-2.2,7.4-1.2,11.5,3.6,2.2,2.5,3.5,4.9,3,5.4-.5.4-2.5,1.1-4.5,1.4-3.4.6-3.8.3-7.8-4.3ZM179.3,81.6c-4.5-4.3-4.6-4.5-3.3-7.5.7-1.7,1.8-3.1,2.4-3.1.6,0,3.3,1.9,6,4.3l4.8,4.2-1.8,3.2c-1,1.8-2.2,3.2-2.6,3.2-.4,0-2.9-1.9-5.4-4.3ZM981,154.9c-4.2-5-4.3-5.1-2.2-6.6,1.2-.8,2.1-2.2,2.1-3,0-2.1,1.1-1.5,5.2,3.1,3.9,4.5,5.3,8.2,3.7,10.2-2,2.4-4.5,1.3-8.8-3.8ZM842.2,151.9c-2.3-2.8-4.2-5.6-4.2-6.3,0-1.5,4.2-5.6,5.8-5.6s1.8,2.7,2.5,9c.1.9,1.5,1.6,3.4,1.8,4.1.4,4.2,2.6.3,4.7-1.6.8-3.1,1.5-3.2,1.5-.2,0-2.2-2.3-4.6-5.1ZM461.6,81.1c-4.8-4.9-4.8-4.9-3.1-7.5.9-1.4,2.1-2.6,2.6-2.6s3.1,2.1,5.8,4.6l4.9,4.6-2.1,2.9c-1.2,1.6-2.4,2.9-2.8,2.9s-2.8-2.2-5.4-4.9ZM819.6,158.4c-2.1-2.4-3.7-4.6-3.5-4.8.2-.2,2.5-.7,5-1.1,4.5-.7,4.7-.6,8.2,3.6,2,2.4,3.7,4.6,3.7,5,0,.7-6.3,2-8.5,1.8-.6,0-2.8-2.1-4.9-4.5ZM475.6,67.3c-2.5-2.6-4.1-5.2-3.7-5.6s2.4-1,4.3-1.4c3.2-.5,3.9-.1,8.1,4.3,4.8,5.1,4.8,5.6-1,6.8-2.9.6-3.6.2-7.7-4.1ZM1052.8,108.6c-2.1-2.3-3.4-4.5-3.1-4.9.4-.4,2.7-.6,5.2-.6,4.3,0,4.9.4,8.9,5l4.3,5h-5.8c-5.5-.2-6-.4-9.6-4.4ZM1038,74.3c-3.2-2.2-6-5.1-6-6.1s4.3-5.2,5.3-5.2,7.8,7.5,9.1,9.7c1.8,3.2-4.3,4.4-8.3,1.6ZM44.7,151.3c-4.3-4.4-4.8-5.3-4.8-9.5s.3-4.7.8-4.7,2.7,1.7,5.1,3.8c4.2,3.7,4.3,3.8,4,9.5l-.3,5.8-4.8-4.8ZM606.6,151.1c-4.8-4.9-4.9-5.1-4.2-9.5.4-2.5,1-4.6,1.4-4.6s2.4,1.7,4.5,3.9c3.6,3.6,3.7,4.1,3.5,9.5l-.3,5.7-4.9-5ZM955.2,77.9c-4-3.8-4.2-4.3-4.2-9.7v-5.7l5,4.9c4.6,4.5,5,5.3,5,9.7s-.3,4.8-.8,4.8c-.4,0-2.7-1.8-5-4ZM885.7,151.9c-4.7-4.3-4.8-4.5-4.5-9.7l.3-5.3,4.8,4.3c4.8,4.2,4.8,4.3,4.5,9.7l-.3,5.4-4.8-4.4ZM44.2,123.2c-4-3.5-4.3-4-4.2-9,0-2.9.3-5.2.6-5.2s2.6,1.9,5,4.2c4.1,3.8,4.4,4.6,4.4,9s-.3,4.8-.8,4.8-2.7-1.7-5-3.8ZM822.2,64.2l-4.2-5,4.3-.7c2.4-.4,5-.4,5.8,0,1.7.7,7.3,8.5,6.6,9.2-.3.3-2.2.7-4.4,1-3.7.5-4.1.3-8.1-4.5ZM749.2,151.7c-3.7-3.8-4.2-4.8-4.2-9s.3-4.7.8-4.7c.4,0,2.7,1.8,5,3.9,3.9,3.6,4.2,4.2,4.2,9s-.4,5.1-.8,5.1-2.7-1.9-5-4.3ZM1063.4,158.5c-2-2.5-3.5-4.7-3.3-5,.2-.2,2.2-.7,4.5-1.1,3.9-.6,4.2-.5,8.2,4.3l4.2,5-3.1.6c-5.6,1.1-6.7.7-10.4-3.9ZM327.7,151.2c-3.3-3.4-3.7-4.4-3.7-9s.2-5.2.6-5.2,2.3,1.4,4.5,3.2c3.8,3,3.9,3.4,3.9,9s-.4,5.8-.8,5.8-2.5-1.7-4.5-3.8ZM985.1,66.4c-3.6-4.1-4.1-5.2-4.1-9.5s.3-4.9.6-4.9,2.6,2.1,5,4.6c3.8,4,4.4,5.2,4.4,8.9s-.4,4.6-.9,4.9c-.5.3-2.8-1.5-5-4.1ZM44.7,137.4c-4.6-3.7-4.7-4.1-4.8-9.1,0-2.9.4-5.2.8-5.2s2.7,2,5.1,4.4c4,4,4.2,4.7,4,9.1l-.3,4.8-4.8-3.9ZM955.2,104.9c-4.1-3.9-4.3-4.3-4-9.2l.3-5.2,4.8,4.4c4.4,4.1,4.8,4.7,4.8,9.2s-.3,4.9-.8,4.9c-.4,0-2.7-1.9-5.1-4.1ZM491.5,158c-5.1-5.1-4.8-6,1.8-6s4.2,1,7.6,4.5c2.4,2.5,4.2,4.6,4,4.9s-2.3.6-4.6.9c-3.9.5-4.4.2-8.8-4.2ZM1099.5,112.1c-4.3-1-7.2-2.7-8.9-5.3-2.4-3.4-2-3.8,3.4-3.8s5.3.3,8.8,4.1c2.1,2.3,3.9,4.5,4.1,5,.4,1-3,1-7.3,0ZM265.9,110.7c-4.3-4-4.6-4.5-4.1-8.5.2-2.3.8-4.2,1.1-4.2s2.9,2.2,5.5,4.9c4.5,4.5,4.8,5.2,4.2,8.5-.4,2-1,3.6-1.4,3.5-.4,0-2.8-1.9-5.3-4.2ZM885.2,137.7c-3.7-3.8-4.2-4.8-4.2-9s.3-4.7.7-4.7,2.6,1.9,5,4.2c3.9,3.8,4.3,4.7,4.3,9s-.4,4.8-.8,4.8-2.7-1.9-5-4.3ZM44.2,34.7c-3.7-3.8-4.2-4.8-4.2-9s.3-4.7.7-4.7,2.6,1.9,5,4.2c3.9,3.8,4.3,4.7,4.3,9s-.4,4.8-.8,4.8-2.7-1.9-5-4.3ZM885.2,97.7c-3.7-3.8-4.2-4.8-4.2-9s.3-4.7.7-4.7,2.6,1.9,5,4.2c3.9,3.8,4.3,4.7,4.3,9s-.4,4.8-.8,4.8-2.7-1.9-5-4.3ZM44.2,109.2c-3.9-3.4-4.3-4.1-4.2-8.5,0-2.6.3-4.8.7-4.8s2.6,1.6,5,3.6c4.1,3.3,4.4,3.9,4.4,8.5s-.3,4.9-.8,4.9-2.7-1.7-5-3.8ZM262.2,120.6c-4-4.1-4.2-4.6-3.1-7.5.6-1.7,1.6-3.1,2.3-3.1s3.1,1.9,5.4,4.3c4,4.1,4.1,4.4,3,7.5-.7,1.8-1.7,3.2-2.3,3.2s-2.9-2-5.3-4.4ZM606.8,137.4c-4.3-3.6-4.7-4.3-4.8-8.6,0-2.6.3-4.9.8-5.2.5-.3,2.7,1.4,5.1,3.8,3.9,4,4.2,4.6,3.9,9.1l-.3,4.8-4.7-3.9ZM749.7,99.1c-4.4-4.1-4.8-4.7-4.8-9.2s.4-4.9.8-4.9,2.7,2,5.1,4.4c4,4.1,4.2,4.6,4,9.2l-.3,4.9-4.8-4.4ZM955.2,91.4c-4.1-3.4-4.2-3.8-4.2-9.2v-5.6l5,4.9c4.5,4.4,5,5.4,5,9.2s-.3,4.3-.8,4.3c-.4,0-2.7-1.6-5-3.6ZM885.2,110.9c-3.8-3.6-4.2-4.5-4.2-8.5s.3-4.5.7-4.5,2.6,1.6,5,3.6c4.1,3.3,4.3,3.9,4.3,8.5s-.3,4.9-.8,4.9c-.4,0-2.7-1.8-5-4ZM606.7,123.9c-4.5-3.8-4.8-4.4-4.8-9s.4-4.9.8-4.9,2.7,2,5.1,4.4c4,4,4.2,4.7,4,9l-.3,4.6-4.8-4.1ZM985.2,144.9c-3.9-4.1-4.2-4.8-4.2-9.7v-5.3l2.9,2.1c4.7,3.4,6.3,6.6,5.9,12.3l-.3,5.1-4.2-4.4ZM885.2,124.2c-3.9-3.4-4.2-4.1-4.2-8.5s.3-4.7.8-4.7c.4,0,2.7,1.8,5,3.9,3.8,3.5,4.2,4.3,4.2,8.5s-.3,4.6-.8,4.6c-.4,0-2.7-1.7-5-3.8ZM831.6,107.7c-2-2.4-3.6-4.6-3.6-4.9s2-.8,4.5-1.2c4-.6,4.8-.4,6.5,1.6,3.6,4.3,4.1,5.6,2.4,7.2-2.8,2.8-6,1.9-9.9-2.8ZM211.7,157.6c-2.1-2.4-3.8-4.6-3.8-4.8s1.7-.7,3.7-1.1c3.5-.6,4.1-.2,8.5,4.1,2.6,2.6,4.8,5,4.8,5.5s-2.1.8-4.8.8c-4.4,0-5.1-.4-8.5-4.4ZM606.7,97.2c-3.8-3.9-5.6-9.3-4.3-12.8.6-1.4,1.4-1,5.1,2.7,4.1,4,4.5,4.8,4.5,9.2s-.4,4.8-.8,4.8-2.5-1.7-4.5-3.8ZM749.7,59.7c-4.4-3.9-4.8-4.5-4.8-9s.4-4.7.9-4.5c.5.2,2.8,2,5,4.1,3.9,3.6,4.2,4.1,3.9,8.7l-.3,4.9-4.8-4.2ZM971,157.5c-2.4-2.5-4.2-4.6-4-4.8.2-.2,2.1-.8,4-1.4,3.5-1,3.7-1,8.2,4.2,4.4,5,4.5,5.3,2.4,5.9-4.5,1.2-6.4.5-10.7-3.9ZM749.7,85.7c-4.4-3.9-4.8-4.5-4.8-8.9,0-2.6.4-4.8.8-4.8s2.7,2,5.1,4.4c3.9,4,4.2,4.7,4,8.9l-.3,4.6-4.8-4.2ZM749.7,125.3c-4.6-4.3-4.8-4.8-4.5-9.3l.3-4.8,4.8,4.4c4.7,4.2,4.8,4.5,4.5,9.3l-.3,5-4.8-4.5ZM749.2,72.2c-3.9-3.4-4.3-4.1-4.2-8.5,0-2.6.3-4.8.7-4.8s2.6,1.9,5,4.2c3.7,3.7,4.3,4.8,4.3,8.5s-.3,4.3-.8,4.3-2.7-1.7-5-3.8ZM327.7,34.2c-3.2-3.3-3.7-4.4-3.7-8.5s.4-4.7.8-4.7,2.7,2,5.1,4.4c4.1,4.1,4.3,4.6,3.6,8.5-.4,2.2-1,4.1-1.4,4.1s-2.4-1.7-4.4-3.8ZM985.2,52.9c-3.8-3.5-4.2-4.5-4.2-8.4s.3-4.5.7-4.5,2.6,1.6,5,3.6c4,3.3,4.3,3.9,4.2,8,0,2.5-.4,4.6-.8,4.9-.3.2-2.5-1.4-4.8-3.6ZM749.7,112c-4.6-4.3-4.8-4.7-4.5-9.2l.3-4.7,4.8,4.2c4.7,4.1,4.8,4.3,4.5,9.2l-.3,5-4.8-4.5ZM749.7,33.1c-4.3-3.9-4.8-4.8-4.8-8.8s.3-4.4.8-4.3,2.7,1.7,5.1,3.8c4.2,3.6,4.3,3.9,4,8.7l-.3,5-4.8-4.4ZM749.7,138.5c-4.4-4-4.8-4.7-4.8-9s.4-4.5.9-4.3c.5.2,2.8,2,5,4.1,3.9,3.6,4.2,4.1,3.9,8.6l-.3,4.9-4.8-4.3ZM955.2,21.1c-3.8-3.5-4.2-4.3-4.2-8.5s.3-4.6.7-4.6,2.6,1.9,5,4.2c3.7,3.7,4.3,4.8,4.3,8.5s-.3,4.3-.8,4.2c-.4,0-2.7-1.8-5-3.9ZM459.6,91.5c-3.9-3.6-4.7-4.9-4.3-6.7.3-1.2.6-2.8.6-3.5,0-2.1,1.3-1.5,6.2,3,4.3,3.9,4.6,4.5,4.1,8-.3,2.1-.8,3.8-1.1,3.7-.4,0-2.8-2-5.5-4.5ZM549.2,101.7c-3.6-3.7-4.2-4.9-4.2-8.5s.3-4.2.8-4.2c.4,0,2.7,1.8,5,3.9,3.8,3.5,4.2,4.3,4.2,8.5s-.4,4.6-.8,4.6-2.7-1.9-5-4.3ZM44.2,20.9c-3.8-3.6-4.2-4.5-4.2-8.6s.4-4.4.9-4.2c.5.2,2.7,2,5,4.1,3.7,3.3,4.1,4.2,4.1,8.2s-.3,4.5-.8,4.5c-.4,0-2.7-1.8-5-4ZM1110.6,132.5c-3.4-3.1-4.7-4.9-4.2-6,.4-1,1.3-1.5,2.4-1.2,1,.3,3.3.8,5.2,1.2s4.3,1.1,5.2,1.6c1.7.9,1.6,1.1-.3,4.9-1.1,2.2-2.3,3.9-2.8,3.9-.4,0-2.9-2-5.6-4.4ZM327.7,109.6c-3.6-3.2-3.8-3.6-3.5-8.6l.3-5.2,4.2,3.4c4,3.2,4.2,3.7,4.2,8.6,0,2.9-.3,5.2-.7,5.2-.4,0-2.5-1.6-4.6-3.4ZM607.1,84.5c-3.1-2.8-4-4.5-4.6-8.1-1-6.6.5-7.2,5.3-1.9,3.6,3.9,4.2,5.1,4.2,9s-.2,4.5-.5,4.5-2.2-1.6-4.4-3.5ZM749.2,45.7c-3.4-3.4-4.2-5-4.2-7.8s.3-3.8.6-4.2c.3-.4,2.6,1,5,3.1,4,3.4,4.3,4.1,4.4,8.5,0,2.6-.3,4.8-.8,4.8s-2.7-1.9-5-4.3ZM1054.6,63.7c-2-2.4-3.6-4.6-3.6-5s2-.6,4.4-.6c3.9,0,4.8.5,8,4,2,2.2,3.4,4.5,3,5-.3.5-2.3,1-4.5,1-3.4,0-4.3-.6-7.4-4.4ZM327.7,136.5c-3.4-3.1-3.8-4-3.8-8.5s.4-5,.8-5,2.5,1.7,4.5,3.8c3.2,3.3,3.7,4.4,3.7,8.5s-.3,4.7-.8,4.7c-.4,0-2.4-1.6-4.5-3.5ZM639.2,54.3c-1.6-1.6-3.6-4.6-4.5-6.8-.8-2.2-2.5-6.4-3.6-9.4-1.2-3-1.9-5.6-1.7-5.9,1.4-1.5,10,12.3,11,17.8.2,1,.9,2.8,1.5,4,1.8,3.3.5,3.4-2.8.3ZM328.2,123.4c-3.9-3.3-4.2-3.9-4.2-8.4s.3-4.9.8-4.9c.4,0,2.5,1.6,4.6,3.4,3.6,3.2,3.8,3.7,3.5,8.4l-.3,5.1-4.2-3.5ZM606.7,110.2c-3.8-4.1-4.8-5.8-4.8-8.6s.4-3.7.8-4c.5-.3,2.7,1.4,5.1,3.8,3.9,4,4.2,4.6,3.9,9.1l-.3,4.8-4.8-5.1ZM407.7,20.4c-2.7-1.9-4.6-4.1-4.4-4.7.6-1.8,15.2-1.6,15.2.2s-4.6,8.1-5.5,8.1c-.3,0-2.7-1.6-5.3-3.5ZM1119.2,107.7c-3.2-3.2-4.2-5.1-4.2-7.5,0-4.3,2.1-4.2,7,.5,3.6,3.4,3.9,4.1,3.3,7.5-.3,2.1-.9,3.8-1.3,3.8s-2.6-1.9-4.9-4.3ZM176.7,91.2c-2.7-2.8-3.7-4.7-3.7-6.9s.4-3.4.9-3.7c.5-.3,3,1.4,5.6,3.7,4.3,3.9,4.7,4.6,4,7.5-.9,4.2-2.3,4.1-6.8-.6ZM326.2,46.7c-1.7-1.8-2.2-3.5-2.2-7.6v-5.3l4.2,3.5c6,4.9,6.5,6,4.2,9.1-2.4,3.2-3.5,3.3-6.2.4ZM954.6,116.7c-2.3-1.9-3-3.3-3.4-7.7l-.5-5.4,5.2,4.3c4.3,3.6,5.2,4.8,5.2,7.7,0,4.2-2.1,4.5-6.4,1.1ZM749.2,19.7c-3.4-3.5-4.2-5-4.2-8s.2-3.7.6-3.7,2.6,1.7,5,3.7c4,3.3,4.4,4.1,4.4,8s-.4,4.3-.8,4.3-2.7-1.9-5-4.3ZM1120.3,97.2c-3.4-3-4.3-4.7-4.9-8.5-.4-2.7-.3-4.7.2-4.7s2.8,1.8,5.1,4c3.7,3.6,4.2,4.6,4.2,8.5s-.1,4.4-.2,4.4c-.1,0-2.1-1.7-4.4-3.8ZM42.2,46.7c-1.6-1.7-2.2-3.6-2.2-7s.3-4.7.8-4.7,2.8,1.8,5.2,3.9c4.4,3.9,4.5,4,3,6.7-2,3.6-4,3.9-6.8,1ZM885.3,84.7c-3.6-3.3-4.2-4.4-4.5-8.7-.2-2.7,0-4.9.3-4.7.3.1,2.5,2,4.8,4,3.9,3.6,4.2,4.1,3.9,8.5l-.3,4.7-4.2-3.8ZM328.2,20.9c-3.8-3.5-4.2-4.5-4.2-8.4s.4-4.5.8-4.5,2.4,1.7,4.4,3.8c2.8,2.9,3.7,4.7,3.9,8,.2,2.3,0,4.4-.2,4.7-.2.3-2.4-1.3-4.7-3.5ZM267.7,99.7c-4.3-3.7-4.8-4.6-4.8-8.4,0-2.3.2-4.2.4-4.2s2.5,1.9,5.1,4.3c4.3,4,4.7,4.6,4.4,8.4l-.3,4.1-4.8-4.2ZM1050.6,157.4l-3.9-4.4h4.4c4.9,0,5.1.1,9.8,5.3l3.4,3.7h-4.9c-4.5-.2-5.3-.5-8.8-4.6ZM810.3,160.5c-1.2-.8-3.1-2.9-4.3-4.5l-2.1-3h4.5c3.9,0,5,.5,8.1,3.8,1.9,2.1,3.6,4.1,3.6,4.5,0,1.4-7.5.8-9.7-.8ZM207.4,162.3c-2-.3-4.6-1.9-7.5-4.8l-4.4-4.5h4.5c4,0,5,.5,8.7,4.3,4.4,4.4,5.1,5.8,3,5.5-.7,0-2.6-.3-4.3-.5ZM959.7,158.2c-2-2.1-3.7-4.1-3.7-4.6s2.1-.6,4.6-.4c4.1.3,5.1.8,8.1,4.5l3.5,4.2h-4.4c-3.8,0-4.9-.5-8.1-3.8ZM480,157.5l-4.4-4.5h4.5c4,0,5,.5,8.9,4.5l4.4,4.5h-4.5c-4,0-5-.5-8.9-4.5ZM549.4,89.2c-3.4-3.1-4.2-4.5-4.6-8.5,0-.4,0-.8-.1-1.1-.2-1.7-.3-2.6,0-2.8.4-.2,1.7.9,4.6,3.4.5.4.9.8,1.5,1.3,2.1,1.8,5,11.5,3.4,11.4-.3,0-2.5-1.7-4.7-3.8ZM1067,109.4c-5.6-5-5.3-6.5,1.2-6.2,5.8.3,7.5,2,6.5,6s-3.3,4.1-7.7.1ZM177.7,103.3c-2.6-2.6-3.9-5-4.3-8-.4-2.4-.3-4.2.2-4.2s2.5,1.7,4.5,3.8c2.5,2.6,3.8,5,4.2,8,.3,2.3.3,4.2-.2,4.2s-2.4-1.7-4.5-3.8ZM487.1,65.3c-2.2-2.6-3.6-4.9-3.1-5.1,3-1,15,6.1,15,8.9s-1.8.9-3.9.9c-3.4,0-4.4-.6-8-4.8ZM460.8,103.7c-2.7-2.3-4-4.4-4.7-7.6-.5-2.5-.8-4.7-.5-5,.3-.3,2.5,1.6,5,4.1,3.9,3.9,4.5,5,4.2,8.1l-.3,3.6-3.7-3.2ZM805.4,76c-2-2.1-2.1-2.3-.4-3.9,1-1,2-2.4,2.3-3.1.4-1,1.8-.1,4.8,2.8,2.4,2.3,4,4.5,3.7,4.8-.3.3-2.3.8-4.5,1.1-3,.4-4.3,0-6-1.7ZM361.2,78.7c-6.7-8.3-5.3-10.2,3-4.2,5.1,3.8,5.7,5.3,3,7.8-1.7,1.5-2,1.3-6-3.6ZM794.1,74.8c-2.2-2.3-4.1-4.5-4.1-4.9,0-1.7,10.1,2.2,12.4,4.8,3.3,3.8,3.2,4.4-.8,4.4s-4.3-.9-7.5-4.2ZM210.8,69.3c-2.5-.4-9.7-7.7-8.6-8.8,1-1,7.6,1.7,11.1,4.6,5.6,4.6,5.1,5.4-2.5,4.2ZM1118.9,83.7c-2.7-2.4-3.9-4.5-4.6-8-.6-2.6-.7-4.8-.3-4.8,1.1,0,6.7,6.3,7.5,8.5,1.7,4.4,2.4,7.5,1.7,7.5-.4,0-2.3-1.5-4.3-3.2ZM701.7,79.2c-1.5-1.6-2.3-2.4-2.5-3.3-.2-1,.3-2.1,1.2-4.4h0c1.5-3.7,1.6-3.7,3.5-2,1.5,1.4,2,3.1,2,7.1s-.4,5.4-.8,5.4-2-1.3-3.5-2.8ZM267.3,87.2c-3.4-3-4.3-4.5-4.9-8.2l-.7-4.5,4.2,4c2.5,2.4,4.6,5.5,5.2,7.9.6,2.1.9,4,.7,4.2-.2.2-2.2-1.3-4.5-3.3ZM193.5,159.6c-1.6-.7-4.3-2.7-5.9-4.5l-2.9-3.1h2.4c4.5,0,6.7,1.2,9.9,5.1,2.6,3.2,2.8,3.9,1.3,3.9-1,0-3.1-.6-4.8-1.4ZM1035.3,113.8c-3.7-3.8-6.4-8.7-5.6-10,.9-1.5,10.3,8.4,10.3,11s-1,2.9-4.7-1ZM908,66.5c0-4.3.1-4.5,3-4.5s3,.2,3,4.5-.1,4.5-3,4.5-3-.2-3-4.5ZM883.9,70.8c-3.2-2.9-6.7-10.3-5.4-11.6.8-.8,6.6,6.1,8.1,9.7,2.1,5.1,1.4,5.6-2.7,1.9ZM1045.5,158.9c-1.7-.5-4.6-2.5-6.5-4.5l-3.5-3.7,3.4.6c1.8.3,3.7.6,4.2.6s2.2,1.8,4,4c3.3,4.2,3.3,4.3-1.5,2.9ZM475.4,159.7c-3.3-1-11.3-7.2-10.4-8.1,1.3-1.3,7.8,1.6,10.9,4.9,1.9,1.9,3.2,3.6,3,3.8s-1.8,0-3.5-.6ZM1082.5,107.7c-7.9-2.3-8.8-4.6-1.9-4.6s5,.5,6.5,2.2c3.3,4,2.5,4.4-4.6,2.4ZM954.5,160c-1.1-.5-3.6-2.5-5.5-4.6l-3.5-3.7,3.5.7c4.2.8,12.9,8.7,9.5,8.5-1.1,0-2.9-.4-4-.9ZM951,25c0-2.2.3-4,.6-4,.9,0,8.4,6.4,8.4,7.2s-2,.8-4.5.8h-4.5v-4ZM628.8,29.3c-2.6-2.7-6.4-10.9-5.6-11.8.9-.9,6.5,6.2,8.1,10.3,1.8,4.9,1.2,5.4-2.5,1.5ZM809.3,121.8c-2.5-1.2-4.9-6.1-3.8-7.8.5-.8,1.9,0,4.2,2.2,4.7,4.5,5.9,6.9,3.6,6.8-1,0-2.8-.5-4-1.1ZM77.5,78.6c-2.6-3.1-4.5-5.9-4.2-6.2.3-.3,2.7,1.1,5.3,3.3,2.6,2.1,5.2,4.2,5.8,4.6.7.5.6,1.2-.5,2.3-1.5,1.5-2,1.2-6.4-4ZM645.8,68.8c-3.3-4.2-6.2-9.7-5.5-10.4.2-.2,1.4.4,2.7,1.3,2.2,1.5,7.6,12.1,6.7,13-.2.2-2-1.5-3.8-3.9ZM652.3,84.7c-1.7-1.8-3.8-5.2-4.7-7.6l-1.7-4.4,2.3,1.5c2.2,1.4,8.5,12.5,7.6,13.4-.2.2-1.8-1-3.5-2.8ZM546.3,75c-2.7-2.4-6.3-8.6-6.3-10.8s1.4.8,3.1,2.4c2.9,2.7,7.5,10.2,6.7,11-.2.2-1.8-1-3.5-2.6ZM263.8,73.7c-2.6-2.2-5.8-7.6-5.8-9.8s3.9,2.1,6.7,6.9c3,5.1,2.7,5.9-.9,2.9ZM800.7,156.9c-6.8-4.5-7.6-6.3-2-4.8,1.7.5,4.3,2.4,5.8,4.4,3.3,4.3,2.3,4.4-3.8.4ZM604.2,68.7c-2.2-2.3-2.9-7.1-1.3-8.1.8-.5,1.7,1.2,4.8,9.2.8,2-1.2,1.4-3.5-1.1ZM835.1,63.9c-1.8-2.2-2.8-3.9-2.2-3.9,1.8,0,6.9,3.8,8.1,6.1,1.9,3.6-2.3,2-5.9-2.1ZM1114.2,68.7c-2.9-3-5.9-8.7-4.6-8.7s8.8,10.9,8.1,11.6c-.2.2-1.8-1.1-3.5-2.8ZM40,52c0-4.2.9-5,3-2.5,1,1.2,1,2.1.1,4-1.7,3.7-3.2,3-3.2-1.5ZM180.3,154.1c-4.8-3-6.6-5.7-3-4.6,2.3.7,8.5,6.1,7.7,6.8-.2.2-2.4-.8-4.7-2.2ZM1029.6,75.1c-.7-1.1.3-4.1,1.4-4.1s4.1,3.4,4.1,4.3-4.8.8-5.4-.2ZM463.8,112.3c-.8-1-2.1-2.8-2.7-4.1-1.1-2.2-1.1-2.2.8-1.2,2.1,1.1,5.1,4.9,5.1,6.3s-1.6.9-3.2-1ZM324,51.4c0-3.7,1.4-4.2,3.4-1.2.7,1.1.5,2-.6,3.2-2.3,2.3-2.8,2-2.8-2ZM181.9,112.7c-1.9-1.4-5.4-6.7-4.5-6.7s1.8,1,3.2,2.2c4.4,3.8,5.6,7.8,1.3,4.5ZM1068,64.5c-1.8-1.9-3.2-3.7-2.9-4,.7-.6,7.9,5.4,7.9,6.5,0,1.8-1.6.9-5-2.6ZM459.4,152.4h-.2c-3-2.1-4.2-2.9-4-3.2,0-.2.6-.2,1.5-.2h0c2.3,0,8.1,4.4,7.1,5.4-.3.3-2.4-.6-4.5-2ZM788.2,74.8c-2.3-1.1-3.3-5.8-1.2-5.8s1,.5,1,1.2,1,2.2,2.2,3.5c2.3,2.5,1.7,2.8-1.9,1.1ZM704,67.1c-1.3-.8-1.2-1.4.2-4.2l1.6-3.3v4.2c0,2.3,0,4.2-.1,4.2-.1,0-.9-.4-1.7-.9ZM1030.6,151.4c-2.1-1.4-3.6-2.8-3.3-3,.6-.6,6.3,2.3,7.2,3.7,1.3,2.1-.2,1.9-3.9-.7ZM942.5,153.5c-1.6-1.3-2.6-2.7-2.2-3.1.4-.4,1.9.5,3.4,1.9,3.4,3.5,2.6,4.2-1.2,1.2ZM840.7,102.3c-1.2-1.1-.7-2.3.8-2.3s1.5.7,1.5,1.5c0,1.6-1.2,2-2.3.8ZM654.1,92.2c-.7-1.3-1.1-2.5-.8-2.8.8-.8,2.9,2.5,2.5,3.8-.3.8-.9.4-1.7-1ZM982.2,128.3c-.7-.2-1.2-1.2-1.2-2.1,0-1.5.2-1.5,1.7,0,1.8,1.8,1.6,2.8-.4,2Z"/>
  <path class="st0" d="M798.5,148.6c-12.3-3.1-23.1-12.1-26-21.9-3.6-12.1-.9-24.3,7.1-32.1,8.4-8.2,26.7-13.5,59.9-17.4l6-.7.3-4.4c.8-11.8-14.3-20.2-29.1-16.1-4.3,1.2-10.2,6-12.2,10-1.6,3.1,0,3.2-19.7-1.1-5.9-1.3-10.8-2.7-10.8-3.2,0-1.6,5.3-11.3,8.2-15,3.5-4.5,12.3-10.5,19-12.9,7.2-2.6,21.9-4.3,31.4-3.5,14.1,1.2,28.8,7.8,34.9,15.8,4.7,6.1,8.6,16,9.7,24.3.6,4.6.9,22.2.8,42l-.3,34-14.2.3-14.2.3-.7-4.3c-1.3-8.4-1.8-10.8-2.1-10.8s-2.6,2.4-5.4,5.3c-10.3,10.9-26.7,15.2-42.6,11.3ZM829.1,127c5-1.4,11.6-7.3,14.5-13.1,1.9-3.7,2.5-6.4,2.5-11.5v-6.6l-2.8.5c-1.5.3-6.1,1-10.2,1.6-11.7,1.7-17.1,3.1-22.1,5.6-5.7,2.9-7.9,6.1-7.9,11.7s.5,4.9,3.2,7.4c1.8,1.7,4.6,3.5,6.2,4.1,3.9,1.4,12.1,1.5,16.6.2ZM948,148.6c-12.8-2.3-22-8.8-27.1-19.1-2.8-5.6-3.3-7.9-4.1-19.2-.5-7-.7-20.9-.3-30.8s.3-18.8,0-19.8c-.6-1.5-2-1.8-10.1-1.8h-9.4v-25h18.9l.3-13.8.3-13.8,15.8-.3,15.8-.3v28.1h28.9l.3,12.6c.2,6.9.1,12.8-.1,13-.2.2-6.9.4-14.8.4h-14.3v26c0,28.7.3,30.5,5.9,35.3,2.7,2.2,4.2,2.7,9,2.7s7.2-.5,9-1.1c4.6-1.6,5-.4,5,12.8v11.1s-2.7,1.1-2.7,1.1c-3.7,1.5-12.8,3.1-16.6,3-1.7,0-6-.6-9.6-1.3ZM1040.5,148.4c-11.1-2.3-22.8-8.6-30.6-16.3-26.4-26.4-20.8-74.2,11-93.1,18.6-11,45.3-11.4,63.6-1,10.8,6.1,19.8,17.5,24.2,30.5,2.3,6.8,2.7,9.8,2.8,19.5v11.5c0,0-31.4.2-31.4.2-17.3,0-36.8.2-43.3.3h-11.8c0,.1.7,3.4.7,3.4,2.7,12.7,13.7,20.8,28.3,21,11,.2,19.9-4.1,23.8-11.5l1.4-2.7,13.3,3.5c7.3,1.9,13.7,3.9,14.2,4.4,1.5,1.5-3.9,9.3-10.9,15.9-14.4,13.5-34.4,18.8-55,14.6ZM1080.1,75c-.8-8.2-7.3-15.6-16.2-18.5-7.9-2.6-20.5-1.8-25.8,1.8-5.6,3.7-9,7.5-11.2,12.5-3.9,8.8-5.6,8.2,25.8,7.9l27.8-.3-.3-3.5ZM180.2,146.4c-4.6-1.4-10.2-3.4-12.5-4.6-5.5-2.8-19.5-17-22.9-23.4-6.8-12.8-8.8-31-4.8-45.5,5.1-18.8,20.1-34,38.9-39.8,22.7-6.9,48.3-1.1,64,14.6,18,18,21.9,44.8,10.3,70.1-5.4,11.8-22.8,25.5-37.3,29.3-10,2.6-25.5,2.3-35.8-.7ZM210,120.4c4.4-1.8,11.6-8.7,14-13.4,2.7-5.3,4.3-14.5,3.6-20.9-1.1-9.9-4.2-16.6-10.1-22-7.4-6.8-16-9-26.7-6.8-5.3,1.1-14.9,9.3-17.7,15.2-6.2,13.1-3.8,31.9,5.2,41.3,7.9,8.3,21,11,31.7,6.5ZM461.8,146.7c-10.1-3.1-17.8-7.8-24.9-15.5-10.6-11.2-15.5-22.6-16.5-38.1-2-29.7,17.3-55,46.5-61.1,8.3-1.7,22.3-1.8,29.2-.1,3,.7,9.3,3.1,14,5.3,15.4,7.3,26.4,21.4,30.6,39.3,2.9,12.5.4,30.9-5.9,43.1-2.6,5-14.2,16.7-20.1,20.3-10.7,6.4-17.6,8.3-32.1,8.8-11.4.3-13.9,0-20.7-2ZM493.8,119.8c5.4-2.7,10.7-8.5,13.6-14.6,1.8-3.8,2.1-6.5,2.1-15.1s-.2-10.9-3.3-17.2c-5.3-10.8-13.7-16-26.1-15.9-11.1,0-20.6,6.3-25.5,17.1-3.1,6.6-3,22.2.2,30.2,2.3,5.8,8.5,12.9,13.4,15.5,7.4,3.9,18,3.9,25.6.2ZM4.7,146.4c-.4-.4-.7-32.6-.7-71.5V4h33v30c0,18.2.4,30,.9,30,.9,0,7.6-8,24.2-29,4.6-5.8,10.6-13.4,13.4-17,2.8-3.6,6.4-8.2,7.9-10.2l2.8-3.8h18.4c10.5,0,18.4.4,18.4.9s-5.5,7.6-12.3,15.8c-14.5,17.5-36.2,44.5-39.5,49.1l-2.3,3.3,2.5,3.3c1.4,1.8,7,8.7,12.4,15.3,21.8,26.6,42.5,52.5,43,53.9.5,1.2-2.4,1.4-18.5,1.4h-19.1l-17.8-22.2c-9.8-12.2-21.1-26.4-25.1-31.5-4.1-5.1-7.8-9.2-8.3-9.2s-1,13.5-1.2,31.2l-.3,31.2-15.6.3c-8.6.2-15.9,0-16.2-.4ZM288,75.5V4l16.2.3,16.2.3.5,30,.5,30,10.2-12.5c5.6-6.9,16.5-20.5,24.2-30.2l14-17.8h18.6c11.4,0,18.5.4,18.3,1-.2.5-7.1,9.2-15.5,19.2-32.5,39.3-39.2,48.2-38,49.9.6.9,4.1,5.3,7.7,9.7,3.6,4.4,9.2,11.5,12.5,15.7,3.3,4.2,9.5,11.9,13.7,17.1,4.2,5.2,9,11.1,10.5,13.1,1.5,2,4.9,6.4,7.5,9.7s4.8,6.3,4.8,6.8-8.5.8-18.9.8h-18.9l-2.9-3.3c-3.3-3.8-2.8-3.2-27-34.2-18.5-23.8-20.3-25.9-21.3-24.9-.3.3-.5,14.3-.5,31.2v30.7l-16.2.3-16.2.3v-71.5ZM567,75.5V4h23.5c21.5,0,23.6.1,24.2,1.8,1,2.9,12.4,30.5,14.4,35,1,2.3,1.9,4.5,1.9,4.9s1.7,4.6,3.9,9.3c2.1,4.7,5.8,13.3,8.1,19.1,6.8,16.7,11.2,26,12.5,26s1.8-.7,11.5-25c4.3-10.7,10.5-25.8,13.7-33.5,3.2-7.7,8.1-19.3,10.8-25.7l4.9-11.7h22.8s22.8,0,22.8,0l-.2,71.2-.3,71.2-16.3.3-16.3.3.3-49.8c.4-55.4.3-56.1-5.6-41.8-1.8,4.4-5.2,12.5-7.5,18-2.3,5.5-6.2,15-8.7,21-2.5,6-5.9,14.1-7.5,18-1.6,3.9-5.2,12.6-8,19.5-2.8,6.9-5.5,13.1-6.1,13.8-.7.9-4.3,1.2-11.2,1.2h-10.2l-1.8-3.8c-2.2-4.5-20.6-48-32.1-75.8-5.2-12.5-8.9-20.1-9.9-20.3-1.4-.3-1.6,4.9-1.6,49.8v50.1h-32v-71.5Z"/>
</svg>