<?xml version="1.0" encoding="UTF-8"?>
<svg id="Layer_1" xmlns="http://www.w3.org/2000/svg" version="1.1" xmlns:xlink="http://www.w3.org/1999/xlink" viewBox="0 0 1296.8 1266.5">
  <!-- Generator: Adobe Illustrator 29.4.0, SVG Export Plug-In . SVG Version: 2.1.0 Build 152)  -->
  <defs>
    <style>
      .st0 {
        fill: url(#linear-gradient2);
      }

      .st1 {
        fill: #cebee1;
      }

      .st2 {
        fill: #36e0e2;
      }

      .st3 {
        fill: #56337b;
      }

      .st4 {
        fill: #240a35;
      }

      .st5 {
        fill: url(#linear-gradient1);
      }

      .st6 {
        fill: #2eb3ba;
      }

      .st7 {
        fill: #726ca1;
      }

      .st8 {
        fill: #1b969c;
      }

      .st9 {
        fill: #26cacc;
      }

      .st10 {
        fill: #393a78;
      }

      .st11 {
        fill: #dacde4;
      }

      .st12 {
        fill: #1d246a;
      }

      .st13 {
        fill: url(#linear-gradient3);
      }

      .st14 {
        fill: #b3588f;
      }

      .st15 {
        fill: #fefdfc;
      }

      .st16 {
        fill: #ee8fba;
      }

      .st17 {
        fill: #ee9cc5;
      }

      .st18 {
        fill: url(#linear-gradient);
      }
    </style>
    <linearGradient id="linear-gradient" x1="314.8" y1="1014.4" x2="385.9" y2="765.6" gradientTransform="translate(0 1364.4) scale(1 -1)" gradientUnits="userSpaceOnUse">
      <stop offset="0" stop-color="#20cdc8"/>
      <stop offset="1" stop-color="#77b8da"/>
    </linearGradient>
    <linearGradient id="linear-gradient1" x1="974.2" y1="1022.5" x2="914" y2="799.3" gradientTransform="translate(0 1364.4) scale(1 -1)" gradientUnits="userSpaceOnUse">
      <stop offset="0" stop-color="#22cdc9"/>
      <stop offset="1" stop-color="#62b8d2"/>
    </linearGradient>
    <linearGradient id="linear-gradient2" x1="985.9" y1="965.7" x2="899.2" y2="688.4" gradientTransform="translate(0 1364.4) scale(1 -1)" gradientUnits="userSpaceOnUse">
      <stop offset="0" stop-color="#1a8893"/>
      <stop offset="1" stop-color="#38789a"/>
    </linearGradient>
    <linearGradient id="linear-gradient3" x1="307.9" y1="959.7" x2="394" y2="709.6" gradientTransform="translate(0 1364.4) scale(1 -1)" gradientUnits="userSpaceOnUse">
      <stop offset="0" stop-color="#178692"/>
      <stop offset="1" stop-color="#3c7e9c"/>
    </linearGradient>
  </defs>
  <path class="st12" d="M1295.4,837.3c.4,7.4.5,14.7.3,22-1.4,42.5-14.2,83.9-35.5,120.6-12,20.8-18.3,33.3-33.7,52.4-112.8,140.2-293.7,208.7-468.1,228.1h-.9c-202.1,23.2-438.7-19.7-602.4-146.8-58.3-45-100.8-93.4-130.2-160.8C-4.2,886,1.8,843.6.4,773.6c-2-98,.8-176.9,64.7-257.1,12.7-120,52-220.4,132.4-311.8C286.9,101.4,409.5,32.2,544.2,9c29.4-5.1,53.2-6.8,82.7-8.7,12.5-.3,27.7-.4,40.2,0,159.3,5,310.2,72.8,419.6,188.7,69.6,73.6,117.2,165.2,137.6,264.4,2.8,14.4,8.1,46.9,7.6,61.5,34.2,50.1,43.2,71.4,58.7,129l5.3,204.6-5.3-204.6"/>
  <path class="st1" d="M77.9,499c17.1-146.4,90.7-270.4,205.9-361.7C406.9,39.8,564-4.1,719.9,15.2c154.3,18.2,295.1,96.8,391.5,218.5,48.1,61.2,85.1,136,101.8,212.2,4.3,19.5,5.5,34,8.2,53.2-3.4-3.2-9.9-11.3-13.2-15.2-5.3-6.6-10.4-12.3-16.9-17.7-3.8-1.6-5.5-3-9-2.5-1.1,2.9-.8,3.3,0,6.5l-11.4-10.7c1-7-4.9-6.1,3-10-134.3-123.1-332.8-178.2-512.2-179.7-1.6-8.8-5.7-40.4-14-43.6-7.5,3.4-12.4,34.9-14,43.6-183.2,8.9-339.6,46.3-488.3,161.8l-1.1,1.9c-1.6,4.9-3.4,10.2-4.9,15.2-6.1,7-16.4,16.2-23.4,22.6-.5-5.2-.4-7.3-.1-12.5-17.2,15.5-23.1,23.9-38,40.2Z"/>
  <path class="st11" d="M119.4,454.7c-1.9-11.1,9.5-54.6,24.8-54.6,9.3,6.1,3.5,22.8,1.2,31.6l-1.1,1.9c-1.6,4.9-3.4,10.2-4.9,15.2-6.1,7-16.4,16.2-23.4,22.6-.5-5.2-.4-7.3-.1-12.5l3.5-4Z"/>
  <path class="st7" d="M119.4,454.7c7.7-7.2,16.4-15,24.9-21.2-1.6,4.9-3.4,10.2-4.9,15.2-6.1,7-16.4,16.2-23.4,22.6-.5-5.2-.4-7.3-.1-12.5l3.5-4Z"/>
  <path class="st10" d="M1173.9,449.5c5.5,5.1,12.5,11.2,17.4,16.7-3.8-1.6-5.5-3-9-2.5-1.1,2.9-.8,3.3,0,6.5l-11.4-10.7c1-7-4.9-6.1,3-10Z"/>
  <path class="st12" d="M578.8,77.1c10.9-.7,22.8-.2,33.7.2,21.8,19.1,42.4,39.8,64.4,58.6-.5-20.2-.8-38.3.3-58.5,16.2-.7,31.1-1.4,47.2.9,2.2,14.8,5.8,122.2.9,131.9-1.2,2.4-3.2,2.4-5.5,3.2-34.4,2.6-40.5-.4-65.5-24.9-10.8-10.6-24.1-23.1-35.7-32.9.5,17.5,1.3,39-2.3,56-14.2,3.7-30.6,3.8-44.7-.4-1.6-4.6-2.6-9.3-3-14.1-1.2-13.7-1.5-107.6,1.3-116.8,2.4-2.6,5.2-2.6,8.9-3.2Z"/>
  <path class="st16" d="M575.2,83.1c11.6,0,23.1.2,34.6.5,22.1,18.8,46.5,47.7,71.8,61.5,3.2-15.8,2.4-44.6,2.4-61.5h35.2c0-.1,1.2,64.4,1.2,64.4.2,10.4,1.1,27.2.6,37.2l-1.9,1.3c-10.2-.7-24.7-.5-35.2-.6-10.3-10.2-58.2-54.8-68.7-60.1l-1.7.8c-2.8,5.9-1.8,49.5-2,60.3h-36.8c.2-34.6,0-69.3.5-103.7Z"/>
  <path class="st16" d="M584.8,192.5c13.4.4,13.2,2.6,18.6,14.5-13.4.2-13.3-2.9-18.6-14.5Z"/>
  <path class="st16" d="M682.9,192.2c10.4.4,11.2,6.1,15.6,14.6-13.4.3-12.9-2.2-15.6-14.6Z"/>
  <path class="st17" d="M574.8,191.8c8.6,1.8,9.7,7.7,13.1,15.2-13.3.5-12.5-3-13.1-15.2Z"/>
  <path class="st16" d="M709.8,192.5c5.1,0,6.5-.4,10,2.8,1.4,3.8.7,7.1.4,11.1-6-3.1-7.4-7.8-10.4-14Z"/>
  <path class="st16" d="M671.1,183.7c3.5,1.8,5.4,4.1,8.2,6.8l3,12.8c-7.8-4.4-9.1-11.6-11.2-19.6Z"/>
  <path class="st16" d="M659.7,173.3c6.6,3.2,8.2,11.7,10.1,18.1-7.2-2.9-8.5-11.4-10.1-18.1Z"/>
  <path class="st17" d="M618.2,135.6c6,4.1,6.2,8.8,7.9,15.8-7-2-7.2-9.9-7.9-15.8Z"/>
  <path class="st17" d="M649.7,164.2c6.2,2.8,7,10.2,8.3,16.1-6.1-2.6-6.9-10.2-8.3-16.1Z"/>
  <path class="st17" d="M642.1,157.6c5.3,3.9,5.6,8.4,6.9,14.7-6.1-2.2-6.5-9.2-6.9-14.7Z"/>
  <path class="st17" d="M626.8,143.4c5.5,3.8,5.5,8.5,6.5,14.7-3.8-2.5-5.4-10.3-6.5-14.7Z"/>
  <path class="st11" d="M274.5,185.8c10.1-.3,11.8,1.7,17.9,9.1l-1.5,12.4c-40.4,42.4-77.6,86-105.8,137.5-7.8,14.2-14.2,28.8-23.3,42.2-17.1,3.9-18.5-11-13.5-22.9,25.9-62,64.3-119.5,111.8-167.1,4.8-4.8,8.3-8.3,14.3-11.3Z"/>
  <path class="st11" d="M363.8,117.8c21.4,1.2,19.9,14.3,6.5,26.4-13.8,12.5-30.8,22.5-46.5,32.6-8.4-.9-20.8-5.6-16.5-15.8,7-16.6,40.9-35.6,56.5-43.2Z"/>
  <path class="st4" d="M595.5,382.7c1.8-1.8,1.6-2,4-2.5,7.2,4.8,5.8,20.4,2.4,27.4-1.6,19.6-8.3,40.9-12.5,60.4l-20.3,94.8c-3.7,16.8-8.1,33.8-11.4,50.6-16.9-7.3-32.1-17.1-48.4-25.4-8.2-4.2-20.3-14.9-29.4-11.8l-1,1.8c5,15.1,70.8,73.8,69.1,82.3-6.8,2.3-18.6,3.3-26.1,4.5-42.2,7-84.5,13.3-126.9,18.7-9.4,1.3-54.2,5.9-59.6,9.9l-.6,1.9c4.5,3.6,20.2,5.1,26.3,5.8,32.9,4.1,65.7,8.4,98.5,12.7,18.8,2.4,37.5,5,56.3,7.6,11.5,1.7,24.1,4.2,35.6,5.1-10.4,11.2-73.2,75.8-75.9,84.2l.4,2.6c3.9,2.7,20.6-6.2,25.7-8.1,33.3-12.7,68.8-38,102.6-47.6,11.1,21.6,20.7,63.1,27.9,87.3,4,13.4,9.2,28.8,13.1,41.9-14.9.9-30.8,1.2-41.2,13.5-12,14.1-5.4,31.7,3.8,44.8-4.3.2-8.3-.2-11.8,2-2.7,3.8-2,8.2-1.3,12.7,2.7,16.6,18.3,27.6,33.3,32.5,4.5,1.5,10.2,2.3,14.3,4.7-.6,15.7.5,35.3-.7,49.8l-.2,1.2c-.8,4.9.7,3.5-2.3,6.2-6.6.9-28.4-.7-35.6-1.7h-8.6c-12.4-2.1-31.1-.7-42.8-5-1.6.4-6.3,0-8.2,0-11.7-.4-30.6-3.8-42-6.9l-7.6-1.8c-11.1-.6-25.7-4.5-36.4-7.5l-15-4c-9.6-1.7-25-5.5-33.4-9.9l-7.9-2.1c-9.4-.9-27.7-8-36.3-12.4-1.1-.7-5.2-2.5-6.6-3.1-10.6-1.2-26.5-10.3-36.4-14.7-81.1-36.7-187.3-111.9-216.7-199.5-7.4-5-9.2-16.1-10.9-24.2,2.4-4.7,1.2-35.5,1.9-44.8,6.7,4.5,5.7,7.7,5.5,15.5,1.2-4.5,2.4-17.3,3.3-22.7,1.9-12.8,3.9-25.8,7.8-38.1,15.7-50.2,41.8-89.4,79.1-126.1,10.6-10.5,23.6-24.9,36.7-32.1l5.3-3.4c6.8-6.7,16-13.5,24.5-17.5l5.3-4.2c5.7-5,19.5-13.8,26.2-16.9,2.2-.9,3.6-1.9,5.7-3.2,6.4-4.6,16.6-9.4,24-11.8,3.9-2.5,8.3-5.1,12.3-7.5,6.5-3.9,15.9-7.7,23-10.2,1.4-.7,4.1-2.4,5.5-3.3,6.8-4,23-9.8,30.9-11.4,2-.9,4.7-1.8,6.8-2.6,8.5-4.1,23.6-10.2,32.9-10.4l6.9-2.1c8.2-4.3,24-7,33.4-8.5l8-1.8c8.1-2,19.2-5,27.3-5.5l13.6-2.6c6.4-2.7,24.3-6.4,30.9-4.7,3.4-1.2,3.9-1,7.6-.8,6.3-2.2,31.5-6,36.3-2.1Z"/>
  <path class="st16" d="M473.6,977.8l14,4.2-29.7,49.6-15-4c9.7-16.9,20.2-33.3,30.7-49.8Z"/>
  <path class="st17" d="M332.4,448.7c16.1,12.3,32.2,24.6,48.5,36.7-4.2,2.2-9.5,5.2-13.8,7.2-15.9-11.8-31.6-24-47.1-36.4,3.9-2.5,8.3-5.1,12.3-7.5Z"/>
  <path class="st17" d="M507.1,392.9l13.6-2.6c7.5,14.8,12.7,29.1,19.5,43.8l-13.8,3.6c-6.3-15-12.7-29.9-19.2-44.8Z"/>
  <path class="st10" d="M96.8,716.8c6.7,4.5,5.7,7.7,5.5,15.5-.2,20,1,33.4,3.5,53.5-7.4-5-9.2-16.1-10.9-24.2,2.4-4.7,1.2-35.5,1.9-44.8Z"/>
  <path class="st16" d="M358.7,1000c6-6.8,19-23.2,27.8-25.1l1,1c-2,8.1-15.9,20.7-22.2,27.2-1.1-.7-5.2-2.5-6.6-3.1Z"/>
  <path class="st16" d="M401.7,1015.5c5.2-7.8,15.2-23.7,23.4-27.2l2.4.3,1.1,1.8c-5,11.7-13.4,17.4-19,27.2l-7.9-2.1Z"/>
  <path class="st16" d="M594.9,1052.7c1-8,2.3-25.5,9-30.5,6.2,3.6.8,24.5-.4,30.6h-8.6Z"/>
  <path class="st16" d="M494.3,1039c3.5-9.6,7.3-21.3,15-28.3l2.2-.6c4,6.4-6.5,23.9-9.5,30.7l-7.6-1.8Z"/>
  <path class="st17" d="M543.9,1047.7c2-7.7,5.6-27.1,13.3-30.4,4.4,5.5-2.6,24.2-5.1,30.5-1.6.4-6.3,0-8.2,0Z"/>
  <path class="st16" d="M258.9,492.3l5.3-4.2c6.7,3.7,25.3,13.6,30.7,18.2v1.8c-7,3-28.5-12.1-36-15.8Z"/>
  <path class="st17" d="M471.8,400.2l8-1.8c3.1,6.5,9.9,18.3,11.2,24.4l-.7,1.6c-10-.3-15.1-16-18.6-24.2Z"/>
  <path class="st16" d="M391.8,423.8c2-.9,4.7-1.8,6.8-2.6,5.9,6.1,15.6,15,18.1,22.9l-.9,1.1c-8.4-2.3-18.2-14.7-24-21.4Z"/>
  <path class="st16" d="M234.3,509.8c6.2,3.2,27.2,13.5,31.7,17.7l-.2,1.7c-6.9,1.6-29.2-11.3-35.9-15.4l-.9-.6,5.3-3.4Z"/>
  <path class="st16" d="M438.3,408.7c5.4,7,10.9,13.2,13.4,21.8l-.5,2.1c-7.5-.7-16.3-15.8-19.8-21.8l6.9-2.1Z"/>
  <path class="st17" d="M551.6,385.6c3.4-1.2,3.9-1,7.6-.8,2.3,6.9,6.8,17.9,5.3,24.7l-1.7,1.5c-6.8-1.1-8.7-18.8-11.2-25.3Z"/>
  <path class="st16" d="M296,468c11.1,7.2,21.8,14,30.1,24.4-14.7-6.3-22.6-12.2-35.8-21.3,2.2-.9,3.6-1.9,5.7-3.2Z"/>
  <path class="st16" d="M355.4,438.5c1.4-.7,4.1-2.4,5.5-3.3,11.1,10.3,15.5,13.5,23.6,26.2-12.2-6.4-19.6-13.1-29.1-23Z"/>
  <path class="st16" d="M595.5,382.7c1.8-1.8,1.6-2,4-2.5,7.2,4.8,5.8,20.4,2.4,27.4-4.3-6.6-5.2-17-6.4-24.9Z"/>
  <path class="st12" d="M217.5,631.6c16.5.5,94.2,19.4,111.3,24.7,1.9,12.2,1.6,17,0,29.3-5.8,6.7-2.7,8.5-1,17.3,1.6,8.5.9,14.8.3,23.3-14.7,4.6-28,7.1-43.1,9.7-18.3,4.9-36.9,9.4-55.5,12.8-5.7,1-15.5,2.6-16.9-5.2-4.1-21.5-6.5-26.2,15.2-33.1l.7-1.4c-5.9-5.7-12.9-5-13.6-14.8-1.2-15.7,4.8-20.6,18.1-23.2-10-3.4-11.9-3.7-17.5-12.2-1.2-11.1-.6-16.2,2.1-27.1Z"/>
  <path class="st16" d="M221.2,635.6c32.7,8.2,70,16.1,103.1,23.1v13.7c-21.4,4.5-42.1,6-63.7,12.7,19.9,5.8,41.8,8.5,62.4,11.6v13.6c-28,4.5-53.8,10.5-81.3,15.9-9.2,1.4-17.4,3.3-26.5,5.4l.9-14.2c22.1-5.1,45.2-8.3,68-13.7-10.4-2.1-62-9.7-65.5-18.2,2.5-10,61.6-18.5,73-20.7-10.6-3.4-59.8-11.8-71.2-13.3l.8-15.8Z"/>
  <path class="st16" d="M321.1,714.9c.6,0,1.1.4,1.9.9l.5,3c-1,3.4-1,3.5-3.8,5.5-3.7,1-4.1.7-7.9-.7-2.2-2.4-3.8-3.9-3.8-6.9,4.7-2.8,8.3,1.7,13.2-1.9Z"/>
  <path class="st17" d="M296.5,717.7c7.9,0,11.3,1.3,13.1,9.4-7.8,1.4-10.8-2.1-13.1-9.4Z"/>
  <path class="st17" d="M320.3,679.6c1.8-.6.9-.5,2.8.3v2.8c-3.3,4.5-1.6,3-6.6,5.5-2.6-3.1-4.2-3.9-4.7-7.4,3.3-1.9,4.4-1.2,8.6-1.1Z"/>
  <path class="st16" d="M270.3,723.3c3.9.7,5.1,1.8,7.3,4.8,1.1,3.6.9,4.1-.4,7.7-6-3.7-8.9-5.6-6.9-12.5Z"/>
  <path class="st17" d="M279.2,721.2c6.1,2.3,10.2,4.6,8.3,11.5-6.6-1.8-9-4.6-8.3-11.5Z"/>
  <path class="st17" d="M260.9,725.4c6.3,2,8.7,4.9,7.4,11.3-7-.9-8.3-5.3-7.4-11.3Z"/>
  <path class="st17" d="M300.3,680.4c3.9.3,4.7.2,7.6,2.5,1.5,3.7,1.2,2.2.5,6.4-3.8-.9-4.5-1.1-7.8-3.1-1.7-3.3-1.5-1.8-.3-5.9Z"/>
  <path class="st17" d="M289.4,719.4c5.9,2.8,9.1,4.5,7.8,11.3-5.7-2.2-9.9-4.8-7.8-11.3Z"/>
  <path class="st17" d="M241.4,729.2c5.3,1.7,9.1,5.9,8.4,11.7-6.6-2.3-9.3-4.5-8.4-11.7Z"/>
  <path class="st17" d="M223.8,733.5c6.8.8,8.2,5.1,10.2,10.8-7.2-1.1-9.5-3.6-10.2-10.8Z"/>
  <path class="st17" d="M233.8,731.4c5.6,3.1,7.7,6.3,6.5,12.4-5.1-3.9-9.1-5.9-6.5-12.4Z"/>
  <path class="st17" d="M214.8,735.2c6.8,1.2,7.8,4.1,9.3,10.2-1.4-.3-2.8-.7-4.1-1.4-3.3-1.7-4.1-5.5-5.2-8.9Z"/>
  <path class="st16" d="M448.6,486.8c3.8,1.8,20,27.7,17.8,34.5-7.7,3.6-26.1-8.8-34-12.9l14.1,20.8-9.6,4.7c-8.2-3.8-17.8-9.2-25.9-13.5-3.8-1.8-11.5-4.8-13.6-7.8l.8-1.7c9.9-4.2,24.2,6.8,33.4,12l-13.6-21.2,8.8-4.5c8.9,4.9,17.8,9.7,26.8,14.4-3.7-7.5-9.2-13.1-10.9-19.8,1.1-3.3,2-2.9,5.9-5Z"/>
  <path class="st16" d="M190.9,692.3h3.4c4.1,2.8,4.2,9,1.6,12.7-6.9,1.3-21.3.8-29.1.8l-42,.2c-8.2.3-7.2-7.1-4.6-12.6,5.4-1.2,60.9-1.1,70.6-1.1Z"/>
  <path class="st16" d="M238.1,840.9c2.3,1.5,7.1,8.3,9.1,10.9l-69.6,26c-2.1-2-7.1-8.9-9.1-11.6,23.3-8.3,46.2-17.4,69.6-25.3Z"/>
  <path class="st16" d="M335.6,921.6c4.6.9,11.1,5.1,15.3,7.6-18.4,12.2-36.5,24.9-54.2,38.1-4,.6-11.3-4.8-15.1-7.2,15.7-13,36.9-26.8,54-38.5Z"/>
  <path class="st16" d="M413.8,880c11.1-1,29.7-1.2,28.9,16.4-.1,2.4-1.5,3.9-3.4,5.3-8.1-.5-5.5-10.5-12.4-15.5-3.7-.8-4.2-.8-7.9,0-6.2,7.5,15.3,18.5,0,29-9.1,2.3-28-.6-30.7-11.1.9-4.1,4.6-9.3,9.2-8.7,3.3,3.4,2.3,8,5.7,13.5,3,1.2,3.2,1.2,6.5.9,7.4-7.3-13.7-20.1,4.1-29.7Z"/>
  <path class="st17" d="M210.5,530.7c21,7.4,41.8,15.3,62.3,23.8l-9.4,10.1c-20.9-8.2-41.6-15-62.5-23.9,2.8-3.1,6.6-6.9,9.6-10Z"/>
  <path class="st16" d="M370.6,864.4c-7.9,2.7-29.5,15-35.3,10l.6-1.9c6.1-5.9,42.9-22.5,49.5-15.9-.2,4.8-13.2,17.7-17.1,21.8,5-1.9,10.5-4.3,15.4-6.4,1.5,1.7,3.4,3.5,4.5,5.4-8.8,2.3-20.3,7.9-28.8,11.8-2.4-1.6-3.2-1.9-4.9-4.3.6-6.5,10.9-14.9,16.1-20.5Z"/>
  <path class="st17" d="M381,519.7c3-1.6,6.3-3.4,9.3-4.8,6.6,5.3,26.1,20.4,31,25.7-2.2,2.7-4.8,3.5-8,5-6.8-1.7-26.3-6.8-32.2-7.3,2-2.5,3.4-3.4,6-5.4l15,3.4c-6.9-5.7-13.9-11.2-21.1-16.6Z"/>
  <path class="st16" d="M354.4,532.1l8.3-4.2c8.3,1.4,16.2,3.2,24.3,5-2.6,2-3.9,2.9-6,5.4h-.9c-2.2,4.6,12.3,8.5,13.2,16.8-1.9,2.4-.7,1.6-3.8,2.3-8.1-2-27.4-19.3-35.1-25.4Z"/>
  <path class="st17" d="M383.6,872c6.2-3,12.3-7,18.8-5.3,6,7.2-17.5,29.8-22.8,35.9l-6.8-5.5c3.1-3.7,14.8-16.4,15.2-19.7-1.1-1.9-3-3.8-4.5-5.4Z"/>
  <path class="st16" d="M134,724.2c6.2-.3,26.8-2.5,30.7,1.5l-.7,1.5c-4.6,1.6-9.7,1.8-14.5,2.4-5.7.4-30.4,3.5-33.2-1.4,3.8-4.2,11.8-3.7,17.8-4.1Z"/>
  <path class="st16" d="M156.7,751.2c4.4-.5,6.9-1.2,11.1.6l1,2.7.2-1.9.3.3-1.2,2.1c-8.6,3.1-28.1,4.3-38.1,5.2-4.6.7-6.9,1.6-10.3-.8l.7-1.8c6.4-3.8,27.7-5.3,36.3-6.2Z"/>
  <path class="st17" d="M170.8,778.2h1.5c3,1.6,2,.4,3.3,3.5-3.5,3.8-35,7.2-42.2,8.2-3.1,0-2.4.5-4.7-.8v-1.7c6.2-5.3,33.3-8,42.1-9.2Z"/>
  <path class="st16" d="M183.2,805.1c2.1,1.2,1.3.4,2.4,2.6l-1,1.7c-7.3,4.3-32.5,8.3-42.2,10.1-2.2,0-1.4,0-3.5-1.2l1-1.2-1,.4.9-1.7c7.5-4.2,33.6-8.8,43.3-10.7Z"/>
  <path class="st16" d="M232.9,876.8l3.7.5c.5.7,1.2,1.7,1.6,2.4-2.3,3.9-30.6,15.5-36.8,18.3-2.4,1.2-3,.2-4.4-1.2l.5-2.1c5.4-5.5,27.2-14.3,35.4-17.9Z"/>
  <path class="st16" d="M286.7,920.7c2.4.7,1.6.4,3.6,2.2v2c-4.2,6.2-24,16.8-31.7,21.3l-3.2-1.9v-1.6c4.4-6.4,23.7-17.3,31.3-22Z"/>
  <path class="st17" d="M258.5,899.8c2.9,1.7,2.1.5,3,3.3-3,6.4-27.6,17.6-34.5,21.1-2.1-1.6-2-1.5-3.5-3.7,2.5-4.1,28.9-17.5,35-20.8Z"/>
  <path class="st16" d="M197.5,831c2.4,1.1,1.6.3,2.6,2.7-4.3,6.2-32.2,11.7-41.2,13.9l-1.9-.4-.8-1.4c4-6.2,32.5-12.5,41.3-14.8Z"/>
  <path class="st16" d="M131.5,639.8c8.8-.2,37.4,2.4,46.3,6.3,1.7.7,1.6,2.8,1.9,4.6-13.1-1.5-32-2.9-44.9-6.5-2.6-.7-2.4-2-3.3-4.4Z"/>
  <path class="st16" d="M348.2,956.6c3.2,1.5,2.7.7,4,3.2-2.9,7-19.3,19.7-25.9,25.3-3-1.8-2.5-.9-4-3.6,2.2-6.5,20-20,25.9-24.9Z"/>
  <path class="st16" d="M123.8,668.8c10.1.7,41.5.4,47.7,5.5v3c-11.3-.6-34.9-.8-45.7-4.4-1.4-.5-1.5-2.4-2-4.2Z"/>
  <path class="st16" d="M182.4,557.6c6.8,0,36.6,9.5,42.1,14l.3,3.3c-5.7,0-35.4-8.9-41-12.9-1.5-1.1-1.1-2.1-1.3-4.4Z"/>
  <path class="st16" d="M144.2,611.9c8.7-.7,42.2,4.3,47.2,11.6-7.4.8-35.3-4.2-43.3-7-3-1.1-2.7-1.8-3.9-4.6Z"/>
  <path class="st16" d="M162.3,583.7c6-.1,34.6,7.1,41.2,10.1,2.8,1.3,2.4,1.8,3.3,4.5-5,.7-36.3-6.7-42.4-9.9-1.9-.9-1.7-2.7-2.2-4.7Z"/>
  <path class="st4" d="M691.9,397.7c-2.8-4.5-5.4-11.1-3.7-16.3,2.8-2.4,1.8-1.7,6.4-1.8l8.8.4c11.8,1.9,23.2,1.1,35.5,3.9,3.9-.5,4.4-.5,8,.9,8.4.6,26.8,1.9,34.1,5,2.6.3,5.2.7,7.8,1.2,12.6.7,20,4.7,30.1,6.2,3.8.5,9.2,1.3,12.8,2.8,7.1,1.5,24.1,4.6,29.4,7.8,3.5.4,4.4,1,7.6,2.5,7.3,1.2,24.5,6.5,31.4,9.8,3.2,1,4.8,1.4,7.7,3,11.2,3.8,21.6,7.3,32.3,12.4l5.8,3.3c6.5,2.1,17.2,5.5,22.2,10.2,3.5.2,11.3,4.7,14,6.7,7.6,3.7,15.5,7.5,22.8,11.6l4.1,3.9c9.5,2.4,19.3,10.4,27.4,16.2,2.2,1.3,3.2,1.8,5.1,3.7,7.4,4.5,19.6,11.1,24.5,17.8l5.1,4.5c6.7,4.6,12.7,9.2,18.3,15.1,2.3,2.3,7.6,7.8,9.9,9.6,13.5,5.2,47.6,51.6,55.8,65,7.7,12.7,14.7,25.9,20.8,39.4,19,42.7,25.1,114.7,8.7,159.5-5.7,15.6-20.5,36.2-31,49.4-55,68.9-128.1,112.4-207.2,147.8-7.4,3.3-20,8.4-27.7,9.1l-7.2,2.5c-11.9,5-34.2,13.4-47,15.4-5,1.3-9.8,2.3-14.7,4.3-5.6,2.2-30.2,8-35.9,7.9-2.7.7-5.6,1.4-8.3,1.8-7.6,1.6-38.1,9-42.8,5.4-3.5,1.6-4.3,1.6-8.2,2.2-11.6,2.5-32,4.5-43.8,3.8-4.3,1.1-4.9,1.2-9.3,1-9.7.9-30.2,3.1-39.4,1.2-8.4-.7-18.6,3.2-20.5-6.9,1.2-14.4,0-34.1.7-49.8,7.8,1.9,11.5,2.2,19.5.5.4-.4.7-.8,1.1-1.2,23.3-2.8,48.8-14.3,45.6-42-.9-7.8-1.1-10.5-6.3-18.8,5.6-11.8,6.5-25.3-2.6-36-10.5-12.2-28.3-12.1-43.1-12.7,11.3-28.7,20-62,29.7-91.4,3.8-11.5,6.4-26.1,11-36.7,18.6,6.6,121.5,53.7,130.3,54l.8-2.2c-2-10.5-14-18.9-21-26.3-18-18.8-39.8-37.3-55.9-57.7,11.1-3.5,20.3-3.7,31.8-4.9,62.5-6.5,124.5-16.2,187.1-22.4,3.8-.4,9.5-1.5,9.7-5.9-6.8-7.7-24.4-7.2-34.3-8.3l-47.9-5.6c-47-5.6-96.5-12.7-143.4-16.9,14.6-20.6,32.3-40,47.3-60.4,4.5-6.2,18.7-19.5,18.1-26.4l-1.9-.9c-13.8.7-61.7,33.4-79.4,41.5l-1.3.6c-5.1-33.5-14.2-66.9-21.6-99.9-2.9-13-6.8-26.5-8.2-39.7-1.4-13.7,3.9-64.6-4-72.8-1.1-1.2-1.8-1.8-2.2-3.4-.1-.4-.2-.9-.3-1.4-.1,2.1-.2,2-1.5,3.8-3.4,1-1.8,1-5-.1-2.6-3-1.9-1.5-2.2-5.9Z"/>
  <path class="st16" d="M642.3,997.2c7.8,1.9,11.5,2.2,19.5.5.4,18.7.5,37.4.3,56.2-8.4-.7-18.6,3.2-20.5-6.9,1.2-14.4,0-34.1.7-49.8Z"/>
  <path class="st17" d="M1089.5,528.6c2.3,2.3,7.6,7.8,9.9,9.6-19.5,9.7-43.8,18.3-64.5,26.1l-9.5-9.7c20.1-9.4,43.2-16.9,64.1-26Z"/>
  <path class="st16" d="M820.6,979.6l14.1-5.1c8.9,17.3,20,34.8,29.8,51.8-5,1.3-9.8,2.3-14.7,4.3-8.3-16.2-20-35-29.3-51Z"/>
  <path class="st17" d="M968.1,448.9c3.5.2,11.3,4.7,14,6.7l-46.8,36.3-13.9-7.5c13.2-8.8,33.7-25.5,46.8-35.6Z"/>
  <path class="st16" d="M818.9,397.1c3.8.5,9.2,1.3,12.8,2.8-7.5,14.1-16,28.3-24,42.2-4.2-1.1-8.8-2-13.1-3,7.2-14.2,16.1-28.3,24.3-42Z"/>
  <path class="st16" d="M805.7,1040.3c-3.9-8.3-12.3-23.1-11.5-31.5l1.3-1c8.2,3.8,15,22.6,18.5,30.7-2.7.7-5.6,1.4-8.3,1.8Z"/>
  <path class="st16" d="M691.9,397.7c-2.8-4.5-5.4-11.1-3.7-16.3,2.8-2.4,1.8-1.7,6.4-1.8l8.8.4c-1.3,7.4-2.1,12.4-2.7,20-.1,2.1-.2,2-1.5,3.8-3.4,1-1.8,1-5-.1-2.6-3-1.9-1.5-2.2-5.9Z"/>
  <path class="st4" d="M691.9,397.7c-2.8-4.5-5.4-11.1-3.7-16.3,2.8-2.4,1.8-1.7,6.4-1.8-.7,5.3-1.5,13.1-2.7,18.1Z"/>
  <path class="st16" d="M701.5,1052.7c-1.1-10.2-3.7-21.7-.6-31.2l1.9-.5c5.3,7.5,6.6,21.6,8,30.7-4.3,1.1-4.9,1.2-9.3,1Z"/>
  <path class="st17" d="M754.6,1047.9c-2.6-8.7-7.8-23.5-5.6-32l1.5-.5c6.6,5.7,10,21.7,12.3,30.3-3.5,1.6-4.3,1.6-8.2,2.2Z"/>
  <path class="st16" d="M911.5,1010.9c-4.4-6.9-21.3-22.4-20.5-29.2l1.9-.9c8.3,2,20.5,20.4,25.8,27.6l-7.2,2.5Z"/>
  <path class="st16" d="M1066,508.9l5.1,4.5c-8.7,3.7-30.4,17.2-39.1,15.3l-.8-1.5c3-3.9,28.5-15.5,34.7-18.4Z"/>
  <path class="st16" d="M1036.4,487.4c2.2,1.3,3.2,1.8,5.1,3.7-14.5,8.9-23.2,14.6-39.9,19.3,10.3-11.6,21.1-16.3,34.9-23.1Z"/>
  <path class="st17" d="M861.1,407.7c3.5.4,4.4,1,7.6,2.5-5,6.9-13.3,19.5-20.9,22.9l-1.2-.8c1.3-8.2,9.5-17.8,14.5-24.5Z"/>
  <path class="st17" d="M1004.9,467.3l4.1,3.9c-5.5,4.4-24.9,20-32,17.9,1.3-6,22.4-18.3,27.9-21.8Z"/>
  <path class="st17" d="M940.2,435.4l5.8,3.3c-6.2,6-18.1,18.6-26.4,19.8l-.8-1.3c3.3-7.6,14.9-16.3,21.4-21.8Z"/>
  <path class="st16" d="M900.1,420.1c3.2,1,4.8,1.4,7.7,3-9.8,10.9-15.3,17.8-28.1,24.9,6-11.8,11.8-17.9,20.4-27.9Z"/>
  <path class="st17" d="M738.9,383.9c3.9-.5,4.4-.5,8,.9-2.2,7.7-4.1,18.5-10.4,23.4l-1.7-.4c-2.3-7,1.8-16.6,4.1-23.9Z"/>
  <path class="st17" d="M781.1,389.8c2.6.3,5.2.7,7.8,1.2-2.6,7-6.9,19.3-13.4,23.1l-1.4-.9c-.8-7.3,4-16.6,7-23.4Z"/>
  <path class="st12" d="M1026.1,734.3c-6.3.7-28.1,3.7-29.7-4.1-2.6-12.6-4.9-59.9,0-69.8,7.5-2.7,105.4-.7,119.5-.6,1.5,10.6,0,23.6,2,33,1,5.6,1.3,7,1,12.6-4.8,12.6,10.6,30.5-18.4,28.8-23.4-1.4-8.4-28.7-16.8-37.3-20.1-6.8-6.7,22.6-12,31.8-5.7,4.6-21.7,3.4-26.7-1.3-4.7-4.5-4.9-22.7-5.1-29.5l-13.3-.2c.5,12.3,0,24.3-.7,36.6Z"/>
  <path class="st16" d="M999.6,663.5c36.8.9,75.5.4,112.5.4,0,17.5.8,36.5,1.2,54.1-7-.9-14.1-1.7-21.1-2.4-.3-12-.7-23.9-1.2-35.9-6,0-12.1-.2-18.1-.3-2.6.2-2.6,0-4.5,1.6-3.5,7.8-1.2,24.3-.4,33.3l-21.7-.2-.4-35.1h-24.9c0-.1,1.2,38.5,1.2,38.5l-22-.8c-.3-17.4-1.5-36.1-.7-53.2Z"/>
  <path class="st16" d="M1007.6,722.6c9.2-.2,12.5-1.3,14.9,8.5-8.6,1.2-10.2-2-14.9-8.5Z"/>
  <path class="st17" d="M999.5,722.1c6.4,1.6,8.6,5.7,12.6,11-9.7-.7-10.4-2.2-12.6-11Z"/>
  <path class="st17" d="M1051.6,840.6c18.3,8.4,51.4,18.8,71.7,26.3-3.3,4-5.1,6.7-7.9,11.1-19.4-5.7-53.2-19-72.4-26.5,2.8-4.2,5.3-7,8.6-10.8Z"/>
  <path class="st16" d="M951.3,924.8c5.6,2.9,47.5,35.6,52.5,40.5-3.3,2.7-8.4,5.8-12.1,8.3-17.8-12.2-36.4-27.4-53.4-40.9l13-7.9Z"/>
  <path class="st16" d="M885.4,875.7c5.7,1.3,30.8,23.5,36.9,28.5-8.7,4.5-18.2,11.6-27.6,14.7-2.1.7-2.7-.3-4.6-1.6-.5-5.9,12.1-6.8,15.3-13.3-1.7-5-5.1-5.7-9.6-3.8-5.2,3-8.3,6.8-14.1,8-4.1-.8-3.8-1.5-7.1-4.7l19.8-11-10.1-7.5c-6.3,4.2-17,12.5-24.5,10.4l-1-2.3c1.9-3.9,21.1-13.8,26.8-17.2Z"/>
  <path class="st16" d="M919.2,857.9c7.1,0,11,.1,17.5,3.4v1.4c-6.2,3.3-25.5,3.3-25.3,10,8,5.7,33-6.3,43.5,3.9,1.6,3.2,1.5,3.7,1.1,7.2-2.9,5.5-7.9,7.3-13.4,9.7-4.3.4-15.8,1.9-17.6-3,6-4.2,16-2.5,20.3-8.3l-.9-1.4c-12.7-4.1-37,7.4-43.8-4.4-.8-10.9,10.3-15.2,18.6-18.5Z"/>
  <path class="st17" d="M871,493.7l8.5,4.2c-.9,5.5-2.5,19.6-1.9,24.9l1.2.8c2.6-.1,3.5-.4,6-1.2,1.9,1.4,2,2.4,2.7,4.6-2.4,2.6-11.3,9.6-14.5,12.3l-7.8-4.4,3.5-26.8c-6.4,5.9-15.4,16.1-23.6,16.9-3.3-1.1-2.6-.3-4.1-2.7,4.2-6.8,23-22.4,30.1-28.5Z"/>
  <path class="st16" d="M1118,692.8l59-.8.5,13.9c-17.5,0-41.4.5-58.5-.5.3-5.6,0-7.1-1-12.6Z"/>
  <path class="st17" d="M913.1,515.4c1.4.5,2.7,1.1,4,1.7,6.5,3,23.3,9.5,25.4,15.1-8.6,8.3-22.6-16.5-31.8-2,1.1,3,2.2,3,5.3,5.1-1.2,1.7-2.4,3.7-3.8,5.2l-8.6-4.5-8.7,7.2,9.8,4.8c-2.4,1.6-4.8,3.3-7.3,4.7-4.7-2.9-12.5-6.7-17.6-9.3,11.6-8.7,22.8-18,33.4-27.9Z"/>
  <path class="st16" d="M1116.4,777.9c7-.5,40,4.4,48.1,6.9,1.9.6,2.1,2.9,2.8,5-9.7.2-37.3-3.8-47.5-7.2-2.7-.9-2.5-2.2-3.4-4.7Z"/>
  <path class="st16" d="M1027.6,900.2c4.8,1.2,33.6,16.1,37.9,21.1,1.1,1.3.5,2.4.2,4.5-10.3-3.4-30-12.8-38.4-19.7-1.4-3.2-1.2-1.8.3-5.9Z"/>
  <path class="st16" d="M1091.1,830.3c7.8.7,37.2,9.4,45.3,13.1,2.3,1.1,2.2,2.6,2.8,5.1-9.4-1.2-37.7-8.4-46.6-12.9-1.7-.9-1.4-3.2-1.5-5.3Z"/>
  <path class="st16" d="M1052.5,876.2c6.3,1.5,39.8,15.1,42.3,19.9l-1.6,3.8c-8.4-3.5-37.7-14.5-41.5-20.2l.8-3.5Z"/>
  <path class="st16" d="M1126.8,722.9c11.9-.2,36.2.4,48.3,2.9,2,.4,2.5,3,3.4,5.1-14.5-1.2-34.2,0-48.4-3-1.9-.4-2.5-3.1-3.4-5Z"/>
  <path class="st16" d="M1160,639.2l2.3-.3c3.1,1.4,2.5.5,4.1,3.1-4.5,4.4-36.7,6.5-43.9,7.1-3.1.6-3.6-.1-5.1-2.3l.9-1.7c8.3-3.6,31.6-4.9,41.7-5.8Z"/>
  <path class="st16" d="M1124.2,749.7c14.3,2,34.3,2.3,48.3,6.1,1.8.5,2.1,3.1,2.8,5.1-13.6-1.4-35-2.1-48.3-5.9-2-.6-2.1-3-2.7-5.2Z"/>
  <path class="st16" d="M932.3,962.1c5.7,3.4,22.1,20.1,27,25.6,0,3-.4,2.6-2.5,5.6-5.5-2.4-22.8-20.3-27.1-25.5-.4-3,0-2.4,2.5-5.8Z"/>
  <path class="st16" d="M1168.9,668.3c3.8,0,2.2-.6,5,2v1.8c-4.5,3-35.4,3.8-43.5,4.4-2.9.4-3.9,0-5.5-2.2l1.2-1.7c8.2-3.1,32.7-3.9,42.8-4.4Z"/>
  <path class="st17" d="M998.8,923.1c3.3,1.1,30.9,18.8,33.7,23.1.8,1.2-.2,2.4-.8,4.2-.9-.2-1.8-.5-2.6-.9-4.8-1.8-28.4-16.1-31.4-21.7-.7-1.3.4-2.9,1.1-4.7Z"/>
  <path class="st16" d="M1106.2,804.7c7.2,0,32.4,6.2,40.5,8.1,5.2,1.2,6,2,8.1,5.8-6.5.7-38.8-5.6-46.2-9.2-2.1-1-1.9-2.5-2.5-4.8Z"/>
  <path class="st16" d="M1114.9,556.1c1.9,2.3,1.4,1,1.6,3.8-4.7,4.4-31.3,11.6-39.6,14.3-1.2-1.3-2.3-2.6-3.4-3.9,6.5-4.5,32.4-11.6,41.4-14.2Z"/>
  <path class="st16" d="M1131.8,583c3,0,1.5-.3,4.5,1.6l.2,1.7c-5.1,4.2-30,8.9-38,10.7-2.1.6-1.5.4-3.9,0l-1-1.7,1-1.7c6.9-4.4,28.2-8.6,37.3-10.7Z"/>
  <path class="st16" d="M1148.5,611.2l1.8-.3c3.1,1.5,2.2.4,3.2,3.2-2.7,3-35.9,7.6-42,8.6l-1.4.2-1.8-1.5.8,1.4-1.9-.9v-1.7c6.7-4.3,32.4-7.8,41.4-9Z"/>
  <path class="st16" d="M897.8,506.1l8.1,4.6c-6.3,5.7-11.8,10.8-18.5,16.2-.8-2.2-.9-3.2-2.7-4.6-2.5.9-3.4,1.1-6,1.2,6.2-6,12.7-11.7,19.1-17.4Z"/>
  <path class="st16" d="M916.1,535.2c3.8.6,4.1.9,7.5,2.7l1.7,2.4-.4,2.2c-4.7,2.7-8.2.8-12.7-2.1,1.4-1.5,2.6-3.5,3.8-5.2Z"/>
  <path class="st16" d="M904.7,548c3.6,1.7,6.1,2.4,8.2,5.6l-.5,1.6c-6,1.8-9.4.2-15-2.5,2.5-1.3,5-3.1,7.3-4.7Z"/>
  <path class="st9" d="M1288,777.2c.1,30.8,1.1,72.2-2.4,101.9-3.5,19.3-7.8,38.5-15.1,56.8-25.8,65.1-74.4,125.9-129.7,168.6-197.9,152.9-489.3,183.8-727.2,122.3.5-4.8.4-9.1.4-14,0-35.9-1.7-71.8-1.1-107.7-21.3.3-174.8-59.9-183.5-77.6,31.3,15.8,59.9,30.2,92.8,43,142.3,55.1,301.3,70.7,452.2,51.3,3.3-.7,7.3-1.3,10.6-1.7,68.7-8.8,132.6-28.2,197.3-52,28.7-11.9,51.8-22.9,79.5-36.9,1.1-.9,4.7-2.6,6.2-3.4,13.2-8.5,28.2-17.1,41.7-25.3,15.2-11.9,30.7-21.8,46.2-34.5,59.5-48.7,96.1-99,125.3-169.4,2-7.2,4.3-14.3,6.7-21.3Z"/>
  <path class="st12" d="M1131.1,997.2c10.4,5.2,25.8,13.1,34,21.1-.2,20.1.7,40.2-1.3,60.1-9.6,7.9-43.3,33.1-55.7,31.4-7.7-1.1-20.5-11.2-27.9-15.2-.5-18.3-.5-45.1.7-63.4-4.3-5.4-6.3-3.9-12.7-3.3,13.2-8.5,28.2-17.1,41.7-25.3l1.5,3.3c2.6.7,3.2.5,5.8.3l14-8.9Z"/>
  <path class="st2" d="M1068.1,1027.8c13.2-8.5,28.2-17.1,41.7-25.3l1.5,3.3c2.6.7,3.2.5,5.8.3-7.9,5.3-31,19.6-36.2,25.1-4.3-5.4-6.3-3.9-12.7-3.3Z"/>
  <path class="st16" d="M1126.4,1044.5c10.5-6.6,21.1-13.1,31.8-19.3,0,5.4.2,16-.3,21,.2,9.9,0,18.5-.5,28.4-13.6,9.2-27.4,18-41.4,26.5.4-16.5.2-33.7.3-50.3l10.1-6.3Z"/>
  <path class="st17" d="M1126.4,1044.5c10.5-6.6,21.1-13.1,31.8-19.3,0,5.4.2,16-.3,21-1.4,4.2-1.2,8.8-1.2,13.3-10.8-6.3-18.8-10.4-30.3-15Z"/>
  <path class="st11" d="M1117.3,1063.5c5.5,2.8,14.3,9.3,17.2,15-12.9-1.5-17-1.1-17.2-15Z"/>
  <path class="st16" d="M1089.7,1039.2c5.3,2.9,12.4,7.6,17.7,10.9,0,7.5,1.1,46.1-1.6,50.1-6.1-3.3-12.5-7.5-18.4-11.2-.3-16.9-.8-33.1,2.4-49.8Z"/>
  <path class="st17" d="M1131,1006.5c5.8,1.1,16,8.4,21.3,11.8-12.8,8.3-25.6,16.5-38.5,24.6-3.8,0-16.5-9.3-20.3-11.9,12.6-8,25.1-16.2,37.5-24.5Z"/>
  <path class="st2" d="M229.5,1027.5c31.3,15.8,59.9,30.2,92.8,43,142.3,55.1,301.3,70.7,452.2,51.3,3.3-.7,7.3-1.3,10.6-1.7,68.7-8.8,132.6-28.2,197.3-52,28.7-11.9,51.8-22.9,79.5-36.9-1.1,4.4-6.3,7.6-10,9.5-11.2,5.7-55,30.7-65.4,31.9-54.7,23.5-112,40.2-170.7,49.8-11.6,1.9-33.4,5.3-45.3,5.7-13.5,2.3-35.6,3.6-49.3,4.4-65.9,3.5-132,.8-197.4-8.2-20.3-2.8-40.5-6.3-60.6-10.5-8-1.7-44.6-11.1-50.1-8.6-21.3.3-174.8-59.9-183.5-77.6Z"/>
  <path class="st6" d="M1288,777.2c.1,30.8,1.1,72.2-2.4,101.9-3.8-26.7,3.5-52.6-1.1-78.7-.2-1.4-1.9-1.4-3.1-1.9,2-7.2,4.3-14.3,6.7-21.3Z"/>
  <path class="st9" d="M1234.7,535.8c9.1,16.2,18.7,31.2,26.4,48.2,27.7,60.5,33.3,128.8,15.9,193.1-28.8,103.6-122.1,192.3-215.7,242.5-199.1,106.8-440.4,125.6-658.1,67.5-203.6-54.4-444.5-218.8-381.2-462.1,6-23,27-71.9,42.8-89.8l1.2.2c.2,3.3.3,5.2,0,8.6,2.1,81.6-8.8,170.6,28.3,246.5,99.9,204.5,368.6,279,579.7,274.5,150.3-3.2,307.2-48.9,425.4-143.3,11.6-9.2,23.7-21.2,34.8-31.2l10.8-11.5c11.2-13.4,22.4-26.2,32.3-40.6,50.5-73.2,56.5-141.7,56.3-227.6l-.2-50.7c0-5.4-.7-20.5.3-24.8l1,.4Z"/>
  <path class="st2" d="M1234.7,535.8c9.1,16.2,18.7,31.2,26.4,48.2,27.7,60.5,33.3,128.8,15.9,193.1-28.8,103.6-122.1,192.3-215.7,242.5-199.1,106.8-440.4,125.6-658.1,67.5-203.6-54.4-444.5-218.8-381.2-462.1,6-23,27-71.9,42.8-89.8l1.2.2c.2,3.3.3,5.2,0,8.6l-.9,1c-.3,17.2-9.2,26.9-16.7,41.1-3.4,6.4-7.7,17-10.4,23.9-9.5,24.2-15,49.9-16.3,75.9-4.3,83.7,34.5,167.7,90.3,228.1,110.5,119.4,311.9,190.9,471.8,199,198.2,8.3,421.9-38.5,572.9-173.3,90.3-80.5,145.7-199.8,108.2-319.4-7.2-23.1-20-44.2-28.9-66.5-2.1-5.2-1.6-12.6-1.4-18.2Z"/>
  <path class="st2" d="M1145,879c1.5,3,1.7,3.1,1.3,6.3-2.6,4.4-7.1,5.7-12.1,5.2l10.8-11.5Z"/>
  <path class="st8" d="M11.5,778.3l5.1,16.4,1.6,5.1c30.8,73.2,65,119.7,127.6,170.4,12.9,10.4,27.1,19.7,39.5,29.6,8.2,4.8,26.6,16,34,21.6,4.3,2.2,6.3,3.2,10.3,6,8.7,17.7,162.2,77.8,183.5,77.6-.6,35.9,1.1,71.8,1.1,107.7,0,4.8,0,9.2-.4,14-102.6-26.9-214.6-80-290.9-153.9-40.5-39.2-88.9-103.7-101.1-159.9-1.5-4.5-3.8-13-4.3-17.5-8.4-24.8-6.4-89.7-5.8-117Z"/>
  <path class="st12" d="M185.2,999.8c8.2,4.8,26.6,16,34,21.6-6.9.4-5.6-.9-10.8,2.2,5.8,3.6,9.6,6.4,15,10.5,1.8,15.2,1,48.9,1,65.7-10.6,5.8-21.4,11.4-32.2,16.9-14.1-8.3-39-25.1-51-35.1-.4-19.8-.3-39.7,0-59.5,6-5.9,18.9-15.7,27-18.1,6.2-1.8,7.4-1.1,12.9,1.6,1.6-1.7,2.8-3.8,4.2-5.8Z"/>
  <path class="st6" d="M185.2,999.8c8.2,4.8,26.6,16,34,21.6-6.9.4-5.6-.9-10.8,2.2-9.2-6.1-18.2-11.7-27.3-18,1.6-1.7,2.8-3.8,4.2-5.8Z"/>
  <path class="st16" d="M148.2,1030.3l19.9,12c6.2,3.8,14.6,8.5,20.4,12.6.4,16.9.6,33.8.7,50.7-12.9-8-28.3-18.5-40.9-25.8v-20.1c-.1,0,0-29.4,0-29.4Z"/>
  <path class="st11" d="M148.2,1030.3l19.9,12c-8.4,5.8-13.1,9.6-20,17.4v-29.4Z"/>
  <path class="st17" d="M172.2,1009.6c13.2,6.5,29,17.9,40.8,26.7l-19.2,11.3c-6.6-1.1-33.5-19.6-40.6-24.3l19-13.6Z"/>
  <path class="st16" d="M198.6,1052.8c7.4-2.6,11.8-6,18.5-9.5,0,15.7.5,33.4-.4,49,.4,2.2.3,1.1-.5,3.5-5.2,3.8-13,7.1-19,9.8-.2-10.7-1.5-44.3,1.3-52.9Z"/>
  <path class="st17" d="M198.6,1052.8c7.4-2.6,11.8-6,18.5-9.5,0,15.7.5,33.4-.4,49-1.1-5.6-1.7-11.6-2.4-17.3-10.4-4.7-8.1-8.4-9.9-19.1-2.5-3-1.5-2-5.9-3.2Z"/>
  <path class="st9" d="M11.5,778.3l5.1,16.4,1.6,5.1c-3.4,20.1.6,63.2,0,85.2-.2,6.4,5.5,22.7,3.3,27.8-1.5-4.5-3.8-13-4.3-17.5-8.4-24.8-6.4-89.7-5.8-117Z"/>
  <path class="st6" d="M11.5,778.3l5.1,16.4c-2.1,1.5-3.2,2-3.4,5.4-1.4,22.9,0,47.3,1.7,70.2.6,7.7,2.8,18.2,2.4,25-8.4-24.8-6.4-89.7-5.8-117Z"/>
  <path class="st18" d="M139.4,448.7c39.4-32.5,82.4-60.4,128.1-83.1,96.8-48.3,205.1-74.9,312.7-83.7,8-.7,44.8-3.2,49.7-1.6,1.5,3.4.5,4.7-.2,8.9-2.5,10.4-5.6,21.9-7.2,32.3-20.4,2.2-41.2,2.7-61.7,5-153.9,17.3-316.3,76.7-417.6,198.7-27.5,33.1-50.2,76.6-58.6,119-3.1,16-4.7,34.2-6.4,50.5-2.4-19.3-2.3-44.7-2.6-64.5-.9-37.7-.6-75.4.8-113.1.1-6.4,0-11.8,1.4-18.2,15-16.3,20.9-24.7,38-40.2-.3,5.2-.3,7.3.1,12.5,7-6.4,17.4-15.6,23.4-22.6Z"/>
  <path class="st2" d="M139.4,448.7c39.4-32.5,82.4-60.4,128.1-83.1,96.8-48.3,205.1-74.9,312.7-83.7,8-.7,44.8-3.2,49.7-1.6,1.5,3.4.5,4.7-.2,8.9-130.1,2.3-258,34.5-373.6,94.2-34.1,17.8-69.7,38.5-99.6,62.9-3,2.5-17.2,15.6-19,15.3l-1-2.7c-6.9.7-12.6,15-20.5,13.2v-.9c7-6.4,17.4-15.6,23.4-22.6Z"/>
  <path class="st3" d="M115.9,458.7c-.3,5.2-.3,7.3.1,12.5v.9c-8.1,6.5-35.5,36.3-39.6,45,.1-6.4,0-11.8,1.4-18.2,15-16.3,20.9-24.7,38-40.2Z"/>
  <path class="st5" d="M663.9,279.1c150.6,4.2,265,32.1,397.8,101.3,45.2,27.6,69.4,44.6,109.3,79.1l11.4,10.7c-.7-3.2-1-3.6,0-6.5,3.5-.6,5.2.9,9,2.5,6.5,5.4,11.6,11.1,16.9,17.7,3.3,3.9,9.8,12,13.2,15.2,1.4,2.8.8,12.1.9,15.8,1.3,5.4.9,10.2.7,15.8l.2,70.1c0,9.1.3,23.4-.3,32.2-1.1,4-3.4,14.7-6.3,16.6-47.2-211.6-308.4-312.8-501.7-325.8-14.1-.9-28.1-1.4-42.2-2.9-1.4-8.9-4-23-6.8-31.5l-2-10.4Z"/>
  <path class="st2" d="M663.9,279.1c150.6,4.2,265,32.1,397.8,101.3,45.2,27.6,69.4,44.6,109.3,79.1l11.4,10.7c-.7-3.2-1-3.6,0-6.5,3.5-.6,5.2.9,9,2.5,6.5,5.4,11.6,11.1,16.9,17.7,3.3,3.9,9.8,12,13.2,15.2,1.4,2.8.8,12.1.9,15.8,1.3,5.4.9,10.2.7,15.8l-2-.9c-25-38.2-74.1-82.8-110.7-110.2-9.4-7.1-31.2-19.9-42.4-27.4-96.1-59.1-227.7-94.4-339.5-100.2-15.4-.8-48.3-4.6-62.7-2.5l-2-10.4Z"/>
  <path class="st3" d="M1182.3,470.2c-.7-3.2-1-3.6,0-6.5,3.5-.6,5.2.9,9,2.5,6.5,5.4,11.6,11.1,16.9,17.7-2.9,5-3,5.7-2.2,11.3l-23.7-25Z"/>
  <path class="st10" d="M1208.2,483.9c3.3,3.9,9.8,12,13.2,15.2,1.4,2.8.8,12.1.9,15.8-5.4-6.2-11-13.3-16.3-19.7-.9-5.6-.7-6.4,2.2-11.3Z"/>
  <path class="st0" d="M675.5,331.7c177.4,1.5,426.7,86,508.9,256.5,21.5,43.7,30.1,92.7,24.8,141.2-1.5,14.3-3.2,27.1-8,40.7-.6,1.7-1.1,2.7-1.9,4.3-.7-1.8-.7-1.6-.4-3.5,12.2-79.4-12.2-152.7-67.1-213.7-113.1-125.8-282-178.6-447.8-187.4-3.1-12.6-5.9-25.3-8.4-38Z"/>
  <path class="st13" d="M94.8,761.6c-6.9-19.3-5.9-43-6.1-63.4-.8-77.1,37.9-145.5,92.3-198.6,98-95.6,240.7-146.6,375-161.6,17.7-2,45.9-5.1,63-4.9-1.6,11.1-5.1,25.5-7.4,36.7-17.5.4-45.2,4.2-63.1,6.6-115.9,15.1-241.2,59.7-332.1,134.6-67.1,55.2-111.1,118.2-119.6,206-.7,9.3.5,40.2-1.9,44.8Z"/>
  <path class="st17" d="M644.9,260.7c1.2,15.8.4,36.4,0,52.5,1.7,19.2-.8,58-.8,79.1l.2,192.9c-28,19.2-61.3,42.8-85.9,65.3,7.6-26.6,12.7-60.8,18.9-88.6l46.5-206.6c5.9-25.7,10.2-50.1,16.8-75.9,1.3-6.4,2.6-12.5,4.3-18.8Z"/>
  <path class="st1" d="M644.9,260.7c1.2,15.8.4,36.4,0,52.5-2.7-10.2,2.9-26.4-4.4-33.7,1.3-6.4,2.6-12.5,4.3-18.8Z"/>
  <path class="st15" d="M639.3,328.4c2.4,9.8-4.9,90.5-5.4,106.8-.8,5.4-1.8,12.5-4.1,17.5-3.3,7.3-9,8.3-15.6,4.5-1.6-2.2-3.2-5.6-4.5-8.1,5.5-25.2,11.3-50.4,17.3-75.5,3-12.8,7.5-33.7,12.3-45.2Z"/>
  <path class="st16" d="M651.1,258.8l21.2,96.2c4.7,20.5,8.7,41.9,13.1,62.5l26.3,118.7c4.4,19.8,9.9,52.1,15.6,70.5,3.1,12.6,5.7,25.3,8.1,38.1-9.3-8.3-40.6-31.5-50.9-36.3-10.1-7.8-22-15.7-32.5-23.6-1.5-75.3-1.4-150.5.2-225.8-2.6-23.5.6-48.6-.3-72.2-.4-9.4-.6-18.7-.8-28.1Z"/>
  <path class="st17" d="M684.5,608.5c7.4.3,37.4.6,42.8-1.8,3.1,12.6,5.7,25.3,8.1,38.1-9.3-8.3-40.6-31.5-50.9-36.3Z"/>
  <path class="st14" d="M651.1,258.8l21.2,96.2c-.8-.6-1.7-1.3-2.8-2.2-5.8-13.9-8.9-35.7-13-49.6-2.9,16.6-.5,34.9-4.2,56-2.6-23.5.6-48.6-.3-72.2-.4-9.4-.6-18.7-.8-28.1Z"/>
  <path class="st3" d="M597.4,627.5l1.6.9c1.9,4.3,2.2,17.3,2.6,22.7-8,12.5-13.9,27.6-3.7,40.3,21.7,27.1,68.8,27.5,95.6,8.4,20.5-14.6,11-29.5,7.2-49.1-1.4-7.1-.1-15.1.9-22.1,14.8,9.5,26.6,16.5,35.3,32.2,20.1,59.3-143,93.7-178.2,11.4,6.5-27.1,18-27.9,38.8-44.7Z"/>
  <path class="st16" d="M636.9,892.1c9.5-1.8,36.1-1.3,45,2.6,11,4.7,13.9,8.4,18.5,18.8-7.6,1.6-14.6,2-22.4,2.2l-7.9-8.5c-10.3-2.7-31.4-7-39.3,2.8-8.6,23.6,69.6,11.6,71.4,37.8,1.5,23-24,26.4-39.9,29-28.6,1.5-47.7-.3-63.1-26.6l28.1-.5c3.9,7.4,8,13.5,17.1,14,9.3.5,31.1,2.5,31.8-11-6.5-15.6-51.4-10.9-65.4-24.5-3.1-2.4-7.4-6.7-7.4-11.2-.2-19.7,20.1-23.1,33.4-24.9Z"/>
  <path class="st2" d="M607,623.7c12.9-10.7,28.3-24.3,43.8-30.5,13.7,10.6,28.6,21,42.7,31.1-.5,8-.3,23.9-7,28.4-7.5,5.1-26.1,7.4-34.4,12.7-13.1-1.7-32.1-10.2-43.6-16.8-.2-8.2-.9-16.7-1.5-24.9Z"/>
  <path class="st6" d="M650.8,593.2c13.7,10.6,28.6,21,42.7,31.1-.5,8-.3,23.9-7,28.4-7.5,5.1-26.1,7.4-34.4,12.7-1.9-12.6-.6-28.3-.5-41.3,0-10.5-.3-20.4-.8-30.9Z"/>
  <path class="st4" d="M555.3,686.4c8,.9,15.9,15.3,23.6,20.6,38.7,26.6,96.4,28.4,137.1,5.3,12.3-7,19.2-15.5,28.1-26.5-.9,8.5-1.8,12.7-4.6,20.8-19.2,46.7-90.3,49.8-132,37-22.3-6.9-46.4-19.4-51.5-44.6-.9-4.3-2-8.2-.7-12.5Z"/>
  <path class="st16" d="M746.1,667.2c32,1.9,65.1,7.7,97,11,9.6,1,22.7,2.2,31.9,4.2,22.6,1.8,45.1,5.2,67.7,7.3,4.4.4,8.8.7,13.1,2.1-2.4,1-8.8.5-11.7.4-45-1.7-90,1.3-134.9,1.4-12.5,0-24.9-.4-37.4-1-5.1.6-13.8.4-19.2.5-1-11.4-1.8-15.4-6.4-25.8Z"/>
  <path class="st17" d="M875,682.4c22.6,1.8,45.1,5.2,67.7,7.3,4.4.4,8.8.7,13.1,2.1-2.4,1-8.8.5-11.7.4-45-1.7-90,1.3-134.9,1.4-12.5,0-24.9-.4-37.4-1,9-2,31.9-1.4,42.8-1.8,26.1-1.1,53.5-1.3,79.4-3.3-6.6-2.2-12.5-1.6-19-5Z"/>
  <path class="st16" d="M377.8,694.9c56-1.3,111.9-1.6,167.9-1,2.7,12.9,4.7,18.4,13,28.7-10.5-2-20.9-3.6-31.6-5-51.1-6.8-103-12.2-153.8-20.2l4.5-2.4Z"/>
  <path class="st16" d="M689.8,753.1c.4-.1,2.2,0,2.7,0,.8,3.2-11,38.2-12.9,44.1-8.8,27-17.1,54.1-24.7,81.4l-.7.5-1-.5c-2.5-37.4-1.3-83.4-1.1-121.5,14.5,0,23.5-1.4,37.7-4Z"/>
  <path class="st16" d="M739.1,725.6c3,2,22.3,21.6,25.4,24.8,16.5,17.1,35.1,34.2,51,51.7-4.8-2.6-8-4.8-12.4-7.9-11.9-6.5-26.8-17.1-38.1-24.9-13.6-9.4-29.3-19.7-42.3-29.9,5.5-4.5,11-9.2,16.4-13.8Z"/>
  <path class="st14" d="M684.3,661.9l.7.4c2.4,3.5.5,26,.2,31.3-11.7,7.5-16.3,8.4-29.5,11.9-5-4-2.9-26.4-2.8-33,10.9-2.9,20.6-7.1,31.3-10.6Z"/>
  <path class="st16" d="M578.5,740.4l22.4,10.8c-21.1,9.6-43.8,21.9-64.6,30.8-1.4-2-4.5-5-6.2-6.9l48.5-34.7Z"/>
  <path class="st17" d="M621.3,665.1l27.8,8.3c0,11.7-.2,20.4-1.3,32-6,.4-21.2-5.1-26.8-7.3l.3-33Z"/>
  <path class="st17" d="M491.8,585.8c6.5,3.6,18,12.5,24.4,17.2,13.4,9.9,25.4,18.3,39.6,27.1-1.2,4.8-2.3,11.4-3.3,16.5l-.6,2.3-1.5.4c-8-8.9-55.9-58.2-58.6-63.5Z"/>
  <path class="st17" d="M807.9,584.2c-13.1,11.2-29.7,26.3-43.1,36.5-2.5-3.5-6.5-4.7-10.6-6.2,16.5-9.9,36.4-21.9,53.6-30.3Z"/>
  <path class="st16" d="M754.2,614.5c4.1,1.5,8,2.7,10.6,6.2-8.1,6.8-14.3,11.8-22.9,17.9l-3.3-15.4,15.7-8.8Z"/>
  <path class="st17" d="M489.2,803.9c13.6-9.7,27.2-19.3,40.8-28.8,1.8,1.9,4.8,4.9,6.2,6.9-14.5,7.4-31.9,16.5-47.1,22Z"/>
  <path class="st16" d="M692.9,407.7c3.8,0,4.9-.2,8.2,1.3,1.1,2.2,0,33.6-.1,37.9-3-5.1-8.1-32.4-8-39.3Z"/>
  <path class="st6" d="M1216.6,649.8c3-1.9,5.2-12.6,6.3-16.6.2,17.8.2,38.5-1.7,56.3-2.7-11.4-3.4-27.5-4.6-39.7Z"/>
  <path class="st17" d="M613.4,660.3c8.4,4.6,4.8,26.6,4,35-6.9-5.2-6.1-27.4-4-35Z"/>
  <path class="st17" d="M604.9,930.9c4.4,1.8,14.4,8.1,18.9,10.7-11.2,1.3-14.7-.4-18.9-10.7Z"/>
  <path class="st16" d="M631.6,979.8c8.5,1.6,10.3,3.4,12.3,11.8-8.2-1.9-10.2-3.7-12.3-11.8Z"/>
  <path class="st16" d="M644.4,982.2c9,.2,9.6,2.7,13.4,10.1-9.1-.6-9.8-2.4-13.4-10.1Z"/>
  <path class="st17" d="M656.5,981.8c8.8.2,9.5,1.7,12.8,9.2-8.5,0-9.4-2-12.8-9.2Z"/>
  <path class="st17" d="M618.6,976.8c8.3,1.7,9.1,4,11.5,11.4-7.7-2.3-9.7-3.7-11.5-11.4Z"/>
  <path class="st17" d="M645.4,907.8c8.1.7,8.8,2.5,11.2,9.8-7.7-1-9.5-2.3-11.2-9.8Z"/>
  <path class="st16" d="M678.9,977.5c3.7,0,4.3,0,7.7,1.3,2.7,3.1,1.8,1.9,2.7,6.2-3.3.8-3.4.8-6.6-.4-2.8-2.6-2.7-3.2-3.8-7.2Z"/>
  <path class="st17" d="M642.1,945.2c7.1,2.3,8.4,4.9,12.1,11.1-7.2-2.2-8.3-4.8-12.1-11.1Z"/>
  <path class="st17" d="M652,946.8c7.1,2.1,7.6,3.3,11.2,9.4-6.5-1.8-7.8-3.6-11.2-9.4Z"/>
  <path class="st7" d="M373.3,697.3c-2.4,0-8.2-.2-9.7-1.6,4.6-1.6,9.4-1,14.3-.8l-4.5,2.4Z"/>
  <path class="st12" d="M1290.5,643.9s9.6,114.8,5,220"/>
</svg>